<?xml version="1.0" encoding="UTF-8" standalone="no"?>
<!-- Created with Inkscape (http://www.inkscape.org/) -->

<svg
   xmlns:dc="http://purl.org/dc/elements/1.1/"
   xmlns:cc="http://creativecommons.org/ns#"
   xmlns:rdf="http://www.w3.org/1999/02/22-rdf-syntax-ns#"
   xmlns:svg="http://www.w3.org/2000/svg"
   xmlns="http://www.w3.org/2000/svg"
   xmlns:sodipodi="http://sodipodi.sourceforge.net/DTD/sodipodi-0.dtd"
   xmlns:inkscape="http://www.inkscape.org/namespaces/inkscape"
   width="298.81146mm"
   height="187.15762mm"
   viewBox="0 0 1058.7808 663.15693"
   id="svg2"
   version="1.1"
   inkscape:version="0.91 r13725"
   sodipodi:docname="Paolo_Monti_-_Serie_fotografica_-_BEIC_6342962.svg">
  <defs
     id="defs4" />
  <sodipodi:namedview
     id="base"
     pagecolor="#ffffff"
     bordercolor="#666666"
     borderopacity="1.0"
     inkscape:pageopacity="0.0"
     inkscape:pageshadow="2"
     inkscape:zoom="0.7"
     inkscape:cx="502.68901"
     inkscape:cy="264.381"
     inkscape:document-units="px"
     inkscape:current-layer="layer1"
     showgrid="false"
     fit-margin-top="0"
     fit-margin-left="0"
     fit-margin-right="0"
     fit-margin-bottom="0"
     inkscape:window-width="1920"
     inkscape:window-height="1104"
     inkscape:window-x="0"
     inkscape:window-y="1"
     inkscape:window-maximized="1" />
  <metadata
     id="metadata7">
    <rdf:RDF>
      <cc:Work
         rdf:about="">
        <dc:format>image/svg+xml</dc:format>
        <dc:type
           rdf:resource="http://purl.org/dc/dcmitype/StillImage" />
        <dc:title></dc:title>
      </cc:Work>
    </rdf:RDF>
  </metadata>
  <g
     inkscape:label="Livello 1"
     inkscape:groupmode="layer"
     id="layer1"
     transform="translate(727.68901,-133.5863)">
    <path
       style="fill:#000000"
       d="m -393.79997,796.10499 c -0.35898,-0.5808 -0.42764,-1.2811 -0.15258,-1.5561 0.74581,-0.7458 1.55898,0.351 1.15616,1.5595 -0.28227,0.8468 -0.47856,0.8461 -1.00358,0 z m -0.4858,-25.9451 c 0,-0.4584 0.58464,-0.8334 1.29919,-0.8334 0.71455,0 1.06741,0.375 0.78415,0.8334 -0.28327,0.4583 -0.8679,0.8333 -1.29919,0.8333 -0.43128,0 -0.78415,-0.375 -0.78415,-0.8333 z m 400.4166557,-2.5 c -0.67957,-1.0996 0.3169,-2.6601 1.3076,-2.0478 1.0122,0.6256 1.0056,2.8811 -0.01,2.8811 -0.4313,0 -1.0159,-0.375 -1.2992,-0.8333 z m -402.8508557,-1.3195 c 0.04,-0.9708 0.23745,-1.1682 0.50346,-0.5035 0.24073,0.6016 0.21113,1.3204 -0.0657,1.5973 -0.27691,0.2769 -0.47386,-0.2153 -0.43768,-1.0938 z m 0.76754,-2.902 c 0,-0.4885 0.39577,-1.6276 0.8795,-2.5315 1.07544,-2.0094 0.27615,-4.9137 -1.35233,-4.9137 -0.65661,0 -1.19384,-0.3418 -1.19384,-0.7596 0,-0.4178 0.65625,-0.634 1.45833,-0.4804 0.80209,0.1535 1.72544,0.3078 2.0519,0.3429 0.32645,0.035 0.56892,2.1263 0.53881,4.6471 -0.0399,3.3415 -0.37006,4.5833 -1.21856,4.5833 -0.6401,0 -1.16381,-0.3996 -1.16381,-0.8881 z m 400.3304657,-1.9527 c -0.70099,-1.8268 0.26759,-2.898 2.17035,-2.4004 2.1276,0.5564 2.1226,1.6048 -0.013,2.7478 -1.3123,0.7023 -1.78352,0.6264 -2.15722,-0.3474 z M -401.3691,751.82649 c -0.28327,-0.4583 -0.1179,-0.8333 0.36748,-0.8333 0.48539,0 0.88252,0.375 0.88252,0.8333 0,0.4584 -0.16537,0.8334 -0.36748,0.8334 -0.20212,0 -0.59925,-0.375 -0.88252,-0.8334 z m 5.41667,-5.8595 c 0,-0.4439 0.5625,-0.8071 1.25,-0.8071 0.6875,0 1.25,0.1473 1.25,0.3275 0,0.1801 -0.5625,0.5433 -1.25,0.8071 -0.6875,0.2639 -1.25,0.1165 -1.25,-0.3275 z m -0.45094,-7.5293 c -0.97719,-1.5811 0.44802,-1.9712 1.89935,-0.5199 1.29912,1.2991 1.3014,1.4087 0.0293,1.4087 -0.75867,0 -1.62657,-0.3999 -1.92869,-0.8888 z m -0.0994,-12.9091 c -0.27393,-0.7138 -1.01216,-1.1006 -1.64051,-0.8595 -1.31994,0.5065 -1.4861,-1.0214 -0.30913,-2.8426 0.68834,-1.0651 0.8097,-1.0317 0.82057,0.2262 0.007,0.8119 0.95026,1.9034 2.09609,2.4254 2.32322,1.0586 2.76657,2.3484 0.80719,2.3484 -0.70189,0 -1.50029,-0.584 -1.77421,-1.2979 z m 401.7555257,-1.5647 c -0.58305,-3.1079 -0.0465,-4.6374 1.62695,-4.6374 1.3842,0 2.7329,3.2272 2.3508,5.625 -0.4965,3.1154 -3.3405,2.4092 -3.97775,-0.9876 z m 100.0448543,-2.9707 c 0.2833,-0.4583 0.6804,-0.8333 0.8825,-0.8333 0.2022,0 0.3675,0.375 0.3675,0.8333 0,0.4583 -0.3972,0.8333 -0.8825,0.8333 -0.4854,0 -0.6508,-0.375 -0.3675,-0.8333 z m -503.57607,-3.7131 c 0.13349,-0.9276 0.89896,-1.8116 1.70105,-1.9645 1.07551,-0.205 1.45833,0.2714 1.45833,1.8147 0,1.593 -0.40612,2.062 -1.70105,1.9645 -1.20148,-0.091 -1.62977,-0.6234 -1.45833,-1.8147 z m -3.71562,-2.7869 c -1.70467,-0.3377 -1.89957,-1.4682 -0.41667,-2.4169 1.72116,-1.1012 3.17111,-6.1065 2.26135,-7.8064 -0.44165,-0.8253 -0.80301,-2.6748 -0.80301,-4.11 0,-1.4353 -0.40388,-3.3643 -0.8975,-4.2866 -0.49364,-0.9224 -0.6235,-2.304 -0.2886,-3.0702 0.3349,-0.7663 0.53333,-2.0163 0.44096,-2.7778 -0.23579,-1.9438 1.07462,-2.5158 3.5807,-1.5629 1.81698,0.6908 2.02994,1.1094 1.4031,2.7581 -0.44699,1.1757 -0.42025,2.5133 0.0677,3.3852 0.44367,0.7928 0.83177,2.648 0.86244,4.1228 0.0307,1.4747 0.55161,3.6628 1.15766,4.8623 1.04269,2.0638 0.92772,2.321 -2.1397,4.7861 -1.78288,1.4327 -3.36051,3.46 -3.50583,4.5051 -0.18043,1.2974 -0.72674,1.8084 -1.72257,1.6112 z m 504.93059,-0.7222 c -1.1266,-1.1267 -0.4976,-3.0571 1.6424,-5.0404 1.6904,-1.5666 2.0481,-1.6849 1.5489,-0.5122 -0.3571,0.8386 -0.8263,2.556 -1.0426,3.8165 -0.389,2.2656 -1.0694,2.8154 -2.1487,1.7361 z m -626.38893,-4.9103 c 0,-0.7146 0.375,-1.0674 0.83334,-0.7842 0.45833,0.2833 0.83333,0.8679 0.83333,1.2992 0,0.4313 -0.375,0.7842 -0.83333,0.7842 -0.45834,0 -0.83334,-0.5847 -0.83334,-1.2992 z m 626.66671,-5.3675 c 0,-0.4583 0.375,-0.8333 0.8333,-0.8333 0.4583,0 0.8333,0.375 0.8333,0.8333 0,0.4583 -0.375,0.8333 -0.8333,0.8333 -0.4583,0 -0.8333,-0.375 -0.8333,-0.8333 z m -1.4517,-3.1111 c -0.7163,-0.2469 -0.7937,-0.8077 -0.2511,-1.8214 0.8604,-1.6078 0.2639,-5.0675 -0.8738,-5.0675 -0.3935,0 -0.3264,-1.0235 0.1492,-2.2743 0.6045,-1.59 0.5983,-2.3632 -0.021,-2.5695 -1.248004,-0.416 -1.107504,-1.8673 0.1563,-1.6145 1.8006,0.3601 3.0671,3.4008 3.0369,7.2916 -0.035,4.4743 -0.7848,6.5422 -2.1969,6.0556 z m -495.21502,-5.2222 c 0,-0.4584 0.375,-0.8334 0.83333,-0.8334 0.45833,0 0.83333,0.375 0.83333,0.8334 0,0.4583 -0.375,0.8333 -0.83333,0.8333 -0.45833,0 -0.83333,-0.375 -0.83333,-0.8333 z m -130.83334,-1.25 c 0,-0.6875 0.375,-1.25 0.83333,-1.25 0.45834,0 0.83334,0.5625 0.83334,1.25 0,0.6875 -0.375,1.25 -0.83334,1.25 -0.45833,0 -0.83333,-0.5625 -0.83333,-1.25 z m 58.75395,-3.6478 -2.49604,-0.5339 3.32937,-0.993 c 1.83116,-0.5461 4.36064,-1.2061 5.62106,-1.4667 2.64103,-0.546 3.10421,-2.10865 0.625,-2.10865 -0.91667,0 -1.66667,-0.375 -1.66667,-0.83333 0,-0.45833 1.03125,-0.84168 2.29167,-0.85187 l 2.29166,-0.0185 -1.96326,-1.50996 c -2.12988,-1.63811 -3.73078,-1.67827 -20.74507,-0.52042 -6.84549,0.46585 -9.375,0.38114 -9.375,-0.31395 0,-0.52357 0.5625,-0.99882 1.25,-1.05611 0.6875,-0.0573 1.625,-0.19792 2.08333,-0.3125 0.45833,-0.11458 2.52083,-0.25521 4.58333,-0.3125 2.16901,-0.0602 3.75,-0.50089 3.75,-1.04518 0,-0.66012 -1.67904,-0.77799 -5.625,-0.39489 -6.10631,0.59285 -26.00468,1.55571 -29.375,1.42142 -8.35738,-0.33299 -10.31841,-0.0769 -12.07936,1.57742 -2.13314,2.00398 -3.73784,2.11541 -15.21874,1.05681 -10.37767,-0.95686 -12.37901,-2.13635 -3.03231,-1.78709 5.33995,0.19955 7.21991,-0.0537 8.98488,-1.2101 3.09365,-2.02703 2.03009,-3.05589 -3.15895,-3.05589 -2.42337,0 -5.58338,-0.58729 -7.02225,-1.3051 -1.99648,-0.99598 -4.49424,-1.22608 -10.54544,-0.97148 -4.36113,0.1835 -8.17899,0.58329 -8.48413,0.88844 -1.24275,1.24271 -3.61036,0.51358 -3.61036,-1.11189 0,-1.52122 -0.55556,-1.66666 -6.36647,-1.66666 -5.01012,0 -6.58539,-0.29941 -7.3941,-1.40538 -0.95544,-1.30664 -1.22483,-1.30987 -3.83448,-0.046 -2.34867,1.1375 -2.9117,1.17201 -3.44929,0.2114 -0.70452,-1.25892 -5.22798,-1.45625 -7.42774,-0.32401 -2.22803,1.14679 -29.02793,1.9795 -29.02793,0.90195 0,-0.49845 0.39321,-1.14929 0.8738,-1.4463 0.59734,-0.36918 0.56505,-0.91205 -0.10204,-1.71585 -0.53671,-0.6467 -0.68429,-1.17581 -0.32797,-1.17581 0.35632,0 0.0181,-0.69593 -0.7517,-1.5465 -1.24399,-1.37459 -2.62471,-1.52918 -12.42083,-1.39069 -6.06169,0.0857 -11.86501,0.43189 -12.89626,0.76932 -1.13268,0.37062 -1.875,0.27172 -1.875,-0.24982 0,-0.47484 -0.65625,-0.63715 -1.45833,-0.36071 -1.17616,0.40536 -1.13585,0.24991 0.20833,-0.80339 1.33591,-1.04682 1.45994,-1.5156 0.625,-2.36211 -1.34225,-1.36085 -1.4121,-5.21674 -0.0796,-4.39319 0.55647,0.34392 0.73733,0.23094 0.42898,-0.26799 -0.29321,-0.47442 -1.51121,-1.04956 -2.70666,-1.27809 -1.93677,-0.37023 -2.1309,-0.19235 -1.78199,1.63285 0.24661,1.29003 -0.0464,2.2164 -0.7914,2.50229 -0.98791,0.3791 -0.95426,0.70669 0.20407,1.98662 2.05368,2.26929 0.95934,4.28362 -1.92179,3.53739 -1.27049,-0.32905 -2.96622,-0.60612 -3.7683,-0.6157 -0.80209,-0.01 -1.45834,-0.2814 -1.45834,-0.60403 0,-0.32264 -0.21811,-1.27353 -0.48469,-2.11309 -0.44354,-1.39685 -0.37277,-1.38912 0.83333,0.0911 1.3047,1.60126 1.3179,1.60126 1.30527,0 -0.0178,-2.25436 -1.28701,-4.02606 -2.39407,-3.34186 -0.53947,0.33341 -0.9265,-0.0127 -0.9265,-0.8286 0,-1.21464 -0.19419,-1.24893 -1.45834,-0.25751 -1.31937,1.03471 -1.35019,1.00575 -0.32343,-0.30403 0.62419,-0.79624 0.93128,-1.97833 0.68241,-2.62686 -0.96653,-2.51875 0.63907,-2.05155 1.78376,0.51905 l 1.21221,2.7222 0.84919,-2.74417 c 0.63977,-2.06744 0.58346,-2.99221 -0.22835,-3.75 -0.86524,-0.80766 -0.98847,-0.63642 -0.62551,0.86917 0.68279,2.83224 -0.15401,2.24911 -1.54302,-1.07525 -1.36892,-3.2763 -2.64059,-3.23734 -2.64059,0.0809 0,1.18857 -0.44841,2.60166 -0.99647,3.1402 -0.77068,0.75729 -0.86822,0.45989 -0.43049,-1.3125 0.36108,-1.46208 0.23159,-2.29169 -0.3577,-2.29169 -0.50802,0 -0.92367,-0.89377 -0.92367,-1.98614 0,-1.90969 -2.56421,-3.50521 -3.74141,-2.32801 -0.27752,0.27753 -2.20699,0.58199 -4.2877,0.67659 -4.51033,0.20507 -4.74582,0.38854 -4.65378,3.62582 0.0924,3.24967 -1.37616,3.25818 -2.02545,0.0118 -0.275,-1.375 -1.01562,-2.5 -1.64583,-2.5 -1.35707,0 -1.43012,0.81045 -0.33313,3.69575 0.90284,2.37463 0.35134,2.65138 -1.89248,0.94967 -1.7532,-1.32962 -1.1646,-5.47876 0.77721,-5.47876 0.65088,0 3.46321,-1.15084 6.24962,-2.55741 3.5169,-1.77533 6.12177,-2.51622 8.51791,-2.42272 6.01467,0.2347 7.2017,0.0254 7.2017,-1.26987 0,-0.6875 -0.7269,-1.25 -1.61534,-1.25 -0.88843,0 -3.65974,-1.12199 -6.15847,-2.4933 -2.49872,-1.37132 -5.99057,-2.59007 -7.75966,-2.70834 -1.76909,-0.11826 -3.71206,-0.68378 -4.31772,-1.2567 -1.0638,-1.00629 -3.00472,-1.4383 -4.73214,-1.0533 -0.45834,0.10216 -3.14645,0.14272 -5.97359,0.0901 -3.78868,-0.0705 -5.50671,0.27086 -6.53396,1.2981 -1.17732,1.17732 -1.50936,1.21099 -2.13865,0.21689 -1.37982,-2.17974 -0.71071,-2.88706 2.35453,-2.48902 0.57292,0.0744 1.04167,-0.67709 1.04167,-1.66997 0,-1.51017 0.20431,-1.63567 1.25,-0.76783 1.81038,1.50249 1.6166,-0.18113 -0.49791,-4.32592 -1.11038,-2.17652 -1.97055,-3.06597 -2.3583,-2.43858 -0.34489,0.55805 -1.25788,0.73915 -2.09903,0.41637 -1.31261,-0.50369 -1.37177,-0.35285 -0.50026,1.27558 0.7931,1.48192 1.22389,1.65139 2.18028,0.85765 0.96995,-0.80498 1.19188,-0.65983 1.19188,0.77954 0,0.97278 -0.46875,1.79756 -1.04166,1.83284 -0.57292,0.0352 -2.35417,0.15272 -3.95834,0.261 -1.60416,0.10828 -3.74049,-0.0912 -4.74739,-0.44334 -2.52172,-0.88186 -3.58897,2.19861 -1.36985,3.9539 1.44457,1.14263 1.41257,1.19973 -0.54942,0.98046 -1.58142,-0.17674 -2.14686,-0.78494 -2.34702,-2.5245 -0.14503,-1.26041 -0.77003,-2.29166 -1.38889,-2.29166 -0.61886,0 -1.31435,-0.46875 -1.54553,-1.04167 -0.23117,-0.57292 -0.44992,0.2172 -0.48611,1.75583 -0.0508,2.15935 0.21935,2.68807 1.18421,2.31781 0.76143,-0.29218 1.25,-0.002 1.25,0.74418 0,0.67311 -0.28125,1.24291 -0.625,1.2662 -0.34375,0.0232 -2.21631,0.24546 -4.16124,0.49373 l -3.53625,0.45138 0.54133,-2.70664 c 0.3884,-1.94198 0.26915,-2.53842 -0.42209,-2.11121 -0.52988,0.32748 -0.96341,1.51079 -0.96341,2.62957 0,1.11878 -0.33165,2.03415 -0.73699,2.03415 -0.40534,0 -0.79606,-6.51307 -0.86826,-14.47348 l -0.13129,-14.47349 6.90993,1.12044 c 3.80047,0.61624 8.59744,1.31456 10.65994,1.55184 8.95001,1.02962 10.12778,1.36662 9.1008,2.60405 -0.78093,0.94097 -0.63419,1.17064 0.74798,1.17064 0.94574,0 1.9245,0.33166 2.17503,0.73702 0.42367,0.68551 7.01947,2.05907 13.80952,2.8758 3.04682,0.36647 7.5,-1.34433 7.5,-2.88131 0,-1.79813 24.65045,2.377 25.92688,4.39131 0.55579,0.87708 0.7171,0.88899 0.72703,0.0537 0.01,-0.83256 1.55594,-0.95139 6.88776,-0.52943 3.78125,0.29924 7.22039,0.75035 7.64253,1.00245 0.42214,0.25211 1.92214,0.54365 3.33333,0.64788 1.41119,0.10423 7.62831,0.59218 13.81581,1.08433 6.1875,0.49216 16.6875,1.13747 23.33333,1.43403 6.64584,0.29657 13.39584,0.66548 15,0.81981 4.54499,0.43724 60.91107,0.42328 66.81334,-0.0166 2.8985,-0.21599 9.5825,-0.6005 14.85333,-0.85446 12.55886,-0.60511 26.97517,-1.67718 45.30059,-3.36876 l 14.88392,-1.37391 5.0185,2.25217 c 4.80626,2.15692 5.49837,2.23928 16.36608,1.94741 l 11.34758,-0.30475 0.2265,15.56308 c 0.21813,14.98841 0.16428,15.58283 -1.45834,16.09782 -2.12899,0.67571 -2.11715,1.60953 0.0652,5.14062 1.51351,2.44891 1.75667,4.18051 1.79922,12.81303 0.0271,5.4898 -0.10419,10.13411 -0.29168,10.32069 -0.18748,0.18657 -2.02838,0.4803 -4.09088,0.6527 -4.62218,0.38638 -5.33938,1.83163 -1.05908,2.13418 6.50431,0.45975 6.69907,0.60868 6.50693,4.97566 -0.16201,3.6822 -0.31995,3.948 -2.18624,3.6792 -1.10639,-0.1593 -2.53666,-0.7207 -3.17839,-1.2475 -0.7578,-0.6221 -5.15647,-0.9455 -12.54913,-0.9225 -9.35079,0.029 -11.96853,0.314 -14.66656,1.5965 -4.71142,2.2395 -13.13431,2.6807 -16.50643,0.8647 -2.46127,-1.3254 -2.88855,-1.332 -5.85975,-0.091 -1.7627,0.7365 -3.44035,1.2947 -3.72812,1.2405 -0.28779,-0.054 -1.64646,-0.3389 -3.01929,-0.6325 z m 35.41272,-5.93558 c 0,-1.0441 -0.88437,-1.0441 -2.5,0 -1.0108,0.65322 -0.8912,0.81025 0.625,0.82057 1.03125,0.007 1.875,-0.36224 1.875,-0.82057 z m 14.58333,0.0901 3.33334,-0.64717 -4.16667,-0.62486 c -5.85066,-0.8774 -7.35873,-1.37872 -6.54222,-2.17479 0.38989,-0.38013 2.02139,-0.81163 3.62555,-0.95888 3.74914,-0.34417 3.01947,-1.9622 -0.83333,-1.84787 -4.64725,0.1379 -16.18731,1.23965 -16.52537,1.57771 -0.89038,0.89037 1.13198,2.08574 3.52873,2.08574 1.68,0 3.32127,0.64414 4.24664,1.66667 1.63727,1.80915 6.89556,2.17334 13.33333,0.92345 z m -100.625,-10.29846 c -0.19098,-0.57291 -1.40973,-1.04166 -2.70833,-1.04166 -1.29861,0 -2.51736,0.46875 -2.70834,1.04166 -0.23569,0.70707 0.63426,1.04167 2.70834,1.04167 2.07407,0 2.94402,-0.3346 2.70833,-1.04167 z m 7.70833,-0.625 c 0,-0.45833 -0.375,-0.83333 -0.83333,-0.83333 -0.45833,0 -0.83333,0.375 -0.83333,0.83333 0,0.45834 0.375,0.83334 0.83333,0.83334 0.45833,0 0.83333,-0.375 0.83333,-0.83334 z m -138.09527,-14.17963 c -0.52477,-2.00671 -1.90473,-3.0593 -1.90473,-1.45286 0,0.92902 1.52783,3.13251 2.17198,3.13251 0.0946,0 -0.0257,-0.75584 -0.26725,-1.67965 z m -11.90473,-0.7942 c 0,-0.44394 0.5625,-0.59132 1.25,-0.3275 0.86187,0.33073 1.25,-0.0535 1.25,-1.2374 0,-1.66084 -0.0797,-1.67132 -2.43431,-0.31996 -1.33887,0.76841 -2.25424,1.68846 -2.03416,2.04457 0.56733,0.91795 1.96847,0.80427 1.96847,-0.15971 z m 17.20276,-2.31948 c 0.0657,-1.71783 -0.0564,-2.46249 -0.2714,-1.6548 -0.21496,0.8077 -0.80118,1.21493 -1.30271,0.90497 -0.59268,-0.36629 -0.71645,-0.0543 -0.3536,0.89128 0.30706,0.80018 0.55828,1.79919 0.55828,2.22004 0,0.42084 0.28125,0.76443 0.625,0.76351 0.34375,-8.3e-4 0.67874,-1.40717 0.74443,-3.125 z m -3.74032,-1.54312 c -0.15815,-0.86911 -0.45979,-1.75685 -0.67031,-1.97275 -0.6781,-0.69543 -1.81961,1.86895 -1.36236,3.06052 0.64754,1.68747 2.36996,0.76573 2.03267,-1.08777 z m 8.20423,1.8023 c 0,-0.20211 -0.375,-0.59925 -0.83334,-0.88251 -0.45833,-0.28327 -0.83333,-0.1179 -0.83333,0.36748 0,0.48538 0.375,0.88252 0.83333,0.88252 0.45834,0 0.83334,-0.16537 0.83334,-0.36749 z m -25.83334,-15.46585 c 0,-0.45833 -0.39713,-0.83333 -0.88251,-0.83333 -0.48538,0 -0.65075,0.375 -0.36749,0.83333 0.28327,0.45834 0.6804,0.83334 0.88252,0.83334 0.20211,0 0.36748,-0.375 0.36748,-0.83334 z m 10.29112,-4.61002 c -0.66103,-1.72259 -1.12445,-1.5196 -1.12445,0.49254 0,0.94372 0.35862,1.49421 0.79694,1.22331 0.43831,-0.27089 0.58569,-1.04303 0.32751,-1.71585 z m -5.62445,-3.38998 c -0.29658,-0.77286 -0.72673,-1.21771 -0.9559,-0.98855 -0.22917,0.22917 -0.17401,1.04902 0.12257,1.82189 0.29657,0.77286 0.72673,1.21771 0.95589,0.98855 0.22917,-0.22917 0.17402,-1.04902 -0.12256,-1.82189 z m -6.8487,0.0401 c 0.28458,-0.7416 0.14487,-1.0761 -0.32751,-0.78415 -0.45309,0.27998 -0.82379,0.0495 -0.82379,-0.51231 0,-0.56178 -0.23383,-0.78758 -0.51962,-0.50178 -0.52225,0.52224 0.16004,3.09149 0.82097,3.09149 0.19452,0 0.57699,-0.58198 0.84995,-1.29329 z m -56.1513,-3.2409 c 0,-0.66045 -0.375,-1.43259 -0.83334,-1.71585 -0.45833,-0.28327 -0.83333,0.2571 -0.83333,1.20081 0,0.94372 0.375,1.71585 0.83333,1.71585 0.45834,0 0.83334,-0.54036 0.83334,-1.20081 z m 28.33333,-1.69599 c 0,-1.52383 -1.39926,-2.37672 -2.08333,-1.26986 -0.29251,0.47328 -0.94465,0.60538 -1.4492,0.29356 -0.59894,-0.37017 -0.72358,-0.062 -0.35908,0.88789 0.30705,0.80017 0.55828,1.81238 0.55828,2.24936 0,0.47128 0.67803,0.43162 1.66666,-0.0975 0.91667,-0.49058 1.66667,-1.41915 1.66667,-2.06347 z m 6.66667,1.23014 c 0,-0.45834 -0.375,-0.83334 -0.83334,-0.83334 -0.45833,0 -0.83333,0.375 -0.83333,0.83334 0,0.45833 0.375,0.83333 0.83333,0.83333 0.45834,0 0.83334,-0.375 0.83334,-0.83333 z m 38.83681,-2.27431 c -0.8471,-0.84709 -1.54605,0.42824 -0.85102,1.55282 0.52503,0.84951 0.72131,0.85017 1.00359,0.003 0.19299,-0.57899 0.12433,-1.27928 -0.15257,-1.55618 z m -8.00348,0.10698 c 0,-0.53726 -1.125,-1.14196 -2.5,-1.34376 -2.58467,-0.37935 -3.09833,0.0794 -1.67857,1.49918 1.14328,1.14328 4.17857,1.03039 4.17857,-0.15542 z m 3.33334,0.084 c 0,-0.6875 -0.375,-1.25 -0.83334,-1.25 -0.45833,0 -0.83333,0.5625 -0.83333,1.25 0,0.6875 0.375,1.25 0.83333,1.25 0.45834,0 0.83334,-0.5625 0.83334,-1.25 z m -18.98935,-3.55054 c -1.70169,-0.5789 -3.65649,-1.29223 -4.34399,-1.5852 -2.5393,-1.08206 -3.33333,-0.928 -3.33333,0.64677 0,1.8753 3.60483,3.54067 6.47602,2.99181 1.0434,-0.19946 2.12252,0.003 2.39803,0.44789 0.29461,0.47667 0.78852,0.34524 1.1991,-0.31909 0.5111,-0.82697 -0.13084,-1.41166 -2.39583,-2.18218 z m -26.09812,-1.19622 c -0.44248,-0.82678 -1.36344,-1.50324 -2.04659,-1.50324 -1.0765,0 -1.06137,0.34945 0.11347,2.62135 1.00391,1.94135 1.53482,2.3313 2.04659,1.50324 0.38007,-0.61496 0.32901,-1.79457 -0.11347,-2.62135 z m -21.2461,0.86156 c -0.28412,-0.45971 -0.96346,-0.37905 -1.65729,0.19678 -1.58391,1.31452 -1.48216,1.52917 0.48148,1.01567 0.91151,-0.23837 1.44063,-0.78397 1.17581,-1.21245 z m 6.26223,-1.53146 c -0.0302,-0.82422 -0.28976,-0.68229 -0.762,0.41666 -0.98443,2.29091 -0.98443,3.60665 0,2.08334 0.4443,-0.6875 0.7872,-1.8125 0.762,-2.5 z m 4.238,1.71585 c 0,-0.88962 -0.375,-1.84925 -0.83333,-2.13252 -0.47263,-0.2921 -0.83334,0.40802 -0.83334,1.61748 0,1.17289 0.375,2.13252 0.83334,2.13252 0.45833,0 0.83333,-0.72787 0.83333,-1.61748 z m 27.38064,-0.14059 c -1.75846,-1.11421 -2.56257,-0.86767 -1.37183,0.4206 0.59099,0.6394 1.39581,0.96752 1.78849,0.72917 0.39269,-0.23835 0.20519,-0.75575 -0.41666,-1.14977 z m -44.31138,-0.89818 c -0.26602,-0.66477 -0.46348,-0.46732 -0.50347,0.50348 -0.0362,0.87846 0.16077,1.37065 0.43768,1.09375 0.27691,-0.27691 0.30652,-0.99567 0.0658,-1.59723 z m 27.75131,-2.96875 c -0.007,-0.34375 -0.37627,-1.1875 -0.82057,-1.875 -0.65323,-1.0108 -0.81025,-0.8912 -0.82057,0.625 -0.007,1.03125 0.36224,1.875 0.82057,1.875 0.45833,0 0.82759,-0.28125 0.82057,-0.625 z m -17.82383,-5.68413 c 2.82057,-0.81996 4.50326,-1.76822 4.50326,-2.53776 0,-1.26431 -0.64419,-1.2498 -8.75,0.19704 -1.83333,0.32724 -3.80208,0.51589 -4.375,0.41922 -0.57292,-0.0967 -1.04167,0.59067 -1.04167,1.52743 0,2.14552 3.191,2.27565 9.66341,0.39407 z M 4.0077857,689.28429 c -0.66562,-0.4211 -2.05396,-0.7713 -3.08520999,-0.7784 -2.13563001,-0.014 -2.22990001,-0.4126 -0.96014,-4.05503 1.13945999,-3.26867 2.63482999,-3.33143 4.86172999,-0.20404 2.57902,3.62187 2.05522,6.85407 -0.81638,5.03747 z m -485.8961757,-1.7633 c 3.90746,-1.2131 5.55995,-1.4038 6.24304,-0.7207 1.54083,1.5408 -1.06086,2.5072 -6.55709,2.4355 l -5,-0.065 5.31405,-1.6496 z m 87.93855,0.01 c -0.98289,-1.5903 -0.91255,-20.62288 0.0776,-21.00285 1.30083,-0.49925 11.25316,2.07926 11.25316,2.91543 0,0.39488 -0.72787,0.71797 -1.61748,0.71797 -2.06619,0 -3.06804,1.54815 -1.352,2.08922 4.03809,1.27322 3.98901,1.60785 -0.29915,2.03938 -5.90566,0.59432 -6.7345,2.48389 -1.17581,2.6806 2.21527,0.0784 4.77777,0.17215 5.69444,0.20833 0.91667,0.0362 2.17545,0.39393 2.7973,0.79497 1.70111,1.09708 -0.1195,1.89518 -4.71373,2.06635 -8.36481,0.31168 -9.61324,2.62115 -1.4169,2.62115 3.05556,0 5.41666,0.36325 5.41666,0.83334 0,0.45833 -0.77501,0.83333 -1.72226,0.83333 -0.94725,0 -2.95139,0.9375 -4.45366,2.08338 -2.8663,2.1862 -7.45482,2.7913 -8.48815,1.1193 z m -78.82551,-2.10528 c 0.60156,-0.24073 1.32031,-0.21113 1.59722,0.0658 0.27691,0.27693 -0.21528,0.47383 -1.09375,0.43773 -0.97079,-0.04 -1.16825,-0.2375 -0.50347,-0.50351 z m 5.98958,-0.26417 c 0,-0.45833 0.58463,-0.83333 1.29918,-0.83333 0.71455,0 1.06742,0.375 0.78415,0.83333 -0.28326,0.45834 -0.8679,0.83335 -1.29918,0.83335 -0.43128,0 -0.78415,-0.37501 -0.78415,-0.83335 z m 65.4456,-0.78651 c -0.26735,-0.43259 -0.64243,-3.26899 -0.83352,-6.30312 -0.25381,-4.03015 -0.0799,-5.4214 0.64525,-5.16329 0.54597,0.19432 0.90591,1.14127 0.79986,2.10434 -0.14298,1.29836 0.15136,1.61896 1.13861,1.24011 1.12025,-0.42988 1.18388,-0.23521 0.40115,1.22733 -1.09157,2.03962 -1.19482,2.943 -0.2711,2.37211 0.36255,-0.22407 0.50901,0.87881 0.32549,2.45082 -0.32619,2.79413 -1.23292,3.64576 -2.20574,2.0717 z m 500.958456,0.24613 c -0.2972,-0.29721 -0.3181,-1.42601 -0.046,-2.50845 0.3435,-1.36845 -0.1543,-2.81799 -1.6338,-4.75768 -1.6218,-2.12626 -1.8964,-3.02091 -1.155,-3.76235 0.7415,-0.74143 0.7138,-1.38747 -0.1164,-2.71686 -0.7813,-1.25095 -0.8343,-1.99908 -0.1875,-2.64586 1.7021,-1.70212 1.0406,-4.51955 -1.1927,-5.08009 l -2.0945,-0.52568 1.8221,-2.46457 c 1.6373,-2.21454 1.6954,-2.6142 0.5731,-3.93965 -2.1625,-2.55374 -3.4464,-12.31708 -3.3029,-25.1161 0.075,-6.67178 0.515,-13.45692 0.9782,-15.07809 0.4631,-1.62117 1.3762,-9.13507 2.029,-16.69757 0.6529,-7.5625 1.7621,-16.75 2.4649,-20.41667 1.2668,-6.60933 2.1641,-13.98633 3.851804,-31.66667 0.4812,-5.04167 1.5822,-13.47917 2.4467,-18.75 0.8644,-5.27083 1.9814,-13.11211 2.4821,-17.42505 1.0275,-8.85029 1.1691,-9.24162 3.3439,-9.24162 2.4585,0 2.6987,1.22561 1.7619,8.99022 -1.6133,13.37204 -3.4162,29.71257 -3.835,34.75978 -0.3537,4.26167 -1.635,14.63199 -4.4787,36.25001 -0.3316,2.52083 -1.0424,5.37777 -1.5796,6.34876 -0.5371,0.97099 -0.8002,1.94185 -0.5845,2.15749 0.2156,0.21563 -0.021,4.29618 -0.5245,9.0679 -0.5041,4.77171 -1.056704,11.11335 -1.227904,14.09251 -0.1712,2.97917 -0.5715,7.29167 -0.8895,9.58334 -0.318,2.29166 -0.456,8.66666 -0.3067,14.16666 0.1494,5.5 0.3037,13.75 0.343,18.33334 0.052,6.07706 0.3868,8.58026 1.2361,9.24534 0.743504,0.58227 0.974904,1.6674 0.640204,3.00128 -0.2885,1.1491 -0.2633,2.35039 0.056,2.6695 0.3191,0.31913 0.6636,2.88007 0.7656,5.69098 0.102,2.81091 0.4037,5.98048 0.6705,7.04349 0.4677,1.86374 -0.9706,2.73099 -2.309304,1.39236 z m -665.154056,-3.62628 c -0.28327,-0.45834 0.0696,-0.83334 0.78415,-0.83334 0.71455,0 1.29918,0.375 1.29918,0.83334 0,0.45833 -0.35286,0.83333 -0.78415,0.83333 -0.43128,0 -1.01591,-0.375 -1.29918,-0.83333 z M 3.0059057,675.36814 c -0.87527,-0.19734 -1.45833,-1.10167 -1.45833,-2.26188 0,-1.06319 -0.51545,-2.13087 -1.14543999,-2.37262 -1.64959001,-0.633 -2.65408001,-8.09328 -1.2148,-9.02221 0.9183,-0.59267 0.90981,-0.84569 -0.0491,-1.46346 -1.50685001,-0.97079 -1.86904001,-24.46509 -0.39990001,-25.9401 0.51742001,-0.51949 2.5432,-1.15945 4.50172,-1.42215 l 3.56092,-0.47762 -0.5284,3.66838 c -0.2906,2.01762 -0.65431,7.98089 -0.80822,13.25173 -0.16232,5.55856 -0.71845,10.39426 -1.32421,11.51421 -0.85744,1.5853 -0.82527,2.26525 0.17974,3.7991 0.69124,1.05495 1.0375,2.84445 0.79542,4.11079 -0.25837,1.35154 -0.059,2.24256 0.50178,2.24256 1.26509,0 1.18159,2.93967 -0.11118,3.91567 -0.57292,0.43253 -1.69792,0.63845 -2.5,0.4576 z m -0.625,-29.42245 c 0,-0.43128 -0.375,-0.78415 -0.83333,-0.78415 -0.45833,0 -0.83332999,0.58463 -0.83332999,1.29918 0,0.71455 0.37499999,1.06742 0.83332999,0.78415 0.45833,-0.28326 0.83333,-0.8679 0.83333,-1.29918 z M -402.25423,669.83517 c -0.27513,-1.09618 -0.38538,-2.68993 -0.24501,-3.54167 0.14037,-0.85174 -0.0348,-2.011 -0.38941,-2.57612 -0.35454,-0.56511 -0.38788,-2.39603 -0.0741,-4.06869 0.45181,-2.4084 0.72894,-2.75814 1.33183,-1.68084 0.88535,1.58204 3.17848,1.83343 3.17848,0.34845 0,-0.67103 0.43742,-0.57448 1.29851,0.28662 1.33556,1.33555 0.92968,5.72529 -0.52936,5.72529 -0.39427,0 -0.5128,0.65625 -0.26341,1.45833 0.42318,1.36103 0.39216,1.36334 -0.46486,0.0346 -0.50507,-0.78304 -1.47088,-1.21167 -2.14626,-0.9525 -1.40754,0.54012 -1.69708,2.90019 -0.31707,2.58456 0.50098,-0.11458 1.34473,0.45859 1.875,1.27373 0.76132,1.17031 0.70119,1.64966 -0.28589,2.2789 -1.89846,1.21023 -2.4228,1.00346 -2.96846,-1.17067 z m -242.86488,0.32637 -2.08333,-0.6672 2.29167,-0.0831 c 1.26041,-0.0457 2.29166,0.29195 2.29166,0.75028 0,0.45833 -0.0937,0.79595 -0.20833,0.75027 -0.11458,-0.0457 -1.14583,-0.38331 -2.29167,-0.75027 z M 9.8808857,669.69569 c 0,-0.71455 0.3811003,-1.06363 0.8469003,-0.77575 0.4659,0.28788 0.6312,0.87252 0.3675,1.29918 -0.7143,1.15587 -1.2144003,0.94035 -1.2144003,-0.52343 z M -638.86911,669.32821 c -1.5903,-0.68338 -1.58075,-0.71888 0.20834,-0.77476 1.03125,-0.0322 1.875,0.31642 1.875,0.77476 0,0.45833 -0.0937,0.80697 -0.20834,0.77476 -0.11458,-0.0322 -0.95833,-0.38085 -1.875,-0.77476 z m 3.59375,-0.56926 c 0.60156,-0.24073 1.32031,-0.21113 1.59723,0.0657 0.27691,0.27691 -0.21529,0.47387 -1.09375,0.43768 -0.97079,-0.04 -1.16825,-0.23745 -0.50348,-0.50346 z m -32.50191,-7.34741 c 0.40315,-3.45323 1.79927,-3.91653 1.8834,-0.625 0.0495,1.9358 0.15714,2.03978 0.69333,0.66963 0.61073,-1.56064 0.6524,-1.55458 1.10079,0.16008 0.56236,2.15047 0.0984,2.71196 -2.24091,2.71196 -1.54029,0 -1.73174,-0.38869 -1.43661,-2.91667 z m 272.65817,-1.25 c 0,-0.45833 0.5625,-0.83333 1.25,-0.83333 0.6875,0 1.25,0.375 1.25,0.83333 0,0.45833 -0.5625,0.83333 -1.25,0.83333 -0.6875,0 -1.25,-0.375 -1.25,-0.83333 z m -277.83084,-4.86111 c -0.23605,-0.38195 0.10032,-0.69445 0.7475,-0.69445 0.64718,0 0.98355,0.3125 0.74749,0.69445 -0.23605,0.38194 -0.57242,0.69444 -0.74749,0.69444 -0.17507,0 -0.51144,-0.3125 -0.7475,-0.69444 z m -7.45424,-2.17978 c -0.30971,-0.8071 -0.0629,-1.05389 0.74418,-0.74418 0.66416,0.25486 1.20756,0.79826 1.20756,1.20756 0,1.19802 -1.44593,0.85473 -1.95174,-0.46338 z m 3.1118,-1.10392 c 0.2617,-1.37387 0.004,-1.83208 -0.93811,-1.66666 -0.71448,0.12548 -1.45011,-0.20209 -1.63474,-0.72792 -0.20183,-0.5748 0.51117,-0.90712 1.78796,-0.83333 2.25655,0.1304 2.48601,0.78265 1.21582,3.45605 -0.73326,1.54332 -0.76516,1.52644 -0.43093,-0.22814 z m 5.50661,-2.73771 c 0,-0.48538 0.375,-0.65075 0.83333,-0.36748 0.45833,0.28327 0.83333,0.6804 0.83333,0.88252 0,0.20211 -0.375,0.36748 -0.83333,0.36748 -0.45833,0 -0.83333,-0.39713 -0.83333,-0.88252 z m 268.86624,-2.19569 c -0.99597,-0.99596 -0.53809,-2.75512 0.7171,-2.75512 0.6875,0 1.25,0.54036 1.25,1.20081 0,1.39221 -1.1894,2.33201 -1.9671,1.55431 z m 6.9671,-18.09359 0,-14.50513 4.24444,-0.58377 c 2.95042,-0.40578 4.5383,-0.27083 5.20833,0.44264 0.60621,0.64551 0.65465,1.14738 0.13056,1.35244 -4.99279,1.95346 -2.85508,3.69773 3.18175,2.59615 2.37504,-0.43338 5.77583,-0.59384 7.55733,-0.35658 1.78149,0.23727 4.13812,0.0896 5.23696,-0.32821 2.5978,-0.98768 14.44063,-1.6058 14.44063,-0.75371 0,0.36025 -3.84375,3.23947 -8.54167,6.39825 -4.69792,3.1588 -13.28667,9.00571 -19.08613,12.99315 -5.79946,3.98745 -10.95571,7.2499 -11.45834,7.2499 -0.62793,0 -0.91386,-4.53843 -0.91386,-14.50513 z m -331.16418,8.53291 c 0.23606,-0.38194 0.78206,-0.69444 1.21335,-0.69444 0.43128,0 0.78415,0.3125 0.78415,0.69444 0,0.38195 -0.546,0.69445 -1.21334,0.69445 -0.66734,0 -1.02021,-0.3125 -0.78416,-0.69445 z m 32.41417,-0.69444 c -0.28327,-0.45834 0.0696,-0.83334 0.78415,-0.83334 0.71455,0 1.29918,0.375 1.29918,0.83334 0,0.45833 -0.35287,0.83333 -0.78415,0.83333 -0.43129,0 -1.01592,-0.375 -1.29918,-0.83333 z m -15.97836,-6.18056 c 0.33668,-0.95602 3.03131,-0.7747 4.13113,0.27798 0.35903,0.34364 -0.49513,0.6248 -1.89814,0.6248 -1.47153,0 -2.4164,-0.382 -2.23299,-0.90278 z m 308.59184,-1.74089 c -0.26281,-0.68487 -0.13673,-1.24522 0.28017,-1.24522 1.12962,0 1.83109,1.48092 0.95727,2.02097 -0.41778,0.2582 -0.97463,-0.0909 -1.23744,-0.77575 z m 406.5532057,0.59918 c -3.38934,-0.55155 -6.20859,-2.06777 -6.69511,-3.60069 -0.64579,-2.03468 0.3219,-5.05018 2.02471001,-6.30941 1.02382,-0.75712 1.10829,-1.22093 0.36051,-1.97974 -1.09151,-1.10765 -0.64541,-2.97649 1.23237999,-5.16289 1.13595,-1.32265 1.09186,-1.45834 -0.47388999,-1.45834 -2.24271001,0 -2.58435001,-1.22116 -1.6278,-5.81868 1.12281,-5.39678 1.10824,-34.36436 -0.0207,-41.26465 -0.52495001,-3.20833 -1.36516001,-10.14584 -1.86715001,-15.41667 -0.96462,-10.12847 -1.65025,-13.74838 -3.42501,-18.08325 -0.95226,-2.3259 -0.91039,-2.86697 0.32773,-4.23509 1.03269,-1.14111 1.64318,-4.16114 2.24045,-11.08342 0.45153,-5.2332 0.80948,-10.79544 0.79544,-12.36054 -0.0303,-3.37896 1.02495,-4.20785 5.37879,-4.22494 l 3.25024,-0.0127 -0.55983,9.375 c -0.30792,5.15625 -0.92606,12.5625 -1.37363,16.45833 -0.81546,7.09805 -0.73743,12.72459 0.45651,32.91667 0.44804,7.57735 0.97421,11.03091 1.75065,11.4907 0.7967,0.47175 1.0004,2.0012 0.7216,5.41667 -0.8748,10.71783 -1.0918,30.88729 -0.4001,37.19291 0.4063,3.70318 0.4759,9.36532 0.1548,12.58253 -0.5222,5.23143 -0.76,5.82083 -2.25052,5.57826 z M -401.35296,616.33613 c -0.88299,-2.31208 -1.28106,-4.92812 -1.00694,-6.61736 0.2683,-1.65333 0.0855,-2.91625 -0.44777,-3.09401 -0.8305,-0.27683 -1.33285,-95.33991 -0.7872,-148.96492 0.16408,-16.1248 0.87635,-21.73371 2.2916,-18.04564 0.31468,0.82005 0.17567,1.88747 -0.3089,2.37204 -0.61916,0.61916 -0.53924,1.65522 0.26891,3.48565 0.90343,2.04622 1.36967,14.48512 2.17479,58.02128 1.00675,54.43819 1.1122,64.16404 0.84942,78.33334 -0.14188,7.65032 0.45428,30.8681 0.82525,32.13941 0.40012,1.37122 -0.89077,6.19392 -1.65792,6.19392 -0.40752,0 -1.39808,-1.72067 -2.20124,-3.82371 z m -157.09948,-0.67047 c 0,-0.79052 2.49449,-1.18893 2.93916,-0.46943 0.2709,0.43832 -0.27959,0.79694 -1.22331,0.79694 -0.94371,0 -1.71585,-0.14738 -1.71585,-0.32751 z m 21.68061,-2.54692 c -0.83948,-2.54365 -0.78309,-3.3494 0.35609,-5.08801 1.02408,-1.56294 1.70157,-1.88533 2.78342,-1.32451 0.78643,0.40768 2.27363,0.60388 3.30488,0.43599 1.03125,-0.16789 1.875,0.0674 1.875,0.52285 0,0.45546 -0.7775,0.82811 -1.72776,0.82811 -2.30917,0 -1.8225,2.63369 0.69096,3.73928 2.48047,1.09107 2.35898,1.7789 -0.42153,2.3865 -1.26042,0.27542 -3.09536,0.73056 -4.07765,1.01141 -1.49189,0.42655 -1.95022,0.013 -2.78341,-2.51162 z m 21.02565,0.99943 c 1.40453,-2.11887 2.99794,-2.64068 4.70684,-1.54139 2.11449,1.36018 0.36592,3.41639 -2.90525,3.41639 -2.96993,0 -3.01404,-0.0459 -1.80159,-1.875 z m -61.31542,0.50653 c -0.0775,-0.0652 -3.51046,-0.37724 -7.6289,-0.6935 -7.59742,-0.58342 -12.67526,-2.02909 -7.30361,-2.07935 1.68084,-0.0158 2.70834,-0.44446 2.70834,-1.13009 0,-0.6076 0.87411,-1.92592 1.94247,-2.92959 l 1.94248,-1.82486 1.56606,1.73047 c 1.33937,1.48 1.38991,1.84188 0.34919,2.50018 -0.66928,0.42333 -1.49812,0.77544 -1.84187,0.78245 -0.34375,0.007 -0.625,0.35095 -0.625,0.76427 0,0.96486 9.34852,2.06758 11.56483,1.36415 0.92579,-0.29383 1.9042,-1.23042 2.17426,-2.0813 0.71348,-2.24795 2.23273,-2.54495 6.7917,-1.32774 4.19979,1.12131 3.90282,1.60687 -1.53454,2.5091 -2.30195,0.38197 -2.96414,0.83264 -2.60367,1.77201 0.39665,1.03366 -0.2205,1.21511 -3.43875,1.01101 -2.15718,-0.1368 -3.98553,-0.30205 -4.06299,-0.36721 z m 68.60916,-0.34738 c 0,-0.48538 0.375,-0.65075 0.83334,-0.36748 0.45833,0.28327 0.83333,0.6804 0.83333,0.88252 0,0.20211 -0.375,0.36748 -0.83333,0.36748 -0.45834,0 -0.83334,-0.39713 -0.83334,-0.88252 z m 132.60631,-1.40915 c 1.80921,-2.30693 2.61561,-2.64821 4.2238,-1.78753 2.81919,1.50878 1.78517,3.24587 -1.93214,3.24587 -3.15192,0 -3.341,-0.12033 -2.29166,-1.45834 z m -172.85153,0.10199 c -0.28766,-0.28765 -2.13437,-0.49065 -4.10381,-0.45112 -1.96944,0.0395 -4.14034,-0.29011 -4.82422,-0.73253 -0.86181,-0.55752 0.36376,-0.76415 3.99336,-0.67328 2.88022,0.0721 5.44902,0.47456 5.70844,0.89431 0.5731,0.92729 -0.0428,1.69357 -0.77377,0.96262 z m -12.25478,-2.02617 c 0,-0.48538 0.375,-0.65075 0.83334,-0.36748 0.45833,0.28326 0.83333,0.6804 0.83333,0.88251 0,0.20212 -0.375,0.36749 -0.83333,0.36749 -0.45834,0 -0.83334,-0.39714 -0.83334,-0.88252 z m 63.1158,-0.83503 c -5.62246,-0.93836 -4.4917,-1.74045 2.17905,-1.54568 7.72711,0.22563 10.53849,0.68333 10.53849,1.71568 0,0.80462 -7.47673,0.70468 -12.71754,-0.17 z m 15.21754,0.28101 c 0,-0.38983 0.65966,-0.75848 1.46593,-0.81921 0.80626,-0.0607 1.89376,-0.23429 2.41667,-0.38568 0.5229,-0.15138 1.08198,0.0998 1.2424,0.55809 0.16041,0.45834 -0.92709,0.95084 -2.41667,1.09447 -1.48958,0.14362 -2.70833,-0.0578 -2.70833,-0.44767 z m -118.13018,-1.2718 c 0.18812,-0.57291 1.41676,-1.16731 2.7303,-1.32087 2.09732,-0.24519 2.25472,-0.1183 1.29202,1.04166 -1.30223,1.5691 -4.5192,1.7924 -4.02232,0.27921 z m 91.16308,0.46346 c -0.93849,-0.93849 -0.57158,-1.92179 0.7171,-1.92179 0.6875,0 1.25,0.35287 1.25,0.78415 0,1.05082 -1.30133,1.80342 -1.9671,1.13764 z m -133.03291,-0.80361 c -0.6875,-0.22929 -1.78145,-0.58698 -2.43101,-0.79486 -0.86696,-0.27745 -0.93449,-0.62449 -0.25393,-1.30504 0.96666,-0.96666 8.06628,0.44785 9.72661,1.93791 0.83767,0.75177 -4.87903,0.88328 -7.04167,0.16199 z m 122.80412,-0.46696 c -0.22136,-0.35817 0.34753,-0.65122 1.26419,-0.65122 0.91667,0 1.8844,0.35231 2.15053,0.7829 0.26612,0.43059 -0.30277,0.72364 -1.26419,0.65122 -0.96143,-0.0724 -1.92917,-0.42473 -2.15053,-0.7829 z m -4.24659,-0.39538 c 0.81081,-0.21128 1.93581,-0.19739 2.5,0.0309 0.56419,0.22827 -0.0992,0.40114 -1.47419,0.38416 -1.375,-0.017 -1.83662,-0.20375 -1.02581,-0.41504 z m -45.84919,-1.63897 c -0.57292,-0.23234 -1.04167,-0.98347 -1.04167,-1.6692 0,-0.9108 0.61753,-1.12866 2.29167,-0.80849 1.26042,0.24105 3.88701,0.67908 5.83687,0.97339 1.94987,0.29432 3.38449,0.79517 3.18805,1.11301 -0.42258,0.68376 -8.76986,1.00164 -10.27492,0.39129 z m 22.91667,-0.002 c 0.57291,-0.23117 1.51041,-0.23117 2.08333,0 0.57292,0.23118 0.10417,0.42033 -1.04167,0.42033 -1.14583,0 -1.61458,-0.18915 -1.04166,-0.42033 z m -115.10784,-2.38005 c -4.44528,-1.22076 -6.18203,-2.39172 -4.80743,-3.24127 1.3553,-0.83762 10.95693,2.13619 10.95693,3.39357 0,1.33151 -0.82034,1.3112 -6.1495,-0.1523 z m 39.06617,-1.32534 c -11.80543,-1.09221 -20.84512,-2.35454 -23.50744,-3.28263 -1.99593,-0.69578 -2.46236,-1.34845 -2.52383,-3.5316 -0.15662,-5.56216 -0.87941,-9.14027 -1.98824,-9.84261 -3.36052,-2.12857 -7.77187,0.42077 -5.19209,3.00055 1.35014,1.35013 1.34785,1.47483 -0.0413,2.25226 -1.06671,0.59696 -1.32508,1.40282 -0.94074,2.93415 0.47461,1.891 0.32984,2.05574 -1.38823,1.57972 -3.55306,-0.98444 -11.32482,-1.57716 -13.50496,-1.02998 -1.33433,0.33489 -2.16315,1.12223 -2.16315,2.05488 0,1.38165 -0.78812,1.49336 -9.14436,1.29613 -5.02939,-0.11871 -10.42666,-0.67953 -11.99391,-1.24625 -2.53395,-0.91628 -3.19837,-0.8246 -5.99902,0.82782 -2.72444,1.60746 -4.17036,1.83151 -10.71442,1.66026 -4.16072,-0.10887 -9.3462,-0.22526 -11.52329,-0.25863 l -3.95833,-0.0607 0,-17.45713 c 0,-15.26903 0.14804,-17.25468 1.1811,-15.84188 0.84676,1.15801 0.93109,1.91647 0.29791,2.6794 -0.48575,0.5853 -0.62185,1.3255 -0.30245,1.6449 0.3194,0.3194 0.9296,0.0291 1.35599,-0.64514 0.67722,-1.07084 0.77688,-1.0668 0.78802,0.032 0.007,0.69184 0.71625,1.69722 1.57608,2.23419 1.22792,0.76685 1.93131,0.71855 3.27863,-0.22515 0.97275,-0.68134 1.9222,-0.8667 2.19323,-0.42816 0.29022,0.46958 1.70268,0.42953 3.59637,-0.10198 1.71515,-0.4814 4.80595,-0.97917 6.86845,-1.10617 2.0625,-0.12699 3.75,-0.30304 3.75,-0.39122 0,-0.0882 2.74377,-0.23395 6.09726,-0.32395 4.02245,-0.10796 6.33021,-0.54056 6.78183,-1.2713 0.40961,-0.66275 1.12267,-0.8369 1.77526,-0.43357 0.59988,0.37074 2.98556,0.5687 5.30151,0.4399 2.31594,-0.1288 5.89831,-0.32358 7.96081,-0.43284 2.0625,-0.10926 4.3125,-0.44299 5,-0.74164 0.6875,-0.29864 2.9375,-0.64953 5,-0.77976 2.0625,-0.13021 4.125,-0.46622 4.58334,-0.74667 0.45833,-0.28045 3.2614,-0.78669 6.22905,-1.12497 2.96765,-0.33828 6.22818,-1.16051 7.24562,-1.82716 1.01745,-0.66666 2.71437,-1.10036 3.77095,-0.96381 1.05658,0.13656 2.44512,-0.0777 3.08565,-0.47615 0.64053,-0.39845 2.51553,-0.80705 4.16667,-0.90801 1.65113,-0.10096 4.50206,-0.8522 6.33539,-1.66944 1.83333,-0.81722 3.80208,-1.41186 4.375,-1.32141 0.57292,0.0905 1.04167,-0.57975 1.04167,-1.48932 0,-1.52896 0.16965,-1.56577 2.24776,-0.48763 1.23627,0.64139 2.64252,0.87925 3.125,0.5286 0.48248,-0.35066 2.00224,-0.58105 3.37724,-0.51196 1.375,0.0691 3.13349,-0.19204 3.90776,-0.58027 0.88125,-0.44187 1.63008,-0.34614 2.0022,0.25597 0.42696,0.69083 0.85209,0.61016 1.5089,-0.28635 1.48376,-2.02523 6.27111,-4.13568 8.07945,-3.56174 0.91575,0.29065 2.11575,0.16578 2.66668,-0.2775 0.55092,-0.44328 2.79212,-1.18076 4.98046,-1.63885 3.52172,-0.73722 4.10661,-0.6504 5.09153,0.75577 0.65851,0.94015 1.6444,1.38466 2.41512,1.08891 0.75871,-0.29114 2.07189,0.26976 3.14581,1.34367 1.58849,1.5885 1.94247,1.66646 2.55957,0.56378 0.43778,-0.78228 1.68974,-1.21226 3.22099,-1.10625 1.92425,0.13322 2.50486,-0.17568 2.50486,-1.33267 0,-0.82835 0.375,-1.50609 0.83333,-1.50609 0.45834,0 0.83334,0.29363 0.83334,0.65252 0,1.41293 4.48329,0.40943 5.0904,-1.13939 0.58092,-1.482 0.62999,-1.48753 0.68436,-0.077 0.0685,1.77617 2.62329,1.62273 3.22822,-0.19389 0.26891,-0.80753 -0.0349,-1.01096 -0.97261,-0.65115 -0.75004,0.28779 -1.3637,0.24951 -1.3637,-0.0851 0,-0.33459 4.17617,-2.17343 9.28039,-4.08632 8.16356,-3.05941 9.42776,-3.33059 10.50495,-2.25339 0.94108,0.94108 1.4935,1.00137 2.38628,0.26043 1.81494,-1.50627 1.47028,0.80935 -0.63109,4.23994 -4.21787,6.88587 -10.04158,17.62452 -9.7077,17.90051 0.13777,0.11389 1.12544,0.66275 2.19482,1.2197 1.6006,0.83361 2.20148,0.77991 3.39895,-0.30379 1.55089,-1.40353 5.0734,-1.80762 5.0734,-0.582 0,0.40394 -1.40625,1.79635 -3.125,3.09425 -1.71875,1.2979 -4.625,3.73847 -6.45834,5.4235 -7.81202,7.18009 -11.12567,9.21698 -10.93809,6.7236 0.0794,-1.05575 -0.60047,-1.39244 -2.81191,-1.39244 -2.77087,0 -2.9041,0.13159 -2.66518,2.63249 0.26765,2.80172 -0.82753,4.03418 -3.58482,4.03418 -1.27107,0 -1.72862,0.64257 -1.92772,2.70722 -0.16952,1.75807 -0.89995,3.0476 -2.08333,3.67804 -3.50662,1.86812 -7.36527,5.30167 -8.61714,7.66781 l -1.2626,2.38642 -8.47873,-0.57792 c -8.04415,-0.54828 -8.69814,-0.46771 -12.75897,1.57193 -2.35412,1.18241 -5.16326,2.09797 -6.24253,2.0346 -1.07927,-0.0634 -5.33731,-0.42748 -9.46231,-0.80912 z m -55.41667,-31.57565 c 0,-0.45833 -0.16537,-0.83333 -0.36749,-0.83333 -0.20212,0 -0.59925,0.375 -0.88251,0.83333 -0.28327,0.45834 -0.1179,0.83334 0.36748,0.83334 0.48539,0 0.88252,-0.375 0.88252,-0.83334 z m 25.83333,-3.33333 c 0,-0.45833 -0.16537,-0.83333 -0.36748,-0.83333 -0.20212,0 -0.59925,0.375 -0.88252,0.83333 -0.28326,0.45833 -0.11789,0.83333 0.36749,0.83333 0.48538,0 0.88251,-0.375 0.88251,-0.83333 z m 13.23177,-1.58626 c 0.63163,-0.40007 0.8795,-1.16254 0.55081,-1.69437 -0.45283,-0.73268 -0.88252,-0.73053 -1.77344,0.009 -2.19686,1.82323 -1.18884,3.2129 1.22263,1.6855 z m 3.85157,-0.91374 c 0.28326,-0.45833 -0.0696,-0.83333 -0.78415,-0.83333 -0.71455,0 -1.29919,0.375 -1.29919,0.83333 0,0.45833 0.35287,0.83333 0.78415,0.83333 0.43129,0 1.01592,-0.375 1.29919,-0.83333 z m 2.91666,-0.93169 c 0,-0.45834 -0.375,-0.60158 -0.83333,-0.31831 -0.45833,0.28327 -0.83333,0.89002 -0.83333,1.34836 0,0.45833 0.375,0.60157 0.83333,0.31831 0.45833,-0.28327 0.83333,-0.89003 0.83333,-1.34836 z m 6.45834,-0.52262 c 1.03125,-0.22366 1.875,-0.76773 1.875,-1.20905 0,-0.73293 -4.47623,-0.19415 -6.04167,0.7272 -1.31314,0.77287 -0.57923,2.09523 0.83333,1.50148 0.80209,-0.33714 2.30209,-0.79597 3.33334,-1.01963 z m 68.125,-16.87903 c 0.28327,-0.45833 0.1179,-0.83333 -0.36748,-0.83333 -0.48539,0 -0.88252,0.375 -0.88252,0.83333 0,0.45834 0.16537,0.83334 0.36748,0.83334 0.20212,0 0.59925,-0.375 0.88252,-0.83334 z m 5.41667,-0.83333 c 0,-0.45833 -0.39714,-0.83333 -0.88252,-0.83333 -0.48538,0 -0.65075,0.375 -0.36748,0.83333 0.28326,0.45833 0.6804,0.83333 0.88251,0.83333 0.20212,0 0.36749,-0.375 0.36749,-0.83333 z m 24.05735,54.01944 c -0.0601,-1.98152 -0.2214,-5.94652 -0.35841,-8.8111 -0.13702,-2.86459 0.063,-5.20834 0.44445,-5.20834 0.94521,0 2.52327,4.72488 2.52327,7.55491 0,1.26841 0.38774,2.43545 0.86164,2.59342 1.43345,0.47781 -0.29203,6.88273 -1.93969,7.20004 -1.15083,0.22162 -1.44279,-0.41308 -1.53126,-3.32893 z m 1.90755,-17.35277 c 0,-1.14583 0.18915,-1.61458 0.42033,-1.04167 0.23117,0.57292 0.23117,1.51042 0,2.08334 -0.23118,0.57291 -0.42033,0.10416 -0.42033,-1.04167 z m -2.1261,-8.54167 c -0.9727,-1.52035 -1.2067,-6.56431 -1.2371,-26.66667 -0.0335,-22.12344 0.37629,-27.42462 1.82742,-23.64302 0.24243,0.63175 0.66409,9.163 0.93703,18.95833 0.27293,9.79534 0.69983,21.27845 0.94866,25.51803 0.46954,8.00022 -0.15231,9.46527 -2.47601,5.83333 z m -197.17214,-8.90915 c 0,-0.43128 0.375,-1.01591 0.83333,-1.29918 0.45833,-0.28327 0.83333,0.0696 0.83333,0.78415 0,0.71455 -0.375,1.29918 -0.83333,1.29918 -0.45833,0 -0.83333,-0.35286 -0.83333,-0.78415 z m 142.65973,-20.11218 c 0.16423,-0.49271 0.65485,-0.89584 1.09027,-0.89584 0.43542,0 0.92604,0.40313 1.09028,0.89584 0.16424,0.49271 -0.32639,0.89583 -1.09028,0.89583 -0.76389,0 -1.25452,-0.40312 -1.09027,-0.89583 z m 53.17361,-25.35417 c 0,-1.14583 0.375,-2.08333 0.83333,-2.08333 0.45833,0 0.83333,0.9375 0.83333,2.08333 0,1.14583 -0.375,2.08333 -0.83333,2.08333 -0.45833,0 -0.83333,-0.9375 -0.83333,-2.08333 z m 0.0658,-13.40277 c 0.04,-0.9708 0.23745,-1.16825 0.50346,-0.50348 0.24073,0.60156 0.21113,1.32032 -0.0657,1.59723 -0.27691,0.2769 -0.47386,-0.21529 -0.43768,-1.09375 z m -0.83334,-4.16667 c 0.04,-0.97079 0.23745,-1.16825 0.50347,-0.50348 0.24072,0.60156 0.21112,1.32032 -0.0657,1.59723 -0.27692,0.27691 -0.47387,-0.21528 -0.43768,-1.09375 z M 49.689236,485.52374 c -0.1538,-0.15381 -4.5798,-0.33529 -9.8356,-0.40329 -13.7505,-0.17791 -16.9032,-1.13425 -11.0611,-3.35538 1.1456,-0.43558 2.2561,-1.45413 2.4678,-2.26342 0.4505,-1.72275 8.0217,-4.81418 13.7913,-5.63123 5.3103,-0.75198 6.8293,-2.019 6.8293,-5.69628 0,-1.65786 0.3358,-3.0143 0.7463,-3.0143 0.4105,0 1.8563,-0.79035 3.2129,-1.75631 2.0957,-1.49225 2.9446,-1.63495 5.6464,-0.94917 1.7489,0.44393 4.929,0.54169 7.0668,0.21725 2.1378,-0.32444 4.0373,-0.34669 4.221,-0.0494 0.1837,0.29725 0.789,4.64608 1.3451,9.66406 0.7103,6.40974 1.4065,9.44324 2.3405,10.19819 1.1704,0.94592 1.1804,1.16885 0.084,1.86223 -0.6853,0.43322 -1.8084,0.80468 -2.4959,0.82548 -14.2079,0.42975 -24.1369,0.57308 -24.3584,0.35161 z m 17.6917,-15.3639 c 0,-1.89717 -0.9844,-2.09045 -3.5778,-0.70247 -1.7608,0.94235 -1.7643,0.9788 -0.1536,1.6081 2.7555,1.07655 3.7314,0.83968 3.7314,-0.90563 z m 19.9065,14.81421 c -1.3075,-1.06446 -7.8799,-22.95191 -7.1202,-23.7116 0.503,-0.50302 4.7817,2.11071 6.146,3.75439 0.8048,0.96959 1.268,1.01418 2.2312,0.2148 0.9795,-0.81293 1.8849,-0.56587 4.6626,1.27229 3.2017,2.1188 3.4309,2.52274 3.2209,5.67684 l -0.2261,3.39573 3.7146,-0.2281 c 2.043004,-0.12545 7.028904,-1.1942 11.079804,-2.375 4.0508,-1.18079 8.6456,-2.1469 10.2106,-2.1469 1.565,0 3.0477,-0.32731 3.295,-0.72736 0.6117,-0.98979 5.4082,-2.21581 12.7198,-3.25129 7.0237,-0.99471 11.3512,-2.88512 10.6697,-4.66101 -0.2695,-0.70208 0.046,-1.19367 0.7658,-1.19367 0.6731,0 1.2238,0.5625 1.2238,1.25 0,2.2695 2.5695,1.29926 3.4806,-1.31426 0.7375,-2.11552 1.2297,-2.47999 2.8124,-2.08275 1.4275,0.35829 2.3635,-0.0843 3.6578,-1.72962 0.9566,-1.21613 2.0152,-1.93521 2.3526,-1.59795 0.5585,0.55847 1.203,12.52151 1.058,19.63906 -0.033,1.60297 0.3682,3.94706 0.891,5.20909 1.9075,4.60532 2.2027,4.56648 -34.4676,4.53701 -18.4442,-0.0148 -35.230504,0.23439 -37.303004,0.55379 -2.5843,0.39827 -4.1789,0.24636 -5.0753,-0.48349 z m -72.4065,-1.44206 c -1.986,-0.59625 -1.947,-0.64863 0.8334,-1.1212 1.6041,-0.27265 3.5729,-0.45315 4.375,-0.40112 1.7323,0.11239 1.9879,1.4835 0.2764,1.4835 -0.65,0 -1.6812,0.14947 -2.2916,0.33215 -0.6104,0.18268 -2.0473,0.0507 -3.1932,-0.29333 z m 157.083404,-0.87215 c -0.2833,-0.45834 0.069,-0.83334 0.7841,-0.83334 0.7145,0 1.2992,0.375 1.2992,0.83334 0,0.45833 -0.3528,0.83333 -0.7842,0.83333 -0.4312,0 -1.0159,-0.375 -1.2991,-0.83333 z m 15.5891,-0.35491 c -0.5258,-0.81422 -2.5479,-7.6608 -2.6357,-8.92425 -0.02,-0.29104 0.8608,-1.11728 1.9579,-1.83609 1.4761,-0.96722 2.6133,-1.11097 4.375,-0.55304 1.3092,0.41464 4.5359,1.36932 7.1704,2.1215 2.6346,0.75218 5.0005,1.70792 5.2576,2.12386 0.257,0.41594 1.289,0.77198 2.2932,0.79119 1.0042,0.0193 3.0643,0.69529 4.578,1.50239 l 2.7521,1.46747 -1.9188,0.98448 c -2.8613,1.468 -23.1073,3.44121 -23.8297,2.32249 z m -254.747414,-2.99202 c 0.28788,-0.46581 0.87251,-0.63118 1.29918,-0.36748 1.15587,0.71436 0.94034,1.21441 -0.52343,1.21441 -0.71455,0 -1.06364,-0.38112 -0.77575,-0.84693 z m 281.866614,0.29503 c 0.5729,-0.23118 1.5104,-0.23118 2.0833,0 0.5729,0.23117 0.1042,0.42032 -1.0416,0.42032 -1.1459,0 -1.6146,-0.18915 -1.0417,-0.42032 z m 4.8272,-0.22385 c -0.2636,-0.42667 -0.1608,-0.97267 0.2286,-1.21335 0.3894,-0.24067 0.7081,0.10841 0.7081,0.77575 0,1.40515 -0.2628,1.52791 -0.9367,0.4376 z m 15.7978,-8.39092 c 0.2832,-0.45833 0.6804,-0.83333 0.8825,-0.83333 0.2022,0 0.3675,0.375 0.3675,0.83333 0,0.45833 -0.3972,0.83333 -0.8825,0.83333 -0.4854,0 -0.6508,-0.375 -0.3675,-0.83333 z M 20.297636,469.35971 c -1.5813,-0.648 -1.5586,-0.72577 0.4425,-1.51808 1.16,-0.45931 4.0662,-1.77921 6.4581,-2.93313 2.392,-1.15391 7.0615,-2.55554 10.3768,-3.11473 3.3152,-0.55919 6.8751,-1.57193 7.9107,-2.25052 1.1371,-0.74499 2.7109,-1.02605 3.9725,-0.7094 2.6512,0.66541 2.726,2.15932 0.1081,2.15932 -1.0897,0 -2.4336,0.54494 -2.9863,1.21098 -0.5528,0.66605 -2.005,1.17361 -3.2271,1.12793 -3.295,-0.12318 -14.725,3.08571 -18.1143,5.08548 -1.6241,0.95825 -3.0253,1.71592 -3.1136,1.6837 -0.088,-0.0322 -0.9107,-0.36591 -1.8274,-0.74155 z m 157.164804,-2.65756 c -1.2004,-3.44361 -1.2114,-3.41221 0.9602,-2.74648 2.8735,0.88093 3.8273,1.94166 3.3584,3.73481 -0.6762,2.5859 -3.2803,1.98993 -4.3186,-0.98833 z m -58.4148,-3.25205 c 0,-0.36743 0.6562,-0.83956 1.4583,-1.04916 1.0974,-0.28679 0.9944,-0.40503 -0.4166,-0.47777 -1.0313,-0.0532 -1.875,-0.43155 -1.875,-0.84084 0,-1.02504 2.274,-1.82453 6.3692,-2.23922 2.6111,-0.26442 3.5765,-0.0267 3.961,0.97542 0.7178,1.87064 -0.1067,2.84131 -2.4136,2.84131 -1.0917,0 -2.1877,0.32812 -2.4356,0.72916 -0.5649,0.91395 -4.6477,0.96763 -4.6477,0.0611 z m 24.1667,-1.67278 c 0,-0.48538 0.375,-0.65075 0.8333,-0.36748 0.4583,0.28326 0.8333,0.6804 0.8333,0.88251 0,0.20212 -0.375,0.36749 -0.8333,0.36749 -0.4583,0 -0.8333,-0.39714 -0.8333,-0.88252 z m -10,-2.45082 c 0,-1.27451 0.5555,-1.66666 2.361,-1.66666 2.9025,0 3.7512,0.74314 2.5297,2.21499 -1.4938,1.7999 -4.8907,1.41905 -4.8907,-0.54833 z m 36.6666,-1.71585 c 0,-0.48538 0.375,-0.65075 0.8334,-0.36748 0.4583,0.28327 0.8333,0.6804 0.8333,0.88252 0,0.20211 -0.375,0.36748 -0.8333,0.36748 -0.4584,0 -0.8334,-0.39713 -0.8334,-0.88252 z m 4.1667,-0.36748 c -0.8497,-1.02376 -0.7927,-1.25 0.3147,-1.25 0.7435,0 1.352,0.5625 1.352,1.25 0,0.6875 -0.1416,1.25 -0.3147,1.25 -0.173,0 -0.7814,-0.5625 -1.352,-1.25 z M 57.380936,447.65984 c 0,-0.45834 0.3972,-0.83334 0.8825,-0.83334 0.4854,0 0.6508,0.375 0.3675,0.83334 -0.2832,0.45833 -0.6804,0.83333 -0.8825,0.83333 -0.2021,0 -0.3675,-0.375 -0.3675,-0.83333 z M -402.79213,431.19895 c -0.18725,-2.17568 -0.16192,-4.6857 0.0563,-5.57782 0.39311,-1.60717 0.40257,-1.60717 1.03151,0 0.8969,2.29191 0.89847,8.51643 0.003,9.0703 -0.41229,0.25481 -0.90283,-1.3168 -1.09008,-3.49248 z M 320.95299,133.70976 c 2.6522,-0.16587 6.7772,-0.16433 9.1667,0.003 2.3895,0.16776 0.2196,0.30347 -4.8221,0.30159 -5.0417,-0.002 -6.9968,-0.13913 -4.3446,-0.30501 z"
       id="path4223"
       inkscape:connector-curvature="0" />
  </g>
</svg>
