<?xml version="1.0" encoding="UTF-8" standalone="no"?>
<!-- Created with Inkscape (http://www.inkscape.org/) -->

<svg
   xmlns:dc="http://purl.org/dc/elements/1.1/"
   xmlns:cc="http://creativecommons.org/ns#"
   xmlns:rdf="http://www.w3.org/1999/02/22-rdf-syntax-ns#"
   xmlns:svg="http://www.w3.org/2000/svg"
   xmlns="http://www.w3.org/2000/svg"
   xmlns:sodipodi="http://sodipodi.sourceforge.net/DTD/sodipodi-0.dtd"
   xmlns:inkscape="http://www.inkscape.org/namespaces/inkscape"
   version="1.0"
   width="312.37006"
   height="431.69586"
   id="svg1923"
   sodipodi:version="0.32"
   inkscape:version="0.91 r13725"
   sodipodi:docname="Sestieri_di_Venezia-Giudecca.svg"
   inkscape:output_extension="org.inkscape.output.svg.inkscape">
  <metadata
     id="metadata23">
    <rdf:RDF>
      <cc:Work
         rdf:about="">
        <dc:format>image/svg+xml</dc:format>
        <dc:type
           rdf:resource="http://purl.org/dc/dcmitype/StillImage" />
        <dc:title />
      </cc:Work>
      <cc:Work
         rdf:about="">
        <dc:format>image/svg+xml</dc:format>
        <dc:type
           rdf:resource="http://purl.org/dc/dcmitype/StillImage" />
      </cc:Work>
    </rdf:RDF>
  </metadata>
  <sodipodi:namedview
     inkscape:window-height="867"
     inkscape:window-width="1407"
     inkscape:pageshadow="2"
     inkscape:pageopacity="0.0"
     guidetolerance="10.0"
     gridtolerance="10.0"
     objecttolerance="10.0"
     borderopacity="1.0"
     bordercolor="#666666"
     pagecolor="#ffffff"
     id="base"
     showgrid="false"
     inkscape:zoom="0.91883117"
     inkscape:cx="105.78858"
     inkscape:cy="132.21181"
     inkscape:window-x="-4"
     inkscape:window-y="0"
     inkscape:current-layer="layer2"
     inkscape:snap-bbox="true"
     inkscape:bbox-paths="true"
     inkscape:bbox-nodes="true"
     inkscape:snap-bbox-edge-midpoints="true"
     inkscape:snap-bbox-midpoints="true"
     inkscape:object-paths="true"
     inkscape:snap-intersection-paths="true"
     inkscape:object-nodes="true"
     inkscape:snap-smooth-nodes="true"
     inkscape:snap-midpoints="true"
     inkscape:snap-object-midpoints="true"
     inkscape:snap-center="true"
     inkscape:snap-text-baseline="true"
     inkscape:snap-page="true"
     inkscape:snap-grids="false"
     inkscape:snap-to-guides="false"
     fit-margin-top="0"
     fit-margin-left="0"
     fit-margin-right="0"
     fit-margin-bottom="0"
     inkscape:window-maximized="0" />
  <defs
     id="defs1926">
    <inkscape:perspective
       sodipodi:type="inkscape:persp3d"
       inkscape:vp_x="0 : 136.5 : 1"
       inkscape:vp_y="0 : 1000 : 0"
       inkscape:vp_z="462 : 136.5 : 1"
       inkscape:persp3d-origin="231 : 91 : 1"
       id="perspective25" />
  </defs>
  <path
     style="opacity:1;fill:#ff0000;fill-opacity:1;stroke:#000000;stroke-width:0.84926468;stroke-opacity:1"
     d=""
     id="path2410"
     inkscape:connector-curvature="0" />
  <path
     style="opacity:1;fill:#800080;fill-opacity:1;stroke:#000000;stroke-width:0.84926468;stroke-opacity:1"
     d=""
     id="path2414"
     inkscape:connector-curvature="0" />
  <path
     style="opacity:1;fill:#0000ff;fill-opacity:1;stroke:#000000;stroke-width:0.84926468;stroke-opacity:1"
     d=""
     id="path2418"
     inkscape:connector-curvature="0" />
  <path
     style="opacity:1;fill:#0000ff;fill-opacity:1;stroke:#000000;stroke-width:0.84926468;stroke-opacity:1"
     d=""
     id="path2420"
     inkscape:connector-curvature="0" />
  <g
     inkscape:groupmode="layer"
     id="layer2"
     inkscape:label="Layer 2"
     transform="translate(107.84787,-11.310413)"
     style="display:inline">
    <path
       style="fill:#000000;fill-rule:evenodd;stroke:#00fa00;stroke-width:1px;stroke-linecap:round;stroke-linejoin:round;stroke-opacity:1"
       d="m 57.988543,12.145322 c 7.274443,-2.1763989 3.395233,6.708801 4.28823,10.861507 L 61.77774,94.463477 c 4.396227,8.503623 15.942627,24.113123 24.21749,11.962443 l 18.13697,-15.006386 63.357,10.769686 -1.66445,16.82943 -55.97273,-8.74736 c -3.72276,6.82497 5.59092,4.98632 9.70741,6.60181 l 45.46731,8.80209 c -1.38194,4.30074 -0.78756,11.28655 -3.32613,14.01625 L 75.415626,128.71212 c -2.640134,-4.23174 0.196291,-20.00754 -6.648446,-15.61002 -6.618183,11.98738 7.46734,27.90871 3.235034,35.86478 -13.549549,-1.04937 -27.28622,-1.59516 -39.246427,6.09929 -16.067007,4.49391 -21.96638,21.87692 -25.4280083,36.52306 -1.839076,12.10844 -5.200461,27.56839 3.3767373,37.77785 15.851044,5.41207 30.98587,-6.12462 44.95642,-12.13007 12.6408,-11.99407 33.287477,-0.69604 27.750203,16.68759 -4.940989,14.84447 -16.751374,26.52007 -31.096804,32.43889 -14.580433,7.67655 -31.67624,12.17639 -41.395875,26.67857 -10.71610232,10.06115 -13.0877433,23.59806 -13.0022433,37.58335 -0.529233,12.29413 -3.278953,24.61052 -4.182033,36.67916 l 5.55787598,24.55285 C -11.821246,400.45318 -23.775836,382.57759 -31.333316,375.33363 c -8.24362,-10.67339 -14.87388,-29.69169 -32.18578,-25.15 -0.0612,-16.48923 16.10146,-26.12304 29.38487,-14.67142 l 7.07283,-14.13334 -24.79696,-7.3695 -15.52046,32.83235 c -12.998248,2.36614 -25.151799,59.21586 -34.565134,1.20587 -15.56971,-13.97865 6.155204,-24.71549 19.212254,-23.98829 12.98339,-0.62961 26.06817,-8.01697 29.89748,-21.06097 7.03346,-15.39293 17.90194,-29.65289 15.69229,-47.46645 0.83225,-20.28368 0.44294,-40.61504 2.03309,-60.86649 4.1213,-0.83028 13.04962,3.5394 11.25175,-3.69459 0.16922,-5.16629 2.17782,-12.07353 -5.49891,-9.80937 -12.73623,3.09942 -4.25723,-13.11945 -4.26781,-20.16771 2.86194,-13.56971 7.70182,-26.61792 12.9504,-39.42117 15.4589697,-4.68681 28.9097247,-14.3845 40.073504,-25.870403 10.934686,1.975201 32.643832,10.400163 38.067289,-1.180754 z M -102.62571,215.41414 c 9.089334,0.48732 18.177914,0.97641 27.267384,1.46087 1.62408,0.52676 4.79065,-0.86208 5.02405,1.64509 0.80236,4.64737 0.66426,9.39548 0.76556,14.09452 0.33114,2.01647 -0.53908,4.83122 -3.09583,3.83509 -3.11537,-1.24137 -2.38038,2.82182 -2.28151,4.64612 0.0763,1.68458 0.287,3.3878 0.10536,5.0671 -7.094917,29.33546 -15.662374,38.94126 -27.866124,-0.17857 0.0188,-10.18992 -0.008,-20.38059 0.0811,-30.57022 z M 90.248615,65.346811 c 3.014999,-2.102402 6.02874,-4.204107 9.043757,-6.306482 14.301068,2.668091 28.619618,5.253825 42.894068,8.062171 l -0.91076,6.282483 c -0.3253,2.144409 -0.60452,4.298003 -1.01381,6.428363 -7.32444,-0.541485 -14.61752,-1.466785 -21.9289,-2.163185 -4.79706,-0.307965 -9.76178,-1.219444 -14.47337,0.0991 -3.27914,0.982729 -3.13291,4.877692 -4.726514,7.287933 -3.324115,5.083219 -7.510974,9.566492 -11.792474,13.852359 -2.847304,2.672477 -3.743667,-1.92671 -2.311109,-3.892182 2.342709,-9.766748 3.587216,-19.749729 5.219112,-29.65056 z M 22.641881,165.38058 c 5.918976,-5.86361 14.027495,-9.2513 21.868777,-11.84499 10.978292,-3.62717 22.457905,-0.17446 33.660579,-1.17268 3.118072,-6.25188 1.054353,-13.58554 -1.120794,-19.78612 28.456297,1.9919 56.531207,7.26311 84.570347,12.2823 l -2.30309,14.01331 c -16.16197,36.04264 -27.77601,48.5693 -38.73789,53.03502 -7.69364,38.90852 -14.40471,67.13626 -23.90379,53.36968 -13.990074,35.38915 -26.481253,26.88926 -35.888302,9.51326 -5.216721,0.98135 4.046574,-5.17063 5.196055,-7.51692 9.401262,-10.61236 19.782397,-21.92613 22.411042,-36.34767 1.773457,-10.1154 -5.799009,-18.4429 -13.236408,-24.15862 -14.351521,-0.94443 -26.312085,8.65313 -38.46499,14.81061 -7.544925,3.94771 -16.934883,8.65923 -25.290498,4.19583 C 7.3022167,219.63438 9.5416577,211.40626 9.9588757,204.45714 12.17086,190.97988 14.848522,176.87387 22.641881,165.38058 Z m -84.812367,188.7506 c 1.61355,-0.87549 3.41187,-1.55551 5.27457,-1.47589 1.95393,-0.0291 3.69233,1.36175 5.65535,1.00849 l 1.04979,-1.67197 -0.2554,2.35978 c 1.99811,1.66377 3.97973,3.35323 5.79724,5.21585 2.78701,2.85098 5.37107,6.37713 5.54647,10.50935 0.49325,1.53002 -1.18795,1.64886 -2.23124,2.12938 -4.38013,1.80882 -9.20088,2.38181 -13.90014,1.88975 -1.15131,-0.79624 -2.09661,-2.04753 -3.18604,-3.00405 -2.24884,-2.29155 -4.92774,-4.497 -5.85539,-7.69985 -0.82311,-3.22591 0.65626,-6.45071 2.10479,-9.26084 z m 9.25855,26.52988 c 2.69894,-2.91915 6.74717,-4.45649 10.44675,-5.78151 1.35511,-0.40533 2.78667,-1.17861 4.09396,-1.35359 5.84356,5.36798 11.34412,11.13737 17.61489,16.01645 6.35689,4.38413 13.3418497,7.73806 20.04614968,11.54653 -0.39587698,8.88732 -1.10729798,17.93356 -4.40871998,26.28579 -1.27557,2.45141 -1.86643,5.7377 -4.35322,7.28047 -3.6916097,3.12629 -0.2021793,42.47163 -4.5735697,44.50665 -1.01767,9.91342 -7.692906,8.48252 -8.434586,-12.81843 -4.57985,-4.63956 -9.543964,-35.60588 -13.242704,-40.92629 -2.69019,0.15252 3.657279,22.22367 1.087759,22.97615 0.477821,7.86408 -14.957036,22.00638 -17.421423,-0.87869 -1.53775,-3.33062 9.822964,-26.68257 11.371414,-28.17921 4.17739,-3.9112 7.67577,-8.47643 11.485,-12.73641 -4.74217,-5.84267 -9.6277,-11.61006 -15.2333,-16.65155 -2.39606,-1.51766 -4.61605,-5.05962 -7.67362,-4.48692 -1.75588,2.69246 -3.64268,-0.74149 -2.43711,-2.54419 0.45815,-0.83509 1.0095,-1.5816 1.63233,-2.25525 z M 41.141711,308.8069 c 0.503792,-0.60399 1.194185,-0.9347 2.182182,-0.57784 3.076134,0.53054 5.890131,1.95553 8.806566,3.00839 l 5.794122,12.79833 c 1.455347,3.24281 2.918375,6.48932 4.129823,9.83305 0.270281,1.25582 1.655575,3.30952 -0.08727,3.98571 -1.311552,0.71216 -2.513941,2.17768 -4.162866,1.70472 -5.569242,80.18037 -3.945163,61.76966 -10.553037,10.79068 -5.872042,5.37198 -14.592337,15.46063 -11.27627,-20.04206 -0.510377,-0.20365 -1.218453,-0.30149 -1.60571,-0.57132 1.84849,-6.25406 3.392139,-12.60845 5.710624,-18.71267 0.239895,-0.73614 0.558061,-1.61301 1.061836,-2.21699 z M 160.98514,184.62438 c 1.71061,-2.01691 3.5957,-3.86765 5.80635,-5.34539 1.67263,-1.21025 3.79137,-1.37591 5.73096,-0.80944 7.94178,1.61073 15.85344,3.41952 23.6502,5.63253 2.23957,0.39709 0.71543,3.40189 0.99702,4.95037 -0.044,0.54911 -0.0991,1.09927 -0.18785,1.64324 -0.33291,3.30884 -3.19241,5.40662 -5.79898,7.0078 -4.59862,21.97483 -10.814,26.10006 -18.46783,10.07736 l -21.93649,-8.70089 c 1.81643,-2.70342 3.62461,-5.41149 5.44688,-8.11097 1.51293,-2.14338 3.04913,-4.32768 4.75974,-6.34461 z m -14.59524,23.22709 c 2.8871,-3.2861 9.02615,2.35797 12.92064,2.55057 3.86574,1.96624 12.96647,2.47335 9.53366,8.7688 -1.80185,10.11823 -3.69409,20.23985 -6.73343,30.08067 -0.4976,5.81456 -6.1201,8.11627 -9.09707,12.40132 -6.42612,43.18758 -12.3671,37.63168 -16.57751,24.12009 -10.08701,65.5438 -15.39617,34.03905 -22.02293,26.3781 -4.64851,4.28913 -8.48582,10.46653 -15.059794,11.85525 -26.475246,136.05729 -3.165393,84.30212 -19.092032,1.35752 -24.094807,70.33391 -17.099169,2.34206 -20.662904,-13.44205 9.469375,-2.81205 19.073761,-5.28423 28.184963,-9.15601 8.885973,-3.907 17.526147,-8.98289 24.285417,-16.01756 10.12482,-12.82564 16.5893,-28.06772 22.55987,-43.15553 4.60493,-11.37088 7.30642,-23.37044 11.23014,-34.96084 0.16196,-0.30271 0.33851,-0.56125 0.53098,-0.78033 z m 35.69476,-36.08431 c 0.90315,-0.78577 2.06546,-1.19749 3.12704,-1.72579 4.5585,-2.0045 9.21086,-3.82932 13.99038,-5.23736 1.55709,-0.52166 3.20643,-0.39844 4.82013,-0.49761 l -1.55307,6.3619 c -0.53823,2.15263 -1.08199,4.30917 -1.8073,6.40787 -0.17931,1.18578 -1.52772,0.44196 -2.29592,0.36305 -4.73176,-1.18616 -9.38874,-2.67828 -13.958,-4.38401 -0.74113,-0.40014 -1.97332,-0.55054 -2.32327,-1.28819 z"
       id="path4193"
       inkscape:connector-curvature="0"
       sodipodi:nodetypes="cccccccccccccccccccccccccccccccccccccccccccccccccccccccccccccccccccccccccccccccccccccccccccsccccccccccccccccssccccccccccsscccccccccsccccccccccccccccccccccccc" />
    <path
       style="opacity:1;fill:#000000;fill-opacity:1;stroke:#00fa00;stroke-width:1;stroke-linecap:round;stroke-linejoin:round;stroke-miterlimit:4;stroke-dasharray:none;stroke-opacity:1"
       d="m 105.56836,522.02734 a 106.65724,13.60424 0 0 0 -106.6562506,13.60547 106.65724,13.60424 0 0 0 106.6562506,13.60352 106.65724,13.60424 0 0 0 82.97852,-5.07422 59.334187,7.5681362 0 0 0 10.82031,0.13086 59.334187,7.5681362 0 0 0 59.33398,-7.56836 59.334187,7.5681362 0 0 0 -59.33398,-7.56836 59.334187,7.5681362 0 0 0 -0.11133,0 106.65724,13.60424 0 0 0 -93.6875,-7.12891 z"
       transform="translate(-107.84787,11.310413)"
       id="path4139"
       inkscape:connector-curvature="0" />
    <path
       style="fill:#000000;fill-rule:evenodd;stroke:#00fa00;stroke-width:1px;stroke-linecap:round;stroke-linejoin:round;stroke-opacity:1"
       d="m -17.807941,492.64367 -5.387004,12.31315 c -0.758021,5.46148 1.391284,8.24337 5.072242,9.51096 8.6357941,-1.41449 0.0994,-15.22782 0.314762,-21.82411 z"
       id="path4141"
       inkscape:connector-curvature="0"
       sodipodi:nodetypes="cccc" />
    <path
       style="fill:#000000;fill-rule:evenodd;stroke:#00fa00;stroke-width:1;stroke-linecap:round;stroke-linejoin:round;stroke-miterlimit:4;stroke-dasharray:none;stroke-opacity:1"
       d="m 52.835329,394.22576 -2.693502,6.15658 c -0.37901,2.73074 0.695642,4.12168 2.536121,4.75548 4.317897,-0.70725 0.0497,-7.61391 0.157381,-10.91206 z"
       id="path4145"
       inkscape:connector-curvature="0"
       sodipodi:nodetypes="cccc" />
    <path
       sodipodi:nodetypes="ccc"
       inkscape:connector-curvature="0"
       id="path4147"
       d="m 85.884399,406.20578 c -2.712556,6.88733 -3.86799,11.74227 -5.387004,12.31315 1.782314,15.04249 15.657737,18.48943 5.387004,-12.31315 z"
       style="fill:#000000;fill-rule:evenodd;stroke:#00fa00;stroke-width:1px;stroke-linecap:round;stroke-linejoin:round;stroke-opacity:1" />
  </g>
</svg>
