<?xml version="1.0" encoding="UTF-8" standalone="no"?>
<!-- Created with Inkscape (http://www.inkscape.org/) -->

<svg
   xmlns:dc="http://purl.org/dc/elements/1.1/"
   xmlns:cc="http://creativecommons.org/ns#"
   xmlns:rdf="http://www.w3.org/1999/02/22-rdf-syntax-ns#"
   xmlns:svg="http://www.w3.org/2000/svg"
   xmlns="http://www.w3.org/2000/svg"
   xmlns:sodipodi="http://sodipodi.sourceforge.net/DTD/sodipodi-0.dtd"
   xmlns:inkscape="http://www.inkscape.org/namespaces/inkscape"
   inkscape:export-ydpi="320"
   inkscape:export-xdpi="320"
   inkscape:export-filename="/Users/lucacorsato/Documents/lavori/airtnt/veroveneziano/veroVeneziano_logo_nero.png"
   sodipodi:docname="veroVeneziano_logo_oro_senza_scritta.svg"
   inkscape:version="0.91 r13725"
   version="1.1"
   id="svg4818"
   viewBox="0 0 300.94952 200"
   height="200"
   width="300.94952">
  <sodipodi:namedview
     inkscape:snap-global="true"
     inkscape:window-maximized="1"
     inkscape:window-y="1"
     inkscape:window-x="0"
     inkscape:window-height="1104"
     inkscape:window-width="1920"
     inkscape:snap-page="true"
     inkscape:snap-text-baseline="true"
     inkscape:snap-center="true"
     inkscape:snap-object-midpoints="true"
     inkscape:snap-midpoints="true"
     inkscape:snap-smooth-nodes="true"
     inkscape:object-nodes="true"
     inkscape:snap-intersection-paths="true"
     inkscape:object-paths="true"
     inkscape:snap-bbox-midpoints="true"
     inkscape:snap-bbox-edge-midpoints="true"
     inkscape:bbox-nodes="true"
     inkscape:bbox-paths="true"
     inkscape:snap-bbox="true"
     units="px"
     showgrid="false"
     inkscape:current-layer="layer1"
     inkscape:document-units="px"
     inkscape:cy="99.65966"
     inkscape:cx="158.59885"
     inkscape:zoom="2.8"
     inkscape:pageshadow="2"
     inkscape:pageopacity="0.0"
     borderopacity="1.0"
     bordercolor="#666666"
     pagecolor="#ffffff"
     id="base"
     fit-margin-top="0"
     fit-margin-left="0"
     fit-margin-right="0"
     fit-margin-bottom="0" />
  <defs
     id="defs4820" />
  <metadata
     id="metadata4823">
    <rdf:RDF>
      <cc:Work
         rdf:about="">
        <dc:format>image/svg+xml</dc:format>
        <dc:type
           rdf:resource="http://purl.org/dc/dcmitype/StillImage" />
        <dc:title></dc:title>
      </cc:Work>
    </rdf:RDF>
  </metadata>
  <g
     inkscape:label="Livello 1"
     inkscape:groupmode="layer"
     id="layer1"
     transform="translate(1097.8297,-316.42299)">
    <g
       id="layer1-2"
       inkscape:label="ferro"
       transform="translate(1660.7287,1082.4003)" />
    <path
       inkscape:connector-curvature="0"
       d="m -975.55784,317.246 c -0.823,0.46985 -3.05557,2.82217 -4.99639,5.2912 l -3.52849,4.40677 -25.27678,0.0584 c -19.0459,0 -25.6299,0.17504 -26.7477,0.76466 -1.646,0.82301 -60.0181,68.48465 -61.0745,70.71721 -1.4096,3.11699 -0.2949,6.82052 2.7054,8.81662 1.5294,1.05947 3.2921,1.11782 30.9212,1.29286 l 29.2167,0.17812 0,6.70075 0,6.76217 -28.3354,0.0584 c -20.3971,0 -28.9803,0.17811 -30.4513,0.70631 -2.4106,0.82301 -4.7046,3.99527 -4.7046,6.52264 0,0.99805 0.5282,2.64407 1.1762,3.70354 2.2939,3.76188 1.646,3.70353 33.5068,3.70353 l 28.8053,0 0,9.40624 0,9.40623 -28.5105,0 c -31.5077,0 -31.566,0 -33.8016,3.64519 -1.471,2.46902 -1.471,4.93804 0,7.40706 2.2325,3.64519 2.2939,3.64519 33.8016,3.64519 l 28.5105,0 0,7.93527 0,7.93526 -28.5105,0 c -31.5077,0 -31.566,0 -33.8016,3.64519 -0.648,1.05946 -1.1762,2.76383 -1.1762,3.76188 0,2.52737 2.294,5.7027 4.7016,6.52571 1.4709,0.5282 10.0511,0.70631 30.4512,0.70631 l 28.3355,0.0584 0,4.99639 c 0,5.76105 0.823,7.99361 3.5284,9.40624 2.5858,1.3512 79.71199,1.3512 82.29771,0 2.70241,-1.41263 3.52849,-3.64519 3.52849,-9.40624 l 0,-4.99639 41.62022,0 c 26.62797,0 42.32346,-0.23646 43.73609,-0.58655 1.88247,-0.5282 5.87774,-4.93804 31.91917,-35.3279 16.39873,-19.11035 30.03363,-35.51215 30.38678,-36.45185 1.88248,-5.46625 -4.05669,-11.05225 -9.40623,-8.81662 -1.11782,0.46985 -11.93361,12.63992 -29.86166,33.56519 l -28.15729,32.92029 -40.0909,0 -40.14925,0 0,-7.93526 0,-7.93527 41.97338,0 c 28.80525,0 42.50157,-0.17504 43.73608,-0.64489 1.41263,-0.46985 9.40624,-9.40624 31.80248,-35.56436 32.33068,-37.62495 31.85775,-36.92171 29.80024,-41.15344 -1.05947,-2.29398 -4.05669,-4.3515 -6.23091,-4.3515 -0.823,0 -2.2909,0.46985 -3.35037,0.99805 -1.00112,0.58655 -14.34428,15.69549 -29.62827,33.50684 l -27.86555,32.50879 -40.08783,0 -40.14925,0 0,-9.40624 0,-9.40623 42.67662,0 c 38.26984,0 42.85473,-0.1167 44.20593,-0.93971 2.41068,-1.47097 60.31293,-69.366 60.90255,-71.36517 0.82301,-2.70549 -0.46985,-6.28925 -2.76383,-7.64046 -1.99917,-1.23451 -5.70271,-1.52932 -7.46542,-0.58655 -0.58654,0.29481 -13.81301,15.40068 -29.33345,33.50684 l -28.33234,32.9203 -39.91586,0 -39.9742,0 0,-7.05391 0,-6.99556 37.79692,-0.17812 c 32.27233,-0.17504 37.97503,-0.29481 39.26789,-1.0564 2.11587,-1.23451 59.90143,-68.60134 60.89948,-71.07037 1.17616,-2.76383 0,-6.28925 -2.70549,-8.11338 l -1.99917,-1.3512 -39.61797,0 c -38.97309,0 -39.62105,0 -38.97309,-1.11782 1.35121,-2.58571 -0.0584,-6.7591 -2.88052,-8.46346 -1.58767,-0.9397 -4.9964,-0.99805 -41.32542,-0.99805 -32.33067,0.0583 -39.85443,0.17504 -41.0306,0.82301 z m 62.89865,13.63797 c 0,0.17504 -10.10948,12.63991 -22.45459,27.68744 -12.40346,15.04752 -22.80775,27.9239 -23.21925,28.62714 -0.5282,0.9397 -0.70631,14.63602 -0.76466,58.08037 l 0,56.9042 -30.56797,0 -30.56794,0 0,-54.43825 0,-54.37376 25.74659,-31.39098 25.68827,-31.39097 28.09895,0 c 15.40375,-0.0584 28.0406,0.11669 28.0406,0.29481 z m -83.88534,10.93248 c -0.2948,0.4115 -8.58327,10.52098 -18.40097,22.45459 -9.8177,11.93361 -18.1645,22.39624 -18.576,23.21925 -0.4699,0.82301 -0.823,2.64406 -0.823,3.99834 l 0,2.52737 -20.3971,0 -20.3971,0 1.5294,-1.64601 c 0.7646,-0.88136 11.0522,-12.75662 22.7494,-26.45294 l 21.3398,-24.80691 16.755,0 c 13.34005,0 16.63208,0.17811 16.22057,0.70631 z m 166.77262,-0.23646 c 0,0.23646 -9.99278,12.0503 -22.2212,26.27789 l -22.2212,25.86638 -35.44766,0.17505 c -25.68827,0.0583 -35.38932,-0.0584 -35.2112,-0.5282 0.11669,-0.35316 9.75939,-12.22842 21.33984,-26.45293 l 21.16173,-25.74662 36.32902,-0.0584 c 19.92722,-0.003 36.27067,0.23339 36.27067,0.46678 z"
       id="path4228"
       style="fill:#ffd700;fill-opacity:1;stroke:none;stroke-opacity:0.94117647" />
    <g
       id="g4965"
       style="fill:#ffd700;fill-opacity:1;stroke:#ffd700;stroke-opacity:1"
       transform="matrix(0.11785923,0,0,0.11785923,-911.03465,405.78496)">
      <path
         inkscape:connector-curvature="0"
         style="fill:#ffd700;fill-opacity:1;fill-rule:evenodd;stroke:#ffd700;stroke-width:1.3221966px;stroke-linecap:butt;stroke-linejoin:miter;stroke-opacity:1"
         d="m -815.49266,19.884385 0,297.194525 c -1.26262,3.01928 17.29967,16.32 25.94233,-4.97343 8.64265,-21.29343 51.9592,-50.68714 86.25148,4.15295 l 13.0888,308.06103 c 14.07212,112.50171 31.46681,166.84276 50.43617,193.64296 l 40.67209,0 c -35.32188,-70.29121 -62.38504,-157.17229 -53.71226,-489.08376 18.87321,11.6742 22.18932,33.72071 28.51653,53.75892 l 8.49449,-33.0525 91.54378,0.33053 c 2.73949,-10.39905 3.7539,-21.08484 -0.93519,-32.72198 l -84.14391,0 C -579.7987,125.94256 -675.8549,52.476862 -815.49266,19.884385 Z"
         id="path4586" />
      <path
         style="fill:#ffd700;fill-opacity:1;fill-rule:evenodd;stroke:#ffd700;stroke-width:1.3221966px;stroke-linecap:butt;stroke-linejoin:miter;stroke-opacity:1"
         d="m -703.29968,316.25771 -93.5805,0.16528 c -4.58314,7.65381 -7.63947,22.73438 1.24117,34.13537 l 93.7897,-0.16528 z"
         id="path4588"
         inkscape:connector-curvature="0"
         sodipodi:nodetypes="ccccc" />
      <path
         style="fill:#ffd700;fill-opacity:1;fill-rule:evenodd;stroke:#ffd700;stroke-width:1.3221966px;stroke-linecap:butt;stroke-linejoin:miter;stroke-opacity:1"
         d="m -700.96504,371.20509 -93.28254,0 c -3.626,2.50846 -7.32074,21.60947 0.54586,33.56963 l 94.15598,-0.16527 z"
         id="path4590"
         inkscape:connector-curvature="0"
         sodipodi:nodetypes="ccccc" />
      <path
         style="fill:#ffd700;fill-opacity:1;fill-rule:evenodd;stroke:#ffd700;stroke-width:1.3221966px;stroke-linecap:butt;stroke-linejoin:miter;stroke-opacity:1"
         d="m -698.65234,425.63625 -92.98592,0.16528 c -2.27392,1.99113 -7.93511,20.39883 1.07888,34.29923 l 93.3573,-0.33152 z"
         id="path4592"
         inkscape:connector-curvature="0"
         sodipodi:nodetypes="ccccc" />
      <path
         style="fill:#ffd700;fill-opacity:1;fill-rule:evenodd;stroke:#ffd700;stroke-width:1.3221966px;stroke-linecap:butt;stroke-linejoin:miter;stroke-opacity:1"
         d="m -696.24916,482.19697 -93.00175,0.33055 c -1.9247,2.75635 -6.94862,18.79882 1.47955,32.10247 l 92.89321,-0.16528 -1.34085,-31.55789"
         id="path4594"
         inkscape:connector-curvature="0"
         sodipodi:nodetypes="ccccc" />
      <path
         style="fill:#ffd700;fill-opacity:1;fill-rule:evenodd;stroke:#ffd700;stroke-width:1.3221966px;stroke-linecap:butt;stroke-linejoin:miter;stroke-opacity:1"
         d="m -694.00124,535.10314 -92.55281,0 c -5.32194,11.52368 -4.06303,28.2891 1.79807,35.2739 l 92.25347,0 z"
         id="path4596"
         inkscape:connector-curvature="0"
         sodipodi:nodetypes="ccccc" />
      <path
         style="fill:#ffd700;fill-opacity:1;fill-rule:evenodd;stroke:#ffd700;stroke-width:1.3221966px;stroke-linecap:butt;stroke-linejoin:miter;stroke-opacity:1"
         d="m -691.60353,591.53513 -92.9003,0.16528 c -4.03329,9.65825 -2.48755,22.96019 1.99362,32.45997 l 92.2996,0.15815 z"
         id="path4598"
         inkscape:connector-curvature="0"
         sodipodi:nodetypes="ccccc" />
      <path
         inkscape:connector-curvature="0"
         style="fill:#ffd700;fill-opacity:1;fill-rule:evenodd;stroke:#ffd700;stroke-width:1.3221966px;stroke-linecap:round;stroke-linejoin:round;stroke-opacity:1"
         d="m -744.47952,351.85495 c -5.2145,0.0646 -9.17168,4.501 -14.20328,5.20098 -1.66338,0.8244 -3.10952,0.56271 -4.46242,-0.16527 -0.40433,-2.14264 -1.67181,-2.65004 -2.64439,-2.80968 -4.92638,1.46284 -3.23624,3.19875 -4.95824,4.95825 l -9.7512,2.31384 9.7512,2.31384 c 1.722,1.7595 0.0318,3.49541 4.95824,4.95824 0.97258,-0.15963 2.24006,-0.66703 2.64439,-2.80967 1.3529,-0.72798 2.79904,-0.98967 4.46242,-0.16528 7.31869,1.01818 12.36215,9.93986 22.31206,1.81803 l 1.81803,0 0.33054,1.98329 3.3055,-0.16528 c 4.57095,-3.22909 8.45765,-8.0133 17.68437,-0.66109 4.42628,-1.01061 9.48296,-2.6516 11.40394,-1.15692 l 0,-12.23032 c -1.92098,1.49468 -6.97766,-0.14631 -11.40394,-1.15693 -9.22672,7.35221 -13.11342,2.568 -17.68437,-0.66109 l -3.3055,-0.16527 -0.33054,1.98329 -1.81803,0 c -3.10934,-2.53806 -5.73856,-3.41238 -8.10878,-3.38296 z m 0.17819,4.68192 c 0.92564,-0.0495 1.86181,0.0564 2.81224,0.3667 1.77272,3.15629 2.70423,6.31086 0,9.46714 -7.86379,0.83176 -9.70613,-2.92524 -14.51834,-4.41851 3.88318,-2.06978 7.69497,-5.2009 11.7061,-5.41533 z"
         id="path4602" />
      <path
         id="path4611"
         d="m -739.82466,461.42493 c -5.21449,0.0647 -9.17169,4.50099 -14.20329,5.20098 -1.66338,0.8244 -3.10952,0.56271 -4.46241,-0.16528 -0.40433,-2.14263 -1.67181,-2.65003 -2.64439,-2.80966 -4.92637,1.46282 -3.23624,3.19873 -4.95825,4.95823 l -9.75119,2.31385 9.75119,2.31384 c 1.72201,1.7595 0.0319,3.49541 4.95825,4.95824 0.97258,-0.15963 2.24006,-0.66704 2.64439,-2.80967 1.35289,-0.72799 2.79903,-0.98968 4.46241,-0.16527 7.3187,1.01817 12.36216,9.93985 22.31207,1.81802 l 1.81802,0 0.33055,1.98329 3.30549,-0.16527 c 4.57095,-3.2291 8.45765,-8.01331 17.68438,-0.6611 4.42628,-1.01061 9.48295,-2.6516 11.40395,-1.15692 l 0,-12.23032 c -1.921,1.49468 -6.97767,-0.14632 -11.40395,-1.15692 -9.22673,7.3522 -13.11343,2.56799 -17.68438,-0.6611 l -3.30549,-0.16528 -0.33055,1.9833 -1.81802,0 c -3.10934,-2.53806 -5.73856,-3.41238 -8.10878,-3.38296 z m 0.17819,4.68192 c 0.92565,-0.0495 1.8618,0.0565 2.81225,0.3667 1.7727,3.15628 2.70422,6.31086 0,9.46714 -7.8638,0.83176 -9.70614,-2.92524 -14.51834,-4.41851 3.88317,-2.06979 7.69496,-5.2009 11.70609,-5.41533 z"
         style="fill:#ffd700;fill-opacity:1;fill-rule:evenodd;stroke:#ffd700;stroke-width:1.3221966px;stroke-linecap:round;stroke-linejoin:round;stroke-opacity:1"
         inkscape:connector-curvature="0" />
      <path
         inkscape:connector-curvature="0"
         style="fill:#ffd700;fill-opacity:1;fill-rule:evenodd;stroke:#ffd700;stroke-width:1.3221966px;stroke-linecap:round;stroke-linejoin:round;stroke-opacity:1"
         d="m -732.83304,571.24261 c -5.2145,0.0647 -9.17169,4.50099 -14.20329,5.20098 -1.66338,0.8244 -3.10952,0.56271 -4.46241,-0.16528 -0.40433,-2.14263 -1.67181,-2.65004 -2.6444,-2.80967 -4.92637,1.46283 -3.23623,3.19874 -4.95824,4.95824 l -9.75119,2.31385 9.75119,2.31384 c 1.72201,1.7595 0.0319,3.49541 4.95824,4.95824 0.97259,-0.15963 2.24007,-0.66704 2.6444,-2.80967 1.35289,-0.72799 2.79903,-0.98968 4.46241,-0.16528 7.3187,1.01818 12.36215,9.93986 22.31207,1.81802 l 1.81801,0 0.33056,1.9833 3.30548,-0.16527 c 4.57096,-3.2291 8.45766,-8.01331 17.68439,-0.6611 4.42628,-1.01061 9.48295,-2.6516 11.40394,-1.15693 l 0,-12.23031 c -1.92099,1.49467 -6.97766,-0.14632 -11.40394,-1.15693 -9.22673,7.35221 -13.11343,2.568 -17.68439,-0.66109 l -3.30548,-0.16528 -0.33056,1.9833 -1.81801,0 c -3.10934,-2.53807 -5.73856,-3.41238 -8.10878,-3.38296 z m 0.17819,4.68192 c 0.92564,-0.0495 1.86179,0.0565 2.81224,0.3667 1.77271,3.15628 2.70423,6.31086 0,9.46714 -7.8638,0.83175 -9.70614,-2.92524 -14.51834,-4.41852 3.88318,-2.06978 7.69497,-5.2009 11.7061,-5.41532 z"
         id="path4613" />
    </g>
  </g>
  <g
     inkscape:groupmode="layer"
     id="layer2"
     inkscape:label="bills"
     transform="translate(1097.8297,502.93917)" />
</svg>
