<?xml version="1.0" encoding="UTF-8" standalone="no"?>
<!-- Created with Inkscape (http://www.inkscape.org/) -->

<svg
   xmlns:dc="http://purl.org/dc/elements/1.1/"
   xmlns:cc="http://creativecommons.org/ns#"
   xmlns:rdf="http://www.w3.org/1999/02/22-rdf-syntax-ns#"
   xmlns:svg="http://www.w3.org/2000/svg"
   xmlns="http://www.w3.org/2000/svg"
   xmlns:sodipodi="http://sodipodi.sourceforge.net/DTD/sodipodi-0.dtd"
   xmlns:inkscape="http://www.inkscape.org/namespaces/inkscape"
   id="svg2"
   version="1.1"
   inkscape:version="0.91 r13725"
   width="500"
   height="640"
   sodipodi:docname="leon_of_cash.svg">
  <metadata
     id="metadata8">
    <rdf:RDF>
      <cc:Work
         rdf:about="">
        <dc:format>image/svg+xml</dc:format>
        <dc:type
           rdf:resource="http://purl.org/dc/dcmitype/StillImage" />
        <dc:title></dc:title>
      </cc:Work>
    </rdf:RDF>
  </metadata>
  <defs
     id="defs6" />
  <sodipodi:namedview
     pagecolor="#ffffff"
     bordercolor="#666666"
     borderopacity="1"
     objecttolerance="10"
     gridtolerance="10"
     guidetolerance="10"
     inkscape:pageopacity="0"
     inkscape:pageshadow="2"
     inkscape:window-width="1920"
     inkscape:window-height="1104"
     id="namedview4"
     showgrid="false"
     inkscape:zoom="2.52"
     inkscape:cx="-476.39515"
     inkscape:cy="374.11164"
     inkscape:window-x="0"
     inkscape:window-y="1"
     inkscape:window-maximized="1"
     inkscape:current-layer="svg2"
     inkscape:snap-global="true" />
  <g
     id="g4945"
     style="fill:#ffff00;stroke:#000000;stroke-linecap:round;stroke-linejoin:round"
     transform="matrix(0.75044506,0,0,1,159.09199,14.067796)" />
  <path
     style="fill:#efbc29;fill-opacity:1;stroke:#000000;stroke-width:1.155;stroke-linecap:round;stroke-linejoin:round;stroke-miterlimit:4;stroke-dasharray:none;stroke-dashoffset:0;stroke-opacity:1"
     d="m -440.58472,195.78505 c -9.32359,0 -16.89957,7.54128 -16.89957,16.86487 0,9.32358 7.57598,16.89957 16.89957,16.89957 9.32359,0 16.86487,-7.57599 16.86487,-16.89957 0,-9.32359 -7.54128,-16.86487 -16.86487,-16.86487 z m 0,1.87387 c 8.29366,0 15.0257,6.69733 15.0257,14.991 0,8.29366 -6.73204,15.02569 -15.0257,15.02569 -8.29366,0 -15.02569,-6.73203 -15.02569,-15.02569 0,-8.29367 6.73203,-14.991 15.02569,-14.991 z"
     id="path4933"
     inkscape:connector-curvature="0" />
  <path
     style="fill:#efbc29;fill-opacity:1;stroke:#000000;stroke-width:1.155;stroke-linecap:round;stroke-linejoin:round;stroke-miterlimit:4;stroke-dasharray:none;stroke-dashoffset:0;stroke-opacity:1"
     d="m -462.48128,267.9064 0,2.42909 c -0.29142,2.02426 -2.36964,3.18096 -2.98431,5.23991 3.00741,-0.22645 4.98114,-2.94872 7.46079,-4.44177 -1.09652,1.62247 -1.32677,3.95179 -2.74141,5.51751 4.40299,-0.33857 4.71289,-3.54382 8.15483,-4.47647 -0.21279,1.78367 -1.75494,2.52272 -2.5332,4.33767 3.89106,0.11927 4.95888,-3.01767 7.39139,-4.51118 l 0.87002,-3.24698 z"
     id="path5197"
     inkscape:connector-curvature="0"
     sodipodi:nodetypes="cccccccccc" />
  <path
     style="fill:#efbc29;fill-opacity:1;stroke:#000000;stroke-width:1.155;stroke-linecap:round;stroke-linejoin:round;stroke-miterlimit:4;stroke-dasharray:none;stroke-dashoffset:0;stroke-opacity:1"
     d="m -454.98578,252.36018 c -0.30074,2.89477 -1.71194,4.29579 -2.5679,6.66267 -3.20859,0.43318 -4.92516,1.07405 -6.47239,1.53622 -2.34779,0.70129 -3.85367,1.17188 -6.02012,1.30929 -2.4218,-1.19221 -6.96268,-0.964 -9.71831,0.99703 -1.85869,1.32272 -3.04396,3.7808 -1.94135,6.42906 l 5.55222,7.21789 c 1.6167,0.0177 3.55793,0.168 5.41342,-0.41642 1.144,-0.36033 2.34807,-2.00658 3.19252,-2.6373 1.18149,-0.88246 3.05195,-2.1864 6.31566,-2.15149 4.95277,0.053 8.43274,1.73507 15.89323,1.73507 l 26.23424,0 24.68909,-14.25426 -3.78327,-14.11936 -56.78704,0 z"
     id="path4940"
     inkscape:connector-curvature="0"
     sodipodi:nodetypes="ccscsccssssccccc" />
  <path
     style="fill:#efbc29;fill-opacity:1;stroke:#000000;stroke-width:1.15499997;stroke-linecap:round;stroke-linejoin:round;stroke-miterlimit:4;stroke-dasharray:none;stroke-dashoffset:0;stroke-opacity:1"
     d="m -480.20163,272.87605 c 1.06071,-1.11794 2.95488,-1.40729 3.98649,-0.81169 1.22426,0.70683 2.36738,2.25761 1.42711,3.88621 -0.74067,1.28287 -2.60209,1.61096 -3.64234,1.01037 -0.75558,-0.43623 -1.30254,-0.94436 -1.32711,-1.94007"
     id="path5162"
     inkscape:connector-curvature="0"
     sodipodi:nodetypes="csssc" />
  <g
     style="stroke-width:1.04012449;stroke-miterlimit:4;stroke-dasharray:none"
     id="g5118"
     transform="matrix(1.110444,0,0,1.110444,-589.97414,-95.902806)">
    <path
       style="fill:#efbc29;fill-opacity:1;stroke:#000000;stroke-width:1.04012449;stroke-linecap:round;stroke-linejoin:round;stroke-miterlimit:4;stroke-dasharray:none;stroke-dashoffset:0;stroke-opacity:1"
       d="m 107.12501,272.49998 c -5.02715,7.5084 -3.10939,15.05985 -0.1875,16.75 l 5.5625,-10.125 0,-5.5 z"
       id="path5076"
       inkscape:connector-curvature="0"
       sodipodi:nodetypes="ccccc" />
    <path
       sodipodi:nodetypes="ccccc"
       inkscape:connector-curvature="0"
       id="path5078"
       d="m 108.81251,279.68748 c -5.02715,7.5084 -3.10939,15.05985 -0.1875,16.75 l 5.5625,-10.125 0,-5.5 z"
       style="fill:#efbc29;fill-opacity:1;stroke:#000000;stroke-width:1.04012449;stroke-linecap:round;stroke-linejoin:round;stroke-miterlimit:4;stroke-dasharray:none;stroke-dashoffset:0;stroke-opacity:1" />
    <path
       style="fill:#efbc29;fill-opacity:1;stroke:#000000;stroke-width:1.04012449;stroke-linecap:round;stroke-linejoin:round;stroke-miterlimit:4;stroke-dasharray:none;stroke-dashoffset:0;stroke-opacity:1"
       d="m 110.62501,285.31248 c -5.46465,7.4459 -2.92189,16.30985 1.5,17.4375 l 3.875,-10.8125 0,-5.5 z"
       id="path5080"
       inkscape:connector-curvature="0"
       sodipodi:nodetypes="ccccc" />
    <path
       sodipodi:nodetypes="ccccc"
       inkscape:connector-curvature="0"
       id="path5066"
       d="m 108.37501,266.49998 c -5.02715,7.5084 -3.10939,15.05985 -0.1875,16.75 l 5.5625,-10.125 0,-5.5 z"
       style="fill:#efbc29;fill-opacity:1;stroke:#000000;stroke-width:1.04012449;stroke-linecap:round;stroke-linejoin:round;stroke-miterlimit:4;stroke-dasharray:none;stroke-dashoffset:0;stroke-opacity:1" />
    <path
       sodipodi:nodetypes="ccccc"
       inkscape:connector-curvature="0"
       id="path5082"
       d="m 114.00001,289.56248 c -5.65215,7.0084 -3.67189,16.49735 2.625,17.3125 l 2.75,-10.6875 0,-5.5 z"
       style="fill:#efbc29;fill-opacity:1;stroke:#000000;stroke-width:1.04012449;stroke-linecap:round;stroke-linejoin:round;stroke-miterlimit:4;stroke-dasharray:none;stroke-dashoffset:0;stroke-opacity:1" />
    <path
       style="fill:#efbc29;fill-opacity:1;stroke:#000000;stroke-width:1.04012449;stroke-linecap:round;stroke-linejoin:round;stroke-miterlimit:4;stroke-dasharray:none;stroke-dashoffset:0;stroke-opacity:1"
       d="m 117.93751,292.49998 c -5.52715,5.0709 -5.79689,14.30985 2.1875,15.6875 l 2.6875,-9.9375 0,-5.5 z"
       id="path5084"
       inkscape:connector-curvature="0"
       sodipodi:nodetypes="ccccc" />
    <path
       style="fill:#efbc29;fill-opacity:1;stroke:#000000;stroke-width:1.04012449;stroke-linecap:round;stroke-linejoin:round;stroke-miterlimit:4;stroke-dasharray:none;stroke-dashoffset:0;stroke-opacity:1"
       d="m 112.64464,271.66683 c -7.08699,4.74558 -6.01047,13.44259 -3.39206,15.57284 l 5.77874,-9.18234 0.18081,-6.05603 z"
       id="path5068"
       inkscape:connector-curvature="0"
       sodipodi:nodetypes="ccccc" />
    <path
       sodipodi:nodetypes="ccccc"
       inkscape:connector-curvature="0"
       id="path5070"
       d="m 114.51964,277.47933 c -7.08699,4.74558 -5.82297,11.13009 -3.26706,13.69784 0.50816,-3.31125 1.96176,-5.89069 3.52874,-7.49484 l -0.0692,-3.05603 z"
       style="fill:#efbc29;fill-opacity:1;stroke:#000000;stroke-width:1.04012449;stroke-linecap:round;stroke-linejoin:round;stroke-miterlimit:4;stroke-dasharray:none;stroke-dashoffset:0;stroke-opacity:1" />
    <path
       style="fill:#efbc29;fill-opacity:1;stroke:#000000;stroke-width:1.04012449;stroke-linecap:round;stroke-linejoin:round;stroke-miterlimit:4;stroke-dasharray:none;stroke-dashoffset:0;stroke-opacity:1"
       d="m 116.57913,281.56072 c -6.53408,4.91945 -5.02664,11.44298 -2.3338,13.40772 -0.0393,-3.84674 1.56527,-6.25535 2.70018,-7.83158 z"
       id="path5072"
       inkscape:connector-curvature="0"
       sodipodi:nodetypes="cccc" />
    <path
       sodipodi:nodetypes="cccc"
       inkscape:connector-curvature="0"
       id="path5074"
       d="m 118.76663,284.31072 c -6.53408,4.91945 -5.02664,11.44298 -2.3338,13.40772 -0.53928,-4.28424 1.44027,-6.63035 2.70018,-7.83158 z"
       style="fill:#efbc29;fill-opacity:1;stroke:#000000;stroke-width:1.04012449;stroke-linecap:round;stroke-linejoin:round;stroke-miterlimit:4;stroke-dasharray:none;stroke-dashoffset:0;stroke-opacity:1" />
    <path
       sodipodi:nodetypes="cssscssc"
       inkscape:connector-curvature="0"
       id="path5062"
       d="m 121.34204,282.22356 c -2.70528,0.25 -4.92386,-1.98896 -4.92386,-5.43275 0,-2.40675 0.42096,-3.30399 0.43122,-5.79701 0.0168,-4.09155 -2.48722,-7.57996 -4.92386,-7.57996 -3.68405,0 -7.69934,4.0975 -6.70679,12.36993 0.2319,-3.06175 2.2017,-6.57291 4.38281,-6.57291 2.9482,0 2.02998,5.59182 2.51611,11.10778 0.46291,5.25246 2.07582,10.44198 7.04055,10.44198"
       style="fill:#efbc29;fill-opacity:1;stroke:#000000;stroke-width:1.04012449;stroke-miterlimit:4;stroke-dasharray:none" />
    <path
       sodipodi:nodetypes="cc"
       inkscape:connector-curvature="0"
       id="path5064"
       d="m 117.68751,285.24998 c -2.55795,-1.81501 -2.40043,-5.87532 -1.3125,-8.5625"
       style="fill:none;stroke:#000000;stroke-width:1.04012449;stroke-linecap:round;stroke-linejoin:round;stroke-miterlimit:4;stroke-dasharray:none;stroke-dashoffset:0;stroke-opacity:1" />
  </g>
  <path
     style="fill:#efbc29;fill-opacity:1;stroke:none;stroke-width:1.155;stroke-miterlimit:4;stroke-dasharray:none"
     d="m -453.05445,211.97246 -4.80937,4.22046 -1.5704,7.06682 0.29445,13.2503 0.0982,9.22613 3.92602,7.95017 4.90751,4.90752 10.60024,2.35561 10.01133,-3.63157 4.22047,-6.08532 2.9445,-8.53907 0.1963,-14.4281 -3.82786,-10.10948 -0.1963,-4.61306 -2.74821,-2.15931 -12.66139,-1.57041 -8.24463,0.78521 z"
     id="path5056"
     inkscape:connector-curvature="0" />
  <path
     style="fill:#efbc29;fill-opacity:1;stroke:#000000;stroke-width:1.155;stroke-linecap:round;stroke-linejoin:round;stroke-miterlimit:4;stroke-dasharray:none"
     d="m -441.32549,229.38788 -6.03594,4.40708 0.13798,6.14214 0.7588,1.83917 5.13916,-0.0694 5.10468,0.0694 0.7588,-1.83917 0.17245,-6.14214 -6.03591,-4.40708 z"
     id="path5041"
     inkscape:connector-curvature="0" />
  <path
     style="fill:#efbc29;fill-opacity:1;stroke:#000000;stroke-width:1.155;stroke-linecap:round;stroke-linejoin:round;stroke-miterlimit:4;stroke-dasharray:none;stroke-dashoffset:0;stroke-opacity:1"
     d="m -444.36716,232.51098 c -0.37615,1.13478 -0.67182,2.25346 -0.58992,3.29664 -0.69217,-0.79666 -0.87958,-1.63333 -1.14515,-2.4638 z"
     id="path4926"
     inkscape:connector-curvature="0"
     sodipodi:nodetypes="cccc" />
  <g
     id="g4907"
     transform="matrix(-1.110444,0,0,1.110444,-292.87217,-95.902806)"
     style="stroke:#000000;stroke-width:1.04012449;stroke-miterlimit:4;stroke-dasharray:none">
    <circle
       r="0.95017481"
       cy="283.72864"
       cx="129.7762"
       id="path4911"
       style="fill:#efbc29;fill-opacity:1;stroke:#000000;stroke-width:0.72030917;stroke-linecap:round;stroke-linejoin:round;stroke-miterlimit:4;stroke-dasharray:none;stroke-dashoffset:0;stroke-opacity:1"
       transform="matrix(1.4439973,0,0,1.4439973,-57.854653,-125.61536)" />
    <circle
       r="0.95017481"
       cy="283.72864"
       cx="129.7762"
       style="fill:#efbc29;fill-opacity:1;stroke:#000000;stroke-width:1.13330694;stroke-linecap:round;stroke-linejoin:round;stroke-miterlimit:4;stroke-dasharray:none;stroke-dashoffset:0;stroke-opacity:1"
       id="path4909"
       transform="matrix(0.91777828,0,0,0.91777828,10.592297,23.250531)" />
  </g>
  <path
     style="fill:#efbc29;fill-opacity:1;stroke:#000000;stroke-width:1.155;stroke-linecap:round;stroke-linejoin:round;stroke-miterlimit:4;stroke-dasharray:none;stroke-dashoffset:0;stroke-opacity:1"
     d="m -429.72319,279.77428 c 2.13181,0.23272 5.02025,-0.0195 7.07908,-0.55522 -0.93278,1.46086 -0.81161,3.00143 -1.87387,4.09476 5.02994,-0.50383 4.28585,-4.32512 6.73206,-6.80147 -0.3915,2.01214 0.60824,2.89683 -0.76343,4.78879 5.81897,-1.45433 2.80507,-6.19539 6.31565,-7.7037 -0.94561,2.6026 0.69734,3.64364 -0.90223,5.62162 4.33407,-1.20276 3.61835,-4.21571 3.81715,-8.60594 l 0,-3.53954 -21.25472,5.69519 z"
     id="path4070"
     inkscape:connector-curvature="0"
     sodipodi:nodetypes="ccccccccccc" />
  <g
     style="stroke-width:1.04012449;stroke-miterlimit:4;stroke-dasharray:none"
     id="g4949"
     transform="matrix(1.110444,0,0,1.110444,-589.97414,-95.902806)">
    <path
       sodipodi:nodetypes="cccccsccsccsc"
       inkscape:connector-curvature="0"
       id="path4893"
       d="m 189.59302,344.03161 -1.28164,-1.94455 -7.73398,8.75045 1.67938,1.5026 c -0.10039,2.3041 0.70929,3.46815 1.19324,4.90555 0.91992,-0.58621 1.44042,-1.71018 1.4748,-2.47484 0.0445,-0.99048 -1.10397,-2.14558 -0.32575,-4.15428 0.14436,1.84227 1.70091,2.1762 1.41422,3.97747 1.00713,-0.68539 1.41341,-1.39756 1.42529,-2.16875 0.0207,-1.34043 -0.97058,-2.54982 0.0331,-4.72554 0.1645,1.99242 1.30672,2.49616 1.14905,4.59619 0.82626,-0.47435 1.77416,-1.73042 1.77416,-2.60389 0,-1.57031 -1.45582,-3.10453 -0.80188,-5.66041 z"
       style="fill:#efbc29;fill-opacity:1;stroke:#000000;stroke-width:1.04012449;stroke-linecap:round;stroke-linejoin:round;stroke-miterlimit:4;stroke-dasharray:none;stroke-dashoffset:0;stroke-opacity:1" />
    <path
       inkscape:connector-curvature="0"
       style="fill:#efbc29;fill-opacity:1;stroke:#000000;stroke-width:1.04012449;stroke-linecap:round;stroke-linejoin:round;stroke-miterlimit:4;stroke-dasharray:none;stroke-dashoffset:0;stroke-opacity:1"
       d="m 171.25,318.625 -10.6875,4.78125 c 2.44874,7.65936 5.69685,16.9839 12.625,19.5 1.55807,0.56585 3.8125,1.4648 3.8125,4.03125 0,1.9348 -2.04527,3.53945 -3.875,3.875 -3.18187,0.58352 -5.18733,0.86699 -6.4375,2.71875 l -3.125,4.34375 8.0625,-0.0625 4,2.75 c 1.5078,0.0464 3.19226,-1.59973 4.125,-3.1875 2.54252,-4.32806 4.35982,-6.98024 6.1875,-8.6875 1.80091,-1.68225 3.31133,-2.56825 4.375,-4.75 0.37868,-0.77673 0.46164,-1.88025 -0.625,-2.40625 -2.15803,-1.04461 -3.01288,-3.04097 -3.125,-6.40625 -0.17466,-5.24258 1.92954,-10.95303 2.25,-16.5 l -17.5625,0 z"
       id="path4114" />
    <path
       sodipodi:nodetypes="cssc"
       inkscape:connector-curvature="0"
       id="path4907"
       d="m 167.09818,353.71013 c -2.7268,-1.21657 -5.12652,0.0908 -5.12652,2.60745 0,1.35023 0.82832,2.82843 2.47487,2.82843 1.36498,0 2.09302,-0.65338 2.69585,-1.37002"
       style="fill:#efbc29;fill-opacity:1;stroke:#000000;stroke-width:1.04012449;stroke-linecap:round;stroke-linejoin:round;stroke-miterlimit:4;stroke-dasharray:none;stroke-dashoffset:0;stroke-opacity:1" />
    <path
       sodipodi:nodetypes="cscssc"
       inkscape:connector-curvature="0"
       id="path4895"
       d="m 179.25158,348.09747 c -2.06405,4.25089 -4.64374,3.8711 -6.58057,4.0652 -1.01366,0.10158 -2.20479,0.57711 -2.34666,1.50326 -2.09788,-0.44194 -4.68458,0.92168 -4.68458,3.35877 0,2.06976 1.30597,3.40294 3.40296,3.40294 1.92283,0 3.12485,-1.5626 3.8007,-2.38648"
       style="fill:#efbc29;fill-opacity:1;stroke:#000000;stroke-width:1.04012449;stroke-linecap:round;stroke-linejoin:round;stroke-miterlimit:4;stroke-dasharray:none;stroke-dashoffset:0;stroke-opacity:1" />
    <path
       sodipodi:nodetypes="csc"
       inkscape:connector-curvature="0"
       id="path4891"
       d="m 175.63871,360.56348 c -2.61444,0 -4.03273,-1.79582 -4.03273,-3.7123 0,-2.77743 3.84088,-3.9057 5.96622,-2.07713"
       style="fill:#efbc29;fill-opacity:1;stroke:#000000;stroke-width:1.04012449;stroke-linecap:round;stroke-linejoin:round;stroke-miterlimit:4;stroke-dasharray:none;stroke-dashoffset:0;stroke-opacity:1" />
    <path
       sodipodi:nodetypes="cc"
       inkscape:connector-curvature="0"
       id="path4886"
       d="m 172.53406,357.20147 c 0.7365,1.02387 2.25714,2.00922 2.69585,2.96101"
       style="fill:#000000;fill-opacity:1;stroke:#000000;stroke-width:1.04012449;stroke-linecap:round;stroke-linejoin:round;stroke-miterlimit:4;stroke-dasharray:none;stroke-dashoffset:0;stroke-opacity:1" />
    <path
       sodipodi:nodetypes="cccc"
       inkscape:connector-curvature="0"
       id="path4888"
       d="m 172.66664,357.15727 c -2.24694,0.95727 -2.37428,3.74289 1e-5,4.5962 -0.41786,-1.24129 -0.0235,-2.61803 1.32582,-3.00521 -0.0355,-0.56268 -0.51185,-1.25833 -1.32583,-1.59099 z"
       style="fill:#efbc29;fill-opacity:1;stroke:#000000;stroke-width:1.04012449;stroke-linecap:round;stroke-linejoin:round;stroke-miterlimit:4;stroke-dasharray:none;stroke-dashoffset:0;stroke-opacity:1" />
    <path
       sodipodi:nodetypes="cc"
       inkscape:connector-curvature="0"
       id="path4905"
       d="m 166.34688,356.71533 c 0.31572,1.29135 1.67704,1.42457 1.94454,3.49134"
       style="fill:#efbc29;fill-opacity:1;stroke:#000000;stroke-width:1.04012449;stroke-linecap:round;stroke-linejoin:round;stroke-miterlimit:4;stroke-dasharray:none;stroke-dashoffset:0;stroke-opacity:1" />
    <path
       sodipodi:nodetypes="cccc"
       inkscape:connector-curvature="0"
       id="path4897"
       d="m 166.30268,356.62694 c 0.84693,0.008 1.1242,0.74748 1.14905,1.81196 -1.5107,0.28844 -1.66762,0.90626 -1.94454,1.90035 -0.99783,-1.8357 -0.43757,-2.93335 0.79549,-3.71231 z"
       style="fill:#efbc29;fill-opacity:1;stroke:#000000;stroke-width:1.04012449;stroke-linecap:round;stroke-linejoin:round;stroke-miterlimit:4;stroke-dasharray:none;stroke-dashoffset:0;stroke-opacity:1" />
    <path
       sodipodi:nodetypes="cc"
       inkscape:connector-curvature="0"
       id="path4915"
       d="m 162.47989,356.20709 c 0.28606,1.60367 1.43877,1.35693 1.65728,2.62956"
       style="fill:none;stroke:#000000;stroke-width:1.04012449;stroke-linecap:round;stroke-linejoin:round;stroke-miterlimit:4;stroke-dasharray:none;stroke-dashoffset:0;stroke-opacity:1" />
    <path
       sodipodi:nodetypes="cccc"
       inkscape:connector-curvature="0"
       id="path4910"
       d="m 162.32521,355.96403 c 0.60594,0.32902 1.05741,0.85112 1.19324,1.76777 -1.00045,0.39029 -1.3846,1.32589 -1.28163,2.38648 -1.18203,-0.73454 -1.89077,-2.8966 0.0884,-4.15425 z"
       style="fill:#efbc29;fill-opacity:1;stroke:#000000;stroke-width:1.04012449;stroke-linecap:round;stroke-linejoin:round;stroke-miterlimit:4;stroke-dasharray:none;stroke-dashoffset:0;stroke-opacity:1" />
    <path
       sodipodi:nodetypes="cc"
       inkscape:connector-curvature="0"
       id="path4936"
       d="m 170.19177,353.62174 c 0.41543,0.2519 0.98392,0.83849 1.17114,1.25953"
       style="fill:#000000;fill-opacity:1;stroke:#000000;stroke-width:1.04012449;stroke-linecap:round;stroke-linejoin:round;stroke-miterlimit:4;stroke-dasharray:none;stroke-dashoffset:0;stroke-opacity:1" />
  </g>
  <path
     style="fill:#efbc29;fill-opacity:1;stroke:#000000;stroke-width:1.155;stroke-linecap:round;stroke-linejoin:round;stroke-miterlimit:4;stroke-dasharray:none;stroke-dashoffset:0;stroke-opacity:1"
     d="m -408.27774,269.01685 c 2.44963,0.89201 5.43616,0.55146 6.53175,0.21571 1.74966,-0.53618 2.1715,-1.24833 4.27475,-1.24833 3.40517,0 4.29937,5.09268 8.52217,5.09268 3.20533,0 6.96645,-3.84382 8.91825,-5.1011 l 0,-4.44177 -28.28162,0 z"
     id="path4054"
     inkscape:connector-curvature="0"
     sodipodi:nodetypes="cssscccc" />
  <path
     style="fill:#efbc29;fill-opacity:1;stroke:#000000;stroke-width:1.155;stroke-linecap:round;stroke-linejoin:round;stroke-miterlimit:4;stroke-dasharray:none;stroke-dashoffset:0;stroke-opacity:1"
     d="m -450.68282,268.73924 c 0,0 4.98948,11.52086 16.51786,11.52086 16.58418,0 24.43428,-14.28325 38.38014,-14.28325 2.6068,0 5.46383,0.41535 8.67492,1.44374 l 0,-13.11713 -3.40072,-3.05372"
     id="path4056"
     inkscape:connector-curvature="0"
     sodipodi:nodetypes="cssc" />
  <g
     style="stroke-width:0.95007042;stroke-miterlimit:4;stroke-dasharray:none;stroke:#000000;stroke-opacity:1"
     id="g5037"
     transform="matrix(1.110444,0,0,1.110444,-589.97414,-95.902806)">
    <path
       sodipodi:nodetypes="csssscscccscssscsccccccccsccsccccccccccssc"
       inkscape:connector-curvature="0"
       id="path4167"
       d="m 149.81825,309.16241 c 13.43172,0 20.50869,-3.71231 35.37938,-3.71231 28.81007,0 33.98435,28.90299 43.90497,28.90299 2.29243,0 2.74004,-2.02914 2.74004,-3.8007 0,-10.37801 -20.59449,-15.28033 -20.59449,-24.48357 0,-2.87833 1.96972,-6.02068 6.05579,-7.90494 2.73254,-2.00827 4.7214,-3.1436 6.84891,-3.1436 3.38755,0 6.53622,2.4995 9.81111,1.59099 -0.54586,1.99052 -2.76942,2.69235 -4.71139,3.51945 2.6281,1.05672 5.71426,2.24556 6.9934,4.20159 -4.42131,-1.70672 -6.55316,0.41069 -9.79502,0.41069 -3.78291,0 -4.97818,-2.14709 -8.66206,-2.91682 -2.83288,1.11825 -4.06587,2.79925 -4.06587,4.68458 0,6.32781 21.56676,12.98745 21.56676,24.13002 0,4.43087 -2.71393,6.80591 -6.27557,6.80591 -7.86626,0 -12.42856,-13.18631 -22.09709,-20.77126 1.04584,3.49315 0.95155,6.45828 2.35911,9.78529 1.55995,3.68721 4.55817,6.88986 9.83848,6.9201 0.62762,0.12801 0.90154,0.43326 1.06066,0.7955 l 0.26517,2.29809 1.59099,2.03294 c 0.0298,0.53033 0.0309,0.81066 -0.0572,1.34099 l -0.61336,0.28569 c -0.2478,3.581 2.54787,4.89219 1.20083,7.47732 -0.52282,-1.60492 -1.80104,-2.71668 -2.82843,-4.06587 -1.12583,0.92146 -0.44186,1.88382 0.10474,2.57957 1.09351,1.3919 2.27966,3.12403 1.30948,5.46377 -0.52978,-1.56448 -1.76663,-2.68168 -2.74004,-3.97747 -0.31598,2.76181 0.82053,3.5055 1.402,4.57073 0.83457,1.52892 1.63767,2.77707 0.45415,4.17971 -0.32087,-1.40592 -1.41085,-3.12978 -2.65165,-3.62392 0.30989,5.17395 -0.63326,9.47774 -6.27557,10.51821 l -3.97748,-3.20121 -5.96843,0 0,-2.72081 0.31158,-0.97227 0.79549,0.0884 0.26517,-1.76777 5.65685,-2.74004 c 0.40612,-1.03756 0.61872,-2.34249 0.61872,-3.71231 0,-6.15496 -5.25885,-11.39976 -10.34144,-11.66726 -10.35219,-0.54484 -20.65965,-4.39909 -21.03642,-18.11961"
       style="fill:#efbc29;fill-opacity:1;stroke:#000000;stroke-width:0.95007042;stroke-linecap:round;stroke-linejoin:round;stroke-miterlimit:4;stroke-dasharray:none;stroke-dashoffset:0;stroke-opacity:1" />
    <path
       sodipodi:nodetypes="csssc"
       inkscape:connector-curvature="0"
       id="path4977"
       d="m 203.07224,358.90294 c -0.28733,-0.63826 -1.1307,-1.39682 -1.90085,-1.41677 -1.14829,-0.0298 -3.57923,1.59346 -3.57923,3.29502 0,1.27396 1.27215,2.3423 2.74004,2.3423 1.13924,0 2.26916,-0.78691 2.82843,-1.74568"
       style="fill:#efbc29;fill-opacity:1;stroke:#000000;stroke-width:0.95007042;stroke-linecap:round;stroke-linejoin:round;stroke-miterlimit:4;stroke-dasharray:none;stroke-dashoffset:0;stroke-opacity:1" />
    <path
       sodipodi:nodetypes="cscssc"
       inkscape:connector-curvature="0"
       id="path4964"
       d="m 213.01593,350.17459 c -0.27813,1.44673 -1.70201,3.3123 -3.0494,3.44715 -2.41349,0.24155 -3.71542,1.37491 -3.94433,2.88366 -2.19279,0.42221 -3.61287,1.62499 -3.61287,3.56869 0,1.29426 1.0111,2.78422 2.60745,2.78422 2.07052,0 3.44564,-1.91957 4.46361,-3.13777"
       style="fill:#efbc29;fill-opacity:1;stroke:#000000;stroke-width:0.95007042;stroke-linecap:round;stroke-linejoin:round;stroke-miterlimit:4;stroke-dasharray:none;stroke-dashoffset:0;stroke-opacity:1" />
    <path
       sodipodi:nodetypes="cccc"
       inkscape:connector-curvature="0"
       id="path4979"
       d="m 199.31573,359.76473 c 0.84161,0.30826 0.99982,1.0323 0.88389,1.90035 -1.42671,0.44921 -1.79279,1.63708 -1.37002,2.91681 -1.01691,-1.13203 -1.65675,-3.66048 0.48613,-4.81716 z"
       style="fill:#efbc29;fill-opacity:1;stroke:#000000;stroke-width:0.95007042;stroke-linecap:round;stroke-linejoin:round;stroke-miterlimit:4;stroke-dasharray:none;stroke-dashoffset:0;stroke-opacity:1" />
    <path
       sodipodi:nodetypes="cscsc"
       inkscape:connector-curvature="0"
       id="path4046"
       d="m 214.1875,350.5625 c 0.3106,1.41507 -0.98688,2.28928 -1.888,3.29136 -0.89246,0.99246 -1.72521,2.83494 -0.0495,3.52114 -2.71997,-0.91784 -4.66039,1.24035 -4.66039,2.92032 0,1.98894 1.47061,3.43428 4.00257,2.91049"
       style="fill:#efbc29;fill-opacity:1;stroke:#000000;stroke-width:0.95007042;stroke-linecap:round;stroke-linejoin:round;stroke-miterlimit:4;stroke-dasharray:none;stroke-dashoffset:0;stroke-opacity:1" />
    <path
       sodipodi:nodetypes="cccc"
       inkscape:connector-curvature="0"
       id="path4048"
       d="m 209.5625,359.40625 c 0.73741,0.47505 0.90575,1.23463 0.8125,2.125 -2.05336,-0.0577 -1.87668,1.81977 -1.5625,2.78125 -1.88676,-1.26014 -1.5389,-4.11467 0.75,-4.90625 z"
       style="fill:#efbc29;fill-opacity:1;stroke:#000000;stroke-width:0.95007042;stroke-linecap:round;stroke-linejoin:round;stroke-miterlimit:4;stroke-dasharray:none;stroke-dashoffset:0;stroke-opacity:1" />
    <path
       sodipodi:nodetypes="cccc"
       inkscape:connector-curvature="0"
       id="path4975"
       d="m 203.16063,359.01343 c 0.89717,0.34727 1.41484,0.97917 1.37002,2.03293 -1.29738,0.6615 -1.12958,2.21087 -0.99437,3.18198 -1.14475,-1.23902 -1.84353,-3.52247 -0.37565,-5.21491 z"
       style="fill:#efbc29;fill-opacity:1;stroke:#000000;stroke-width:0.95007042;stroke-linecap:round;stroke-linejoin:round;stroke-miterlimit:4;stroke-dasharray:none;stroke-dashoffset:0;stroke-opacity:1" />
    <path
       sodipodi:nodetypes="cccccc"
       inkscape:connector-curvature="0"
       id="path5176"
       d="m 212.75001,335.93749 c 0.94101,1.02434 1.96093,2.1276 2.75,3 0.0833,0.72917 0.16667,1.45833 0.25,2.1875 0.17667,1.47375 -0.0497,2.746 -0.1875,4.0625 -0.56957,0.5346 -0.95114,1.2572 -1.1875,2.125 0.32808,-4.53717 0.35018,-8.81206 -1.625,-11.375 z"
       style="fill:none;stroke:#000000;stroke-width:0.95007042;stroke-linecap:round;stroke-linejoin:round;stroke-miterlimit:4;stroke-dasharray:none;stroke-dashoffset:0;stroke-opacity:1" />
    <path
       sodipodi:nodetypes="cc"
       inkscape:connector-curvature="0"
       id="path4050"
       d="m 221.84375,339.9375 c -2.86721,0.96665 -5.16753,4.98421 -5.28125,12.34375"
       style="fill:none;stroke:#000000;stroke-width:0.95007042;stroke-linecap:round;stroke-linejoin:round;stroke-miterlimit:4;stroke-dasharray:none;stroke-dashoffset:0;stroke-opacity:1" />
    <path
       sodipodi:nodetypes="cc"
       inkscape:connector-curvature="0"
       id="path4052"
       d="m 216.34375,353.15625 c -0.22797,1.47353 -0.68164,2.04426 -1.0625,2.90625"
       style="fill:none;stroke:#000000;stroke-width:0.95007042;stroke-linecap:round;stroke-linejoin:round;stroke-miterlimit:4;stroke-dasharray:none;stroke-dashoffset:0;stroke-opacity:1" />
    <path
       sodipodi:nodetypes="cc"
       inkscape:connector-curvature="0"
       id="path4973"
       d="m 206.05534,356.49436 c 0.52257,0.061 1.09766,0.34426 1.39212,0.7513"
       style="fill:none;stroke:#000000;stroke-width:0.95007042;stroke-linecap:round;stroke-linejoin:round;stroke-miterlimit:4;stroke-dasharray:none;stroke-dashoffset:0;stroke-opacity:1" />
  </g>
  <path
     style="fill:#efbc29;fill-opacity:1;stroke:#000000;stroke-width:1.155;stroke-linecap:round;stroke-linejoin:round;stroke-miterlimit:4;stroke-dasharray:none;stroke-dashoffset:0;stroke-opacity:1"
     d="m -339.77722,234.03787 c 6.03867,0.14259 12.08708,4.43712 15.68502,0.20821 -4.21703,6.03123 -7.83937,5.71918 -11.52086,6.03803"
     id="path4862"
     inkscape:connector-curvature="0"
     sodipodi:nodetypes="ccc" />
  <g
     id="g5097"
     style="fill:#efbc29;fill-opacity:1;stroke:#000000;stroke-width:1.04012449;stroke-miterlimit:4;stroke-dasharray:none"
     transform="matrix(1.110444,0,0,1.110444,-589.97414,-95.902806)">
    <path
       style="fill:#efbc29;fill-opacity:1;stroke:#000000;stroke-width:1.04012449;stroke-linecap:round;stroke-linejoin:round;stroke-miterlimit:4;stroke-dasharray:none;stroke-dashoffset:0;stroke-opacity:1"
       d="m 177.30703,262.40498 c 15.38824,0 23.14433,8.8466 48.52387,9.4272 4.62634,0.10584 8.78295,-0.57714 12.11053,-2.53291 -1.61486,5.40545 -8.75133,9.12712 -20.6287,9.18398 -9.38637,0.0449 -21.59277,-2.22237 -37.35405,-7.59299 z"
       id="path4155"
       inkscape:connector-curvature="0"
       sodipodi:nodetypes="cscscc" />
    <path
       sodipodi:nodetypes="csccc"
       inkscape:connector-curvature="0"
       id="path4160"
       d="m 230.69359,278.31488 c -0.66809,5.29576 -6.77803,7.24684 -14.31861,7.24684 -9.26903,0 -21.48367,-2.68445 -32.08528,-5.83263 l 3.44715,-6.54073 c 12.73805,3.40847 33.61103,7.88401 42.95674,5.12652 z"
       style="fill:#efbc29;fill-opacity:1;stroke:#000000;stroke-width:1.04012449;stroke-linecap:round;stroke-linejoin:round;stroke-miterlimit:4;stroke-dasharray:none;stroke-dashoffset:0;stroke-opacity:1" />
    <path
       sodipodi:nodetypes="csccc"
       inkscape:connector-curvature="0"
       id="path4165"
       d="m 225.21351,285.7395 c -1.87769,4.73184 -7.67248,6.57087 -14.49568,6.57175 -10.19857,0.001 -22.69473,-3.77673 -27.84234,-5.51109 l 3.53554,-7.15945 c 12.16555,3.73491 30.00566,7.75041 38.80248,6.09879 z"
       style="fill:#efbc29;fill-opacity:1;stroke:#000000;stroke-width:1.04012449;stroke-linecap:round;stroke-linejoin:round;stroke-miterlimit:4;stroke-dasharray:none;stroke-dashoffset:0;stroke-opacity:1" />
    <path
       sodipodi:nodetypes="csccc"
       inkscape:connector-curvature="0"
       id="path4044"
       d="m 217.6875,292.9375 c -2.61186,4.4675 -7.12496,6.0559 -12.3747,6.0559 -9.55312,0 -22.58543,-4.24179 -29.6878,-7.0559 l 5.875,-6.25 c 9.58225,3.80124 27.23551,8.18147 36.1875,7.25 z"
       style="fill:#efbc29;fill-opacity:1;stroke:#000000;stroke-width:1.04012449;stroke-linecap:round;stroke-linejoin:round;stroke-miterlimit:4;stroke-dasharray:none;stroke-dashoffset:0;stroke-opacity:1" />
    <path
       sodipodi:nodetypes="scsccs"
       inkscape:connector-curvature="0"
       id="path4078"
       d="m 180.97514,265.18921 c 7.83887,0 14.30379,6.95767 22.80419,5.92202 -3.46147,4.3342 -10.58311,6.04477 -16.04204,5.97591 -4.22104,-0.0532 -8.09586,-1.02048 -11.00479,-2.04263 l -2.51907,-9.01561 c 0,0 3.12048,-0.83969 6.76171,-0.83969 z"
       style="fill:#efbc29;fill-opacity:1;stroke:#000000;stroke-width:1.04012449;stroke-linecap:round;stroke-linejoin:round;stroke-miterlimit:4;stroke-dasharray:none;stroke-dashoffset:0;stroke-opacity:1" />
    <path
       style="fill:#efbc29;fill-opacity:1;stroke:#000000;stroke-width:1.04012449;stroke-linecap:round;stroke-linejoin:round;stroke-miterlimit:4;stroke-dasharray:none;stroke-dashoffset:0;stroke-opacity:1"
       d="m 176.33475,274.82354 c 7.83887,0 15.09929,5.49926 23.59969,4.46361 -2.88695,4.55517 -9.61084,6.30994 -15.06977,6.24108 -4.22104,-0.0532 -9.06813,-1.28565 -11.97706,-2.3078 z"
       id="path4848"
       inkscape:connector-curvature="0"
       sodipodi:nodetypes="ccscc" />
    <path
       style="fill:#efbc29;fill-opacity:1;stroke:#000000;stroke-width:1.04012449;stroke-linecap:round;stroke-linejoin:round;stroke-miterlimit:4;stroke-dasharray:none;stroke-dashoffset:0;stroke-opacity:1"
       d="m 208.55467,299.4577 c -1.25041,3.33875 -6.53016,4.19558 -11.18605,4.19558 -9.65288,0 -22.68848,-5.49109 -30.2877,-8.36067 l 5.37789,-5.90343 c 6.6911,4.05045 26.94544,10.44271 36.09586,10.06852 z"
       id="path4860"
       inkscape:connector-curvature="0"
       sodipodi:nodetypes="csccc" />
    <path
       sodipodi:nodetypes="ccscc"
       inkscape:connector-curvature="0"
       id="path4850"
       d="m 171.77225,283.57354 c 7.90137,0 13.97429,4.37426 22.84969,2.83861 -2.51195,3.55517 -6.73584,5.87244 -12.19477,5.80358 -4.22104,-0.0532 -10.88063,-2.53565 -13.66456,-4.1203 z"
       style="fill:#efbc29;fill-opacity:1;stroke:#000000;stroke-width:1.04012449;stroke-linecap:round;stroke-linejoin:round;stroke-miterlimit:4;stroke-dasharray:none;stroke-dashoffset:0;stroke-opacity:1" />
    <path
       sodipodi:nodetypes="csccc"
       inkscape:connector-curvature="0"
       id="path4986"
       d="m 199.91594,305.25925 c -2.80506,1.90162 -6.08976,2.56888 -9.60473,2.56888 -10.45293,0 -22.44893,-7.01276 -30.37742,-10.81811 l 5.49119,-4.87085 c 6.45052,5.65951 25.51913,12.39787 34.49096,13.12008 z"
       style="fill:#efbc29;fill-opacity:1;stroke:#000000;stroke-width:1.04012449;stroke-linecap:round;stroke-linejoin:round;stroke-miterlimit:4;stroke-dasharray:none;stroke-dashoffset:0;stroke-opacity:1" />
    <path
       style="fill:#efbc29;fill-opacity:1;stroke:#000000;stroke-width:1.04012449;stroke-linecap:round;stroke-linejoin:round;stroke-miterlimit:4;stroke-dasharray:none;stroke-dashoffset:0;stroke-opacity:1"
       d="m 168.60035,289.57354 c 8.11958,-0.53033 11.76536,5.42685 19.39659,3.61742 -1.78482,2.26176 -6.2916,4.76836 -10.98529,4.71244 -3.62933,-0.0432 -9.35537,-2.05891 -11.74904,-3.34563 z"
       id="path4852"
       inkscape:connector-curvature="0"
       sodipodi:nodetypes="ccscc" />
    <path
       inkscape:connector-curvature="0"
       id="path4988"
       d="m 165.65625,299.21875 -5.75,3.03125 c 9.33341,5.57044 20.24044,12.16239 28.78125,6.90625 -5.23055,-0.96497 -14.63123,-5.5887 -23.03125,-9.9375 z"
       style="fill:#efbc29;fill-opacity:1;stroke:#000000;stroke-width:1.04012449;stroke-linecap:round;stroke-linejoin:round;stroke-miterlimit:4;stroke-dasharray:none;stroke-dashoffset:0;stroke-opacity:1" />
    <path
       sodipodi:nodetypes="ccscccc"
       inkscape:connector-curvature="0"
       id="path4854"
       d="m 164.46323,294.88604 c 6.12858,0.0625 8.80547,5.78346 17.65871,3.96979 -1.63814,1.56394 -6.09918,3.75573 -10.28673,3.70391 -3.85946,-0.0478 -8.50138,-1.78788 -10.1351,-2.97553 l -0.093,-2.336 -0.13079,-3.28379 z"
       style="fill:#efbc29;fill-opacity:1;stroke:#000000;stroke-width:1.04012449;stroke-linecap:round;stroke-linejoin:round;stroke-miterlimit:4;stroke-dasharray:none;stroke-dashoffset:0;stroke-opacity:1" />
    <path
       inkscape:connector-curvature="0"
       style="fill:#efbc29;fill-opacity:1;stroke:#000000;stroke-width:1.04012449;stroke-linecap:round;stroke-linejoin:round;stroke-miterlimit:4;stroke-dasharray:none;stroke-dashoffset:0;stroke-opacity:1"
       d="m 156.51175,298.57353 -4.9561,2.23892 c 7.25571,6.68058 16.35023,15.05552 26.17516,11.13806 -5.01861,-1.76161 -13.59192,-7.78242 -21.21906,-13.37698 z"
       id="path4125"
       sodipodi:nodetypes="cccc" />
    <path
       style="fill:#efbc29;fill-opacity:1;stroke:#000000;stroke-width:1.04012449;stroke-linecap:round;stroke-linejoin:round;stroke-miterlimit:4;stroke-dasharray:none;stroke-dashoffset:0;stroke-opacity:1"
       d="m 159.74448,298.41729 c 5.09733,1.5 7.68047,5.72096 12.68996,5.18854 -0.60689,1.12644 -2.66166,2.57891 -5.34923,2.57891 -3.85976,0 -7.87638,-1.69413 -10.1351,-2.97553 z"
       id="path4856"
       inkscape:connector-curvature="0"
       sodipodi:nodetypes="ccscc" />
    <path
       inkscape:connector-curvature="0"
       id="path4127"
       d="m 154.90625,303.21875 -5.84375,2.46875 c 5.7115,5.43461 12.02112,9.60021 18.875,7.75 -3.33117,-1.69399 -8.11051,-5.70922 -13.03125,-10.21875 z"
       style="fill:#efbc29;fill-opacity:1;stroke:#000000;stroke-width:1.04012449;stroke-linecap:round;stroke-linejoin:round;stroke-miterlimit:4;stroke-dasharray:none;stroke-dashoffset:0;stroke-opacity:1" />
    <path
       inkscape:connector-curvature="0"
       id="path4858"
       d="m 154.21875,300.375 c -0.83681,0.3953 -1.72929,0.70065 -2.625,0.96875 l -2.28125,2.53125 c 1.94865,1.71656 6.734,5 10.09375,5 2.53943,0 4.11291,-0.61536 4.96875,-1.4375 -3.97677,-0.63595 -5.80936,-4.61729 -10.15625,-7.0625 z"
       style="fill:#efbc29;fill-opacity:1;stroke:#000000;stroke-width:1.04012449;stroke-linecap:round;stroke-linejoin:round;stroke-miterlimit:4;stroke-dasharray:none;stroke-dashoffset:0;stroke-opacity:1" />
    <path
       inkscape:connector-curvature="0"
       style="fill:#efbc29;fill-opacity:1;stroke:#000000;stroke-width:1.04012449;stroke-linecap:round;stroke-linejoin:round;stroke-miterlimit:4;stroke-dasharray:none;stroke-dashoffset:0;stroke-opacity:1"
       d="m 149.0625,304.21875 -1.5,0.53125 -0.9375,3.90625 c 4.1585,3.94957 8.68512,6.46976 13.40625,5.125 -3.72209,-2.14379 -7.33506,-5.57053 -10.96875,-9.5625 z"
       id="path4129" />
    <path
       sodipodi:nodetypes="cccccc"
       inkscape:connector-curvature="0"
       id="path4138"
       d="m 181.24031,266.82438 c -1.70477,3.05177 -5.08029,5.71452 -8.70625,6.62913 l -14.71666,0.97228 9.01562,-8.22011 c 6.87671,-1.46745 9.71165,1.25956 14.40729,0.61871 z"
       style="fill:#efbc29;fill-opacity:1;stroke:#000000;stroke-width:1.04012449;stroke-linecap:round;stroke-linejoin:round;stroke-miterlimit:4;stroke-dasharray:none;stroke-dashoffset:0;stroke-opacity:1" />
    <path
       style="fill:#efbc29;fill-opacity:1;stroke:#000000;stroke-width:1.04012449;stroke-linecap:round;stroke-linejoin:round;stroke-miterlimit:4;stroke-dasharray:none;stroke-dashoffset:0;stroke-opacity:1"
       d="m 181.50548,272.43704 c -1.08092,3.65447 -5.24984,6.43947 -8.75045,7.07108 l -14.67246,0.70711 1.72358,-4.81716 c 8.68868,-7.52205 14.13107,-0.81756 21.69933,-2.96103 z"
       id="path4140"
       inkscape:connector-curvature="0"
       sodipodi:nodetypes="ccccc" />
    <path
       inkscape:connector-curvature="0"
       id="path4143"
       d="m 166.21875,276.84375 c -2.40232,0.13669 -4.88076,0.95753 -7.375,3.15625 l -0.25,0.75 c 2.07614,1.68598 3.33371,3.51971 3.9375,5.375 l 8.98706,-0.34056 c 3.54997,-0.84462 7.31672,-3.54954 8.60669,-7.25314 -3.74477,1.01786 -8.62114,-1.98822 -13.90625,-1.6875 z"
       style="fill:#efbc29;fill-opacity:1;stroke:#000000;stroke-width:1.04012449;stroke-linecap:round;stroke-linejoin:round;stroke-miterlimit:4;stroke-dasharray:none;stroke-dashoffset:0;stroke-opacity:1"
       sodipodi:nodetypes="cccccccc" />
    <path
       inkscape:connector-curvature="0"
       id="path4145"
       d="m 161.90625,284.65625 c 1.38978,2.63551 1.77307,3.22038 0.72319,5.74074 l 4.63887,0.74598 c 3.81513,0.17186 7.73369,-2.04915 9.20044,-6.01792 -6.44357,1.08569 -7.1119,-3.72427 -14.5625,-0.4688 z"
       style="fill:#efbc29;fill-opacity:1;stroke:#000000;stroke-width:1.04012449;stroke-linecap:round;stroke-linejoin:round;stroke-miterlimit:4;stroke-dasharray:none;stroke-dashoffset:0;stroke-opacity:1"
       sodipodi:nodetypes="ccccc" />
    <path
       inkscape:connector-curvature="0"
       id="path4147"
       d="m 164.5625,289.09375 c -0.47996,0.0501 -1.03501,0.20005 -1.625,0.40625 -0.12652,1.70378 -0.74444,3.37415 -1.71875,4.90625 3.64832,1.44071 8.1578,0.89984 11.0625,-2.75 -3.21425,0.85046 -3.97955,-2.95317 -7.71875,-2.5625 z"
       style="fill:#efbc29;fill-opacity:1;stroke:#000000;stroke-width:1.04012449;stroke-linecap:round;stroke-linejoin:round;stroke-miterlimit:4;stroke-dasharray:none;stroke-dashoffset:0;stroke-opacity:1" />
    <path
       inkscape:connector-curvature="0"
       id="path4149"
       d="m 161.34375,294.1875 c -0.92043,1.51117 -2.17394,2.88445 -3.6875,4.0625 l 0.65625,0.4375 c 3.00496,2.38854 6.64691,0.6246 8.59375,-2.04956 -1.88608,0.0353 -2.90209,-1.87787 -5.5625,-2.45044 z"
       style="fill:#efbc29;fill-opacity:1;stroke:#000000;stroke-width:1.04012449;stroke-linecap:round;stroke-linejoin:round;stroke-miterlimit:4;stroke-dasharray:none;stroke-dashoffset:0;stroke-opacity:1"
       sodipodi:nodetypes="ccccc" />
    <path
       inkscape:connector-curvature="0"
       id="path4151"
       d="m 158,298 c -1.57894,1.29173 -3.46146,2.34321 -5.46875,3.0625 2.53128,2.60546 6.92816,1.82662 9.28125,-0.34375 C 159.96443,300.85659 159.46516,299.20372 158,298 Z"
       style="fill:#efbc29;fill-opacity:1;stroke:#000000;stroke-width:1.04012449;stroke-linecap:round;stroke-linejoin:round;stroke-miterlimit:4;stroke-dasharray:none;stroke-dashoffset:0;stroke-opacity:1" />
    <path
       sodipodi:nodetypes="cscsccscsssc"
       inkscape:connector-curvature="0"
       d="m 225.4375,271.84375 c -24.43367,0 -32.04863,-6.59375 -42.5,-6.59375 -13.01387,0 -22.66186,7.16549 -23.4375,14.125 3.30707,0.8197 4.5625,3.40629 4.5625,8.8125 0,7.01337 -5.79277,12.40718 -11.6875,13.75 l 0.18329,-1.87909 c 4.12812,-1.02743 8.99317,-5.57827 8.92273,-10.99485 -0.0272,-2.09065 -0.87077,-4.81027 -2.55877,-6.50604 -0.91217,1.47071 -2.38426,2.17217 -3.7984,2.17217 -2.13898,0 -3.89138,-1.67597 -3.89138,-5.0006 0,-7.35865 12.29813,-17.32411 26.07456,-17.32411 15.38824,0 23.14433,8.8466 48.52387,9.4272"
       style="fill:#efbc29;fill-opacity:1;stroke:#000000;stroke-width:1.04012449;stroke-linecap:round;stroke-linejoin:round;stroke-miterlimit:4;stroke-dasharray:none;stroke-dashoffset:0;stroke-opacity:1"
       id="path4152" />
  </g>
  <path
     id="path7854"
     d="m -461.96955,305.07321 6.1403,1.51176 0,-6.80046 16.69658,-4.71438 c -1.61132,-0.35544 -4.33577,-1.07928 -5.94658,-1.43466 l -0.85921,0.23933 c -4.1572,-0.9183 -8.31686,-1.83764 -12.47768,-2.75542 -5.00129,1.40463 -10.00384,2.80836 -15.00748,4.21137 l 0,1.22203 11.45407,2.53198 0,0.62277 -11.45407,-2.53282 0,1.27316 11.45407,2.53224 0,0.62277 -11.45407,-2.53296 0,1.27387 11.45407,2.53296 0,0.62243 -11.45407,-2.5334 0,1.27386 11.45407,2.53244 0,0.30113 0,0 z m 20.48471,-8.80931 c 0.33361,1.85235 -7.43901,2.60107 -9.38053,2.63917 l 9.38053,-2.63917 0,0 z m -10.38251,2.92089 8.42575,1.86115 c 0.1886,-0.0522 0.37517,-0.10589 0.56439,-0.15819 1.01306,-0.28399 2.76419,-0.30887 3.91087,-0.0558 0.2131,0.0479 0.4279,0.0944 0.64078,0.14202 2.19906,-0.61638 4.39736,-1.23414 6.59578,-1.85105 -0.21245,-0.0471 -0.4279,-0.0941 -0.641,-0.14113 -1.1502,-0.25436 -1.26068,-0.6888 -0.24697,-0.97339 0.18859,-0.0529 0.37579,-0.10588 0.56482,-0.1587 l -8.44174,-1.86428 1.80983,-0.50887 c 4.40365,0.97248 8.80795,1.94588 13.20807,2.91856 l 0,1.32159 -15.00789,4.11871 -14.40856,-3.18556 0,-0.61352 3.02587,-0.85161 0,0 z m 4.11277,-4.80367 -1.84073,0.51318 c -0.18145,0.0127 -0.3629,0.0269 -0.54382,0.042 -1.62062,0.13897 -3.21553,0.39939 -4.53834,0.77092 -1.32333,0.37113 -2.17433,0.79756 -2.53723,1.21487 -0.0352,0.0408 -0.0667,0.0817 -0.0925,0.12197 l -1.87995,0.52412 -7.65211,-1.69047 c 2.0368,-0.5652 1.43277,-0.8843 -0.32369,-1.27374 2.19895,-0.61652 4.39727,-1.23401 6.59622,-1.85053 1.94546,0.43072 3.21318,0.46236 5.11774,-0.0718 l 7.69439,1.69938 0,0 z m 7.26992,11.35067 -14.40856,-3.18633 0,-1.27394 14.40856,3.18634 15.00789,-4.11922 0,1.27394 -15.00789,4.11921 0,0 z m 0,1.89528 -14.40856,-3.18522 0,-1.27394 14.40856,3.18523 15.00789,-4.11779 0,1.27204 -15.00789,4.11968 0,0 z m 0,1.89521 -14.40856,-3.18523 0,-1.27387 14.40856,3.18666 15.00789,-4.11928 0,1.27354 -15.00789,4.11818 z"
     inkscape:connector-curvature="0"
     style="clip-rule:evenodd;fill:#efbc29;fill-rule:evenodd;fill-opacity:1;stroke:#000000;stroke-opacity:1" />
  <path
     style="fill:#efbc29;fill-opacity:1;stroke:#000000;stroke-width:1.155;stroke-linecap:round;stroke-linejoin:round;stroke-miterlimit:4;stroke-dasharray:none;stroke-dashoffset:0;stroke-opacity:1"
     d="m -459.55066,239.75019 c -6.31794,5.58205 2.83063,8.64211 -0.73577,12.77034 2.58598,1.12981 4.99535,-1.17312 5.22919,-3.52644"
     id="path4937"
     inkscape:connector-curvature="0"
     sodipodi:nodetypes="ccc" />
  <path
     sodipodi:nodetypes="ccc"
     inkscape:connector-curvature="0"
     id="path4935"
     d="m -455.55485,243.29341 c -7.67228,9.11126 3.56679,10.91511 -0.38359,17.76366 2.77275,-0.44607 4.41633,-3.10888 4.69721,-6.31272"
     style="fill:#efbc29;fill-opacity:1;stroke:#000000;stroke-width:1.155;stroke-linecap:round;stroke-linejoin:round;stroke-miterlimit:4;stroke-dasharray:none;stroke-dashoffset:0;stroke-opacity:1" />
  <path
     style="fill:#efbc29;fill-opacity:1;stroke:#000000;stroke-width:1.155;stroke-linecap:round;stroke-linejoin:round;stroke-miterlimit:4;stroke-dasharray:none;stroke-dashoffset:0;stroke-opacity:1"
     d="m -453.18131,253.05421 c -2.81645,10.06548 6.55475,7.78879 4.44178,15.40741 3.04579,-0.96032 4.24914,-2.87426 5.0664,-6.10744"
     id="path4930"
     inkscape:connector-curvature="0"
     sodipodi:nodetypes="ccc" />
  <path
     style="fill:#efbc29;fill-opacity:1;stroke:#000000;stroke-width:1.155;stroke-linecap:round;stroke-linejoin:round;stroke-miterlimit:4;stroke-dasharray:none;stroke-dashoffset:0;stroke-opacity:1"
     d="m -459.92497,231.79882 c -4.14353,6.02333 -0.36698,10.31004 3.67291,12.17895 3.15894,1.46138 5.39672,2.51315 6.09305,4.80106 1.05398,-1.14642 0.92767,-3.83555 -1.61948,-6.18347"
     id="path4109"
     inkscape:connector-curvature="0"
     sodipodi:nodetypes="cscc" />
  <path
     sodipodi:nodetypes="cccc"
     inkscape:connector-curvature="0"
     id="path4928"
     d="m -438.27706,232.51098 c 0.37615,1.13478 0.67182,2.25346 0.58992,3.29664 0.69218,-0.79666 0.87959,-1.63333 1.14515,-2.4638 z"
     style="fill:#efbc29;fill-opacity:1;stroke:#000000;stroke-width:1.155;stroke-linecap:round;stroke-linejoin:round;stroke-miterlimit:4;stroke-dasharray:none;stroke-dashoffset:0;stroke-opacity:1" />
  <g
     id="g4859"
     style="fill:#efbc29;fill-opacity:1;stroke:#000000;stroke-width:1.04012449;stroke-miterlimit:4;stroke-dasharray:none"
     transform="matrix(1.110444,0,0,1.110444,-589.97414,-95.902806)">
    <path
       sodipodi:nodetypes="sscs"
       inkscape:connector-curvature="0"
       id="path4086"
       d="m 133.86416,292.58958 c 0,-1.56275 0.86447,-2.96101 2.38648,-2.96101 2.00661,0 6.39433,4.5165 3.04941,9.41337 -1.23829,-3.11397 -5.43589,-2.9755 -5.43589,-6.45236 z"
       style="fill:#efbc29;fill-opacity:1;stroke:#000000;stroke-width:1.04012449;stroke-miterlimit:4;stroke-dasharray:none" />
    <path
       style="fill:#efbc29;fill-opacity:1;stroke:#000000;stroke-width:1.04012449;stroke-miterlimit:4;stroke-dasharray:none"
       d="m 133.86416,292.58958 c 0,-1.56275 -0.86447,-2.96101 -2.38648,-2.96101 -2.00661,0 -6.39433,4.5165 -3.04941,9.41337 1.23829,-3.11397 5.43589,-2.9755 5.43589,-6.45236 z"
       id="path4857"
       inkscape:connector-curvature="0"
       sodipodi:nodetypes="sscs" />
  </g>
  <path
     style="fill:#efbc29;fill-opacity:1;stroke:#000000;stroke-width:1.155;stroke-linecap:round;stroke-linejoin:round;stroke-miterlimit:4;stroke-dasharray:none"
     d="m -441.32549,225.11961 c -2.33754,0 -3.8087,0.6388 -2.94961,2.4291 0.11204,-0.86668 0.4652,-1.19357 0.93694,-1.07574 0.56138,0.14021 0.94915,1.88954 2.01267,2.22089 1.06353,-0.33135 1.4513,-2.08068 2.01268,-2.22089 0.47174,-0.11783 0.8249,0.20906 0.93694,1.07574 0.85909,-1.7903 -0.61207,-2.4291 -2.94962,-2.4291 z"
     id="path4080"
     inkscape:connector-curvature="0" />
  <path
     style="fill:none;stroke:#000000;stroke-width:1.155;stroke-linecap:round;stroke-linejoin:round;stroke-miterlimit:4;stroke-dasharray:none;stroke-dashoffset:0;stroke-opacity:1"
     d="m -435.04787,235.57761 c 4.63655,-5.28748 3.71116,-9.01372 0.93243,-12.21972"
     id="path4877"
     inkscape:connector-curvature="0"
     sodipodi:nodetypes="cc" />
  <path
     sodipodi:nodetypes="cc"
     inkscape:connector-curvature="0"
     id="path4882"
     d="m -447.60311,235.57761 c -4.63654,-5.28748 -3.71116,-9.01372 -0.93243,-12.21972"
     style="fill:none;stroke:#000000;stroke-width:1.155;stroke-linecap:round;stroke-linejoin:round;stroke-miterlimit:4;stroke-dasharray:none;stroke-dashoffset:0;stroke-opacity:1" />
  <path
     style="fill:none;stroke:#000000;stroke-width:1.155;stroke-linecap:round;stroke-linejoin:round;stroke-miterlimit:4;stroke-dasharray:none;stroke-dashoffset:0;stroke-opacity:1"
     d="m -436.85966,226.74408 c -1.76399,-1.88447 -2.31606,-3.37801 -2.99358,-5.49642"
     id="path4890"
     inkscape:connector-curvature="0"
     sodipodi:nodetypes="cc" />
  <path
     sodipodi:nodetypes="cc"
     inkscape:connector-curvature="0"
     id="path4892"
     d="m -445.93854,226.74408 c 1.764,-1.88447 2.31607,-3.37801 2.99358,-5.49642"
     style="fill:none;stroke:#000000;stroke-width:1.155;stroke-linecap:round;stroke-linejoin:round;stroke-miterlimit:4;stroke-dasharray:none;stroke-dashoffset:0;stroke-opacity:1" />
  <path
     style="fill:#efbc29;fill-opacity:1;stroke:#000000;stroke-width:1.155;stroke-miterlimit:4;stroke-dasharray:none"
     d="m -441.48584,238.20203 c -2.66354,2e-5 -3.34596,1.07742 -2.6162,2.81081 l 5.23239,0 c 0.72975,-1.73339 0.0473,-2.81083 -2.61619,-2.81081 z"
     id="path5054"
     inkscape:connector-curvature="0"
     sodipodi:nodetypes="sccs" />
  <g
     id="g4903"
     style="stroke:#000000;stroke-width:1.04012449;stroke-miterlimit:4;stroke-dasharray:none"
     transform="matrix(1.110444,0,0,1.110444,-589.97414,-95.902806)">
    <circle
       r="0.95017481"
       cy="283.72864"
       cx="129.7762"
       style="fill:#efbc29;fill-opacity:1;stroke:#000000;stroke-width:0.72030917;stroke-linecap:round;stroke-linejoin:round;stroke-miterlimit:4;stroke-dasharray:none;stroke-dashoffset:0;stroke-opacity:1"
       id="path4901"
       transform="matrix(1.4439973,0,0,1.4439973,-57.854653,-125.61536)" />
    <circle
       r="0.95017481"
       cy="283.72864"
       cx="129.7762"
       id="path4899"
       style="fill:#efbc29;fill-opacity:1;stroke:#000000;stroke-width:1.13330694;stroke-linecap:round;stroke-linejoin:round;stroke-miterlimit:4;stroke-dasharray:none;stroke-dashoffset:0;stroke-opacity:1"
       transform="matrix(0.91777828,0,0,0.91777828,10.592297,23.250531)" />
  </g>
  <g
     style="stroke-width:1.04012449;stroke-miterlimit:4;stroke-dasharray:none"
     id="g4960"
     transform="matrix(1.110444,0,0,1.110444,-589.97414,-95.902806)">
    <path
       sodipodi:nodetypes="ccsccscscscccc"
       inkscape:connector-curvature="0"
       id="path4927"
       d="m 144.73593,335.94407 1.23744,1.67938 c -0.70906,2.67828 0.35771,4.1171 0.35771,5.61588 0,0.89221 -0.29275,2.00898 -1.28579,2.42746 0.68266,-1.92453 -0.69033,-2.25208 -0.70711,-4.28684 -1.54499,1.6144 -0.008,3.42168 0.0716,5.40491 0.0336,0.83714 -0.12564,1.67222 -0.73452,2.46166 0,-0.84078 -0.30879,-1.50205 -0.62966,-2.23918 -0.30989,-0.71189 -0.63103,-1.49454 -0.69617,-2.57799 -0.70953,1.90319 0.16595,3.74103 0.23199,5.31984 0.033,0.78909 -0.13618,1.51348 -0.80651,2.14898 -0.2126,-2.39706 -2.03067,-2.87107 -2.74004,-5.03814 l -2.12132,-1.06066 z"
       style="fill:#efbc29;fill-opacity:1;stroke:#000000;stroke-width:1.04012449;stroke-linecap:round;stroke-linejoin:round;stroke-miterlimit:4;stroke-dasharray:none;stroke-dashoffset:0;stroke-opacity:1" />
    <path
       sodipodi:nodetypes="cssssccssssssssc"
       inkscape:connector-curvature="0"
       id="path4156"
       d="m 150.25001,330.43748 c -0.10538,4.11803 -3.21131,6.03616 -4.9375,8 -2.71558,3.08944 -5.24443,8.76301 -6.25,11.18751 -0.52935,1.27631 -0.57826,2.719 -1.5625,3.41161 -1.16436,0.81937 -2.55682,0.69305 -2.85669,1.62944 -0.81454,2.5435 -2.25247,3.81564 -4.32008,3.81564 l -0.7955,-2.98169 -5.93989,-0.0399 c -0.92544,-0.006 -1.81954,0.76559 -3.34031,0.76559 -1.88213,0 -2.49753,-1.13459 -2.49753,-2.50694 0,-1.71467 1.76658,-2.5 2.96875,-2.5 1.13631,0 1.73419,0.66063 2.87581,0.28299 0.90041,-0.29785 1.38305,-1.00989 2.25241,-1.43262 1.17998,-0.57377 2.70391,-0.87774 3.52045,-1.34057 0.36754,-0.20833 0.52317,-1.31696 0.61308,-1.73476 0.98619,-4.58266 2.32816,-9.31947 2.2695,-12.9938"
       style="fill:#efbc29;fill-opacity:1;stroke:#000000;stroke-width:1.04012449;stroke-linecap:round;stroke-linejoin:round;stroke-miterlimit:4;stroke-dasharray:none" />
    <path
       sodipodi:nodetypes="cssssc"
       inkscape:connector-curvature="0"
       id="path4938"
       d="m 132.00001,348.74999 c -0.90251,1.3784 -2.58236,2.69372 -4.125,3.1875 -1.27003,0.40652 -1.9028,-0.3125 -3.09375,-0.3125 -1.48936,0 -3.59375,1.07043 -3.59375,3.15625 0,1.60306 1.04924,2.59375 2.8125,2.59375 1.53167,0 3.03103,-0.8207 3.875,-1.5"
       style="fill:#efbc29;fill-opacity:1;stroke:#000000;stroke-width:1.04012449;stroke-linecap:round;stroke-linejoin:round;stroke-miterlimit:4;stroke-dasharray:none;stroke-dashoffset:0;stroke-opacity:1" />
    <path
       sodipodi:nodetypes="cccc"
       inkscape:connector-curvature="0"
       id="path4946"
       d="m 121.87501,353.90624 c 0.5884,-0.20298 1.30053,0.28281 1.40625,0.6875 -0.7762,1.13166 -0.92146,2.3814 -0.65625,3.59375 -1.29977,-0.94354 -1.8987,-2.84848 -0.75,-4.28125 z"
       style="fill:#efbc29;fill-opacity:1;stroke:#000000;stroke-width:1.04012449;stroke-linecap:round;stroke-linejoin:round;stroke-miterlimit:4;stroke-dasharray:none;stroke-dashoffset:0;stroke-opacity:1" />
    <path
       style="fill:#efbc29;fill-opacity:1;stroke:#000000;stroke-width:1.04012449;stroke-linecap:round;stroke-linejoin:round;stroke-miterlimit:4;stroke-dasharray:none;stroke-dashoffset:0;stroke-opacity:1"
       d="m 118.3456,352.99441 c 0.81505,-0.18095 1.2128,0.34568 1.29214,0.86662 -0.93334,0.90035 -1.25922,2.01583 -1.17325,3.16707 -1.14942,-1.0821 -1.46491,-2.92202 -0.11892,-4.03369 z"
       id="path4948"
       inkscape:connector-curvature="0"
       sodipodi:nodetypes="ccccc" />
    <path
       sodipodi:nodetypes="csc"
       inkscape:connector-curvature="0"
       id="path4956"
       d="m 131.50001,352.59374 c -2.52578,-1.36568 -4.5,0.76353 -4.5,2.625 0,2.4169 1.68559,3.25 3.46496,3.25"
       style="fill:#efbc29;fill-opacity:1;stroke:#000000;stroke-width:1.04012449;stroke-linecap:round;stroke-linejoin:round;stroke-miterlimit:4;stroke-dasharray:none;stroke-dashoffset:0;stroke-opacity:1" />
    <path
       sodipodi:nodetypes="cccc"
       inkscape:connector-curvature="0"
       id="path4950"
       d="m 127.77772,354.50389 c 0.66741,-0.28905 1.41059,-0.002 1.65437,0.70852 -0.87915,0.97713 -1.25459,2.0919 -1.00778,3.37559 -1.71542,-0.91147 -1.45384,-2.92129 -0.64659,-4.08411 z"
       style="fill:#efbc29;fill-opacity:1;stroke:#000000;stroke-width:1.04012449;stroke-linecap:round;stroke-linejoin:round;stroke-miterlimit:4;stroke-dasharray:none;stroke-dashoffset:0;stroke-opacity:1" />
  </g>
  <path
     style="fill:#efbc29;fill-opacity:1;stroke:#000000;stroke-width:1.155;stroke-linecap:round;stroke-linejoin:round;stroke-miterlimit:4;stroke-dasharray:none;stroke-dashoffset:0;stroke-opacity:1"
     d="m -446.37985,250.97214 c -1.8108,1.13565 -4.37237,2.49342 -4.37237,4.997 0,5.71755 5.90785,5.28356 5.90785,10.03176 0,2.9167 -4.12389,4.69421 -0.56384,11.62189 0.11644,-6.9939 9.54862,-4.69627 10.96563,-13.88055"
     id="path4978"
     inkscape:connector-curvature="0"
     sodipodi:nodetypes="csscc" />
  <g
     id="g4918"
     style="fill:#efbc29;fill-opacity:1;stroke:#000000;stroke-width:1.04012449;stroke-miterlimit:4;stroke-dasharray:none"
     transform="matrix(1.110444,0,0,1.110444,-589.97414,-95.902806)">
    <path
       sodipodi:nodetypes="csssc"
       inkscape:connector-curvature="0"
       id="path4894"
       d="m 134.74804,281.45265 c -0.66064,0.435 -0.86938,0.83116 -0.86938,1.49033 0,0.49107 0.51421,0.88321 1.41488,0.88321 1.11925,0 2.01621,-0.54354 2.61239,-0.54354 1.46504,0 2.34457,0.65378 4.18371,-0.3274"
       style="fill:#efbc29;fill-opacity:1;stroke:#000000;stroke-width:1.04012449;stroke-linecap:round;stroke-linejoin:round;stroke-miterlimit:4;stroke-dasharray:none;stroke-dashoffset:0;stroke-opacity:1" />
    <path
       style="fill:#efbc29;fill-opacity:1;stroke:#000000;stroke-width:1.04012449;stroke-linecap:round;stroke-linejoin:round;stroke-miterlimit:4;stroke-dasharray:none"
       d="m 133.00928,281.45265 c 0.66064,0.435 0.86938,0.83116 0.86938,1.49033 0,0.49107 -0.51421,0.88321 -1.41488,0.88321 -1.11925,0 -2.01621,-0.54354 -2.61239,-0.54354 -1.46504,0 -2.32247,0.56539 -3.76387,-0.28321"
       id="path4913"
       inkscape:connector-curvature="0"
       sodipodi:nodetypes="csssc" />
  </g>
  <path
     style="fill:#efbc29;fill-opacity:1;stroke:#000000;stroke-width:1.155;stroke-linecap:round;stroke-linejoin:round;stroke-miterlimit:4;stroke-dasharray:none;stroke-dashoffset:0;stroke-opacity:1"
     d="m -442.28509,257.98182 c -0.23449,6.0149 12.04111,5.85296 6.80147,12.6313 3.10922,-0.90805 6.54976,-4.8374 5.82983,-10.27161"
     id="path4980"
     inkscape:connector-curvature="0"
     sodipodi:nodetypes="ccc" />
  <path
     style="fill:#efbc29;fill-opacity:1;stroke:#000000;stroke-width:1.155;stroke-linecap:round;stroke-linejoin:round;stroke-miterlimit:4;stroke-dasharray:none;stroke-dashoffset:0;stroke-opacity:1"
     d="m -425.17975,255.64935 c -1.19759,2.09833 -2.85602,4.13116 -2.03662,8.29371 -1.69387,-0.64499 -2.78798,-2.16509 -3.04267,-3.68064"
     id="path4111"
     inkscape:connector-curvature="0"
     sodipodi:nodetypes="ccc" />
  <path
     style="fill:#efbc29;fill-opacity:1;stroke:#000000;stroke-width:1.155;stroke-linecap:round;stroke-linejoin:round;stroke-miterlimit:4;stroke-dasharray:none;stroke-dashoffset:0;stroke-opacity:1"
     d="m -446.96976,241.63745 c -0.0376,3.94171 3.3068,4.26284 4.47648,6.45445 0.73505,-0.57474 0.6641,-1.49108 0.97163,-2.42909 1.24836,0.76694 1.35838,1.74464 1.29753,2.83093 -0.0499,0.89049 -0.23877,1.84992 0.19463,2.86009 0.64672,-1.61777 2.40238,-2.07236 1.38806,-5.23991 0.44724,0.38909 0.73013,0.81987 0.90223,1.42276 0.72649,-1.25248 1.58622,-2.06568 1.77837,-2.87818 0.30457,-1.28785 -0.10905,-2.31236 0.13021,-3.57628 z"
     id="path5037"
     inkscape:connector-curvature="0"
     sodipodi:nodetypes="cccscccscc" />
  <path
     style="fill:none;stroke:#000000;stroke-width:1.155;stroke-linecap:round;stroke-linejoin:round;stroke-miterlimit:4;stroke-dasharray:none;stroke-dashoffset:0;stroke-opacity:1"
     d="m -444.93251,242.84073 c 0.16358,0.23161 0.32716,0.46449 0.49074,0.73613"
     id="path5039"
     inkscape:connector-curvature="0"
     sodipodi:nodetypes="cc" />
  <path
     style="fill:#efbc29;fill-opacity:1;stroke:#000000;stroke-width:1.155;stroke-linecap:round;stroke-linejoin:round;stroke-miterlimit:4;stroke-dasharray:none;stroke-dashoffset:0;stroke-opacity:1"
     d="m -444.51537,236.80449 c -0.0513,1.18988 0.16867,3.14913 1.00604,4.1714 -0.5096,0.37555 -1.33606,0.49931 -1.93847,0.29444 -0.47699,-2.17551 0.23293,-3.71202 0.93243,-4.46584 z"
     id="path5050"
     inkscape:connector-curvature="0"
     sodipodi:nodetypes="cccc" />
  <path
     sodipodi:nodetypes="cccc"
     inkscape:connector-curvature="0"
     id="path5052"
     d="m -438.1928,236.80449 c 0.0513,1.18988 -0.16867,3.14913 -1.00604,4.1714 0.5096,0.37555 1.33606,0.49931 1.93847,0.29444 0.47699,-2.17551 -0.23293,-3.71202 -0.93243,-4.46584 z"
     style="fill:#efbc29;fill-opacity:1;stroke:#000000;stroke-width:1.155;stroke-linecap:round;stroke-linejoin:round;stroke-miterlimit:4;stroke-dasharray:none;stroke-dashoffset:0;stroke-opacity:1" />
  <path
     style="fill:#efbc29;fill-opacity:1;stroke:#000000;stroke-width:1.155;stroke-miterlimit:4;stroke-dasharray:none"
     d="m -447.16432,239.03487 c -0.61266,1.42093 -0.77234,4.16416 2.63901,4.16416 1.38399,0 2.0778,-0.97164 3.19981,-0.97164 1.12204,0 1.81584,0.97164 3.19983,0.97164 3.41136,0 3.25166,-2.74323 2.63902,-4.16416 -0.26955,1.28971 -1.33732,1.67043 -2.34215,1.66566 -1.10124,-0.006 -2.18653,-0.46194 -3.4967,-0.41642 -1.31016,-0.0455 -2.39546,0.41087 -3.49671,0.41642 -1.00479,0.004 -2.07256,-0.37595 -2.34211,-1.66566 z"
     id="path5032"
     inkscape:connector-curvature="0" />
  <path
     style="fill:#efbc29;fill-opacity:1;stroke:#000000;stroke-width:1.155;stroke-linecap:round;stroke-linejoin:round;stroke-miterlimit:4;stroke-dasharray:none;stroke-dashoffset:0;stroke-opacity:1"
     d="m -439.60785,210.35299 c -1.09893,-2.17102 -3.14105,-4.07325 -5.88903,-4.07325 -2.82234,0 -6.36393,2.86532 -8.73537,0.24538 0.4076,1.57995 1.15263,3.45521 2.7482,4.51491"
     id="path4869"
     inkscape:connector-curvature="0"
     sodipodi:nodetypes="cscc" />
  <path
     style="fill:#efbc29;fill-opacity:1;stroke:#000000;stroke-width:1.155;stroke-linecap:round;stroke-linejoin:round;stroke-miterlimit:4;stroke-dasharray:none;stroke-dashoffset:0;stroke-opacity:1"
     d="m -441.08011,213.73916 c -0.70995,-5.41261 2.88643,-7.89926 6.18441,-7.89926 2.30365,0 4.4521,1.075 4.8575,3.13898"
     id="path4863"
     inkscape:connector-curvature="0"
     sodipodi:nodetypes="csc" />
  <path
     style="fill:#efbc29;fill-opacity:1;stroke:#000000;stroke-width:1.155;stroke-linecap:round;stroke-linejoin:round;stroke-miterlimit:4;stroke-dasharray:none;stroke-dashoffset:0;stroke-opacity:1"
     d="m -445.6441,211.18726 c -0.83172,-0.93757 -2.60915,-1.80096 -4.61301,-1.82105 -2.76939,-0.0278 -6.23874,1.56841 -5.2511,5.30538"
     id="path4871"
     inkscape:connector-curvature="0"
     sodipodi:nodetypes="csc" />
  <path
     style="fill:#efbc29;fill-opacity:1;stroke:#000000;stroke-width:1.155;stroke-linecap:round;stroke-linejoin:round;stroke-miterlimit:4;stroke-dasharray:none;stroke-dashoffset:0;stroke-opacity:1"
     d="m -454.62485,213.15026 c -5.54053,2.15302 -6.62928,7.33823 -5.59457,11.82712"
     id="path4873"
     inkscape:connector-curvature="0"
     sodipodi:nodetypes="cc" />
  <path
     style="fill:#efbc29;fill-opacity:1;stroke:#000000;stroke-width:1.155;stroke-linecap:round;stroke-linejoin:round;stroke-miterlimit:4;stroke-dasharray:none;stroke-dashoffset:0;stroke-opacity:1"
     d="m -457.96197,220.21709 c -5.99283,6.3695 -4.61427,12.08091 1.17781,16.09665 -0.7707,-3.15637 1.43481,-3.73725 2.06116,-6.37977"
     id="path4107"
     inkscape:connector-curvature="0"
     sodipodi:nodetypes="ccc" />
  <path
     sodipodi:nodetypes="csc"
     inkscape:connector-curvature="0"
     id="path4865"
     d="m -436.77326,211.23359 c 1.04563,-1.64865 2.93487,-3.08466 5.80455,-3.08466 2.65372,0 5.85279,1.56775 5.05491,5.22023"
     style="fill:#efbc29;fill-opacity:1;stroke:#000000;stroke-width:1.155;stroke-linecap:round;stroke-linejoin:round;stroke-miterlimit:4;stroke-dasharray:none;stroke-dashoffset:0;stroke-opacity:1" />
  <path
     style="fill:#efbc29;fill-opacity:1;stroke:#000000;stroke-width:1.155;stroke-linecap:round;stroke-linejoin:round;stroke-miterlimit:4;stroke-dasharray:none;stroke-dashoffset:0;stroke-opacity:1"
     d="m -427.28999,212.07061 c 3.54958,1.21994 3.56341,4.31276 4.26954,5.88902 -1.02934,0.13719 -1.7745,-0.1519 -2.55191,-0.3926 7.13195,3.48476 2.53936,8.27602 7.70479,9.86411 -0.31752,0.54465 -0.86347,0.97508 -1.963,1.12873 1.24901,2.51615 1.68288,5.01428 1.65605,7.50201 -0.0562,5.20715 -2.13793,7.20121 -2.93201,10.11596 l -5.34919,-6.13438"
     id="path4867"
     inkscape:connector-curvature="0"
     sodipodi:nodetypes="cccccscc" />
  <path
     style="fill:#efbc29;fill-opacity:1;stroke:#000000;stroke-width:1.155;stroke-linecap:round;stroke-linejoin:round;stroke-miterlimit:4;stroke-dasharray:none;stroke-dashoffset:0;stroke-opacity:1"
     d="m -424.24733,223.06346 c 0.92223,4.09507 4.30671,4.70757 3.18988,10.99284 -1.13462,-0.0771 -1.96462,-1.39093 -2.87293,-2.19846"
     id="path4984"
     inkscape:connector-curvature="0"
     sodipodi:nodetypes="ccc" />
  <path
     style="fill:#efbc29;fill-opacity:1;stroke:#000000;stroke-width:1.155;stroke-linecap:round;stroke-linejoin:round;stroke-miterlimit:4;stroke-dasharray:none;stroke-dashoffset:0;stroke-opacity:1"
     d="m -423.82395,239.9371 c 1.08313,1.8001 2.91491,3.55915 2.91491,6.94028 0,3.72325 -2.10235,5.07268 -2.16943,7.00905 -0.0288,0.82883 0.42631,1.69804 1.50415,2.45847 -1.0454,0.87611 -2.57555,1.15506 -3.56785,1.17388 -2.74481,0.0521 -4.96719,-3.07876 -6.10788,-5.43271"
     id="path4982"
     inkscape:connector-curvature="0"
     sodipodi:nodetypes="csscsc" />
  <path
     sodipodi:nodetypes="cscc"
     inkscape:connector-curvature="0"
     id="path4931"
     d="m -426.25941,239.89625 c 1.306,1.24224 2.18594,3.31677 2.18594,5.54248 0,6.2665 -10.91592,8.4593 -8.17311,14.38204 -4.62538,-1.45591 -4.14934,-6.44522 -1.66857,-8.5391"
     style="fill:#efbc29;fill-opacity:1;stroke:#000000;stroke-width:1.155;stroke-linecap:round;stroke-linejoin:round;stroke-miterlimit:4;stroke-dasharray:none;stroke-dashoffset:0;stroke-opacity:1" />
  <path
     style="fill:#efbc29;fill-opacity:1;stroke:#000000;stroke-width:1.155;stroke-linecap:round;stroke-linejoin:round;stroke-miterlimit:4;stroke-dasharray:none;stroke-dashoffset:0;stroke-opacity:1"
     d="m -424.29642,230.42474 c 2.04214,2.22374 2.72578,4.44551 2.72578,6.67121 0,6.31558 -6.40101,5.90739 -6.94624,10.11249 -1.28826,-1.89757 -0.41963,-4.18775 1.1778,-6.28162"
     id="path4929"
     inkscape:connector-curvature="0"
     sodipodi:nodetypes="cscc" />
  <path
     sodipodi:nodetypes="cczcc"
     inkscape:connector-curvature="0"
     d="m -427.25318,215.101 c -1.24378,-1.75752 -3.95589,-2.4258 -5.87464,-0.18402 -1.82854,-1.74585 -4.18635,-2.95888 -7.4873,-2.95888 -3.30095,0 -5.65876,1.21303 -7.48729,2.95888 -1.91875,-2.24178 -4.63087,-1.5735 -5.87464,0.18402"
     style="fill:#efbc29;fill-opacity:1;stroke:#000000;stroke-width:1.155;stroke-linecap:round;stroke-linejoin:round;stroke-miterlimit:4;stroke-dasharray:none"
     id="path5003" />
  <path
     style="fill:none;stroke:#000000;stroke-width:1.155;stroke-linecap:round;stroke-linejoin:round;stroke-miterlimit:4;stroke-dasharray:none;stroke-dashoffset:0;stroke-opacity:1"
     d="m -430.97063,215.55495 c 0.29155,-0.73396 1.24872,-1.17782 2.11023,-1.17782 1.70426,0 2.52737,1.82996 2.52737,3.09175 0,1.4541 -0.90618,3.36675 -2.62552,3.3371"
     id="path4981"
     inkscape:connector-curvature="0"
     sodipodi:nodetypes="cssc" />
  <path
     style="fill:none;stroke:#000000;stroke-width:1.155;stroke-linecap:round;stroke-linejoin:round;stroke-miterlimit:4;stroke-dasharray:none;stroke-dashoffset:0;stroke-opacity:1"
     d="m -431.216,216.92905 c 0.56649,-0.18634 1.34721,-0.32216 1.54586,-0.0491 0.33973,0.46701 -0.10905,0.8013 0.0982,1.25143 0.19888,0.43203 0.64448,0.17445 0.88336,0.68704 0.16551,0.35517 -0.11654,0.71159 -0.46622,1.00604"
     id="path4983"
     inkscape:connector-curvature="0"
     sodipodi:nodetypes="csssc" />
  <path
     sodipodi:nodetypes="cssc"
     inkscape:connector-curvature="0"
     id="path4999"
     d="m -450.25962,215.55495 c -0.29154,-0.73396 -1.24871,-1.17782 -2.11023,-1.17782 -1.70425,0 -2.52737,1.82996 -2.52737,3.09175 0,1.4541 0.90619,3.36675 2.62552,3.3371"
     style="fill:none;stroke:#000000;stroke-width:1.155;stroke-linecap:round;stroke-linejoin:round;stroke-miterlimit:4;stroke-dasharray:none;stroke-dashoffset:0;stroke-opacity:1" />
  <path
     sodipodi:nodetypes="csssc"
     inkscape:connector-curvature="0"
     id="path5001"
     d="m -449.91609,216.92905 c -0.56649,-0.18634 -1.34721,-0.32216 -1.54586,-0.0491 -0.33973,0.46701 0.10904,0.8013 -0.0982,1.25143 -0.19888,0.43203 -0.64448,0.17445 -0.88336,0.68704 -0.16551,0.35517 0.11654,0.71159 0.46622,1.00604"
     style="fill:none;stroke:#000000;stroke-width:1.155;stroke-linecap:round;stroke-linejoin:round;stroke-miterlimit:4;stroke-dasharray:none;stroke-dashoffset:0;stroke-opacity:1" />
  <path
     style="fill:none;stroke:#000000;stroke-width:1;stroke-linecap:round;stroke-linejoin:round;stroke-miterlimit:4;stroke-dasharray:none;stroke-dashoffset:0;stroke-opacity:1"
     d="m -472.16922,268.11444 c 1.99632,0.41947 2.91928,1.88939 4.85843,1.88939 0.97094,0 1.48127,-0.40078 2.03663,-0.66252"
     id="path5134"
     inkscape:connector-curvature="0"
     sodipodi:nodetypes="csc" />
  <g
     id="g7863"
     transform="matrix(0.25881905,0.96592583,-0.96592583,0.25881905,-93.814649,647.59792)">
    <path
       sodipodi:nodetypes="csssc"
       inkscape:connector-curvature="0"
       id="path5132"
       d="m -469.93079,263.84225 c -1.17915,1.11115 -3.64649,1.033 -5.80641,1.21862 -1.59413,0.13699 -2.64939,1.70406 -2.63731,3.33134 0.0111,1.47582 1.20435,2.4985 3.05373,2.4985 2.02786,0 3.31235,-2.05687 5.2052,-3.33134"
       style="fill:#efbc29;fill-opacity:1;stroke:#000000;stroke-width:1.15499997;stroke-linecap:round;stroke-linejoin:round;stroke-miterlimit:4;stroke-dasharray:none;stroke-dashoffset:0;stroke-opacity:1" />
    <path
       sodipodi:nodetypes="cccc"
       inkscape:connector-curvature="0"
       id="path5136"
       d="m -477.17489,268.01629 c 0.7542,0.23223 1.3224,0.87275 1.4968,1.54587 -0.78124,0.55408 -1.30933,1.43103 -1.32504,2.40468 -1.26869,-0.75675 -1.47492,-3.00954 -0.17176,-3.95055 z"
       style="fill:#efbc29;fill-opacity:1;stroke:#000000;stroke-width:1.15499997;stroke-linecap:round;stroke-linejoin:round;stroke-miterlimit:4;stroke-dasharray:none;stroke-dashoffset:0;stroke-opacity:1" />
  </g>
  <g
     id="g7873"
     transform="matrix(0.8660254,-0.5,0.5,0.8660254,-200.70082,-206.31645)">
    <path
       style="fill:#efbc29;fill-opacity:1;stroke:#000000;stroke-width:1.15499997;stroke-linecap:round;stroke-linejoin:round;stroke-miterlimit:4;stroke-dasharray:none;stroke-dashoffset:0;stroke-opacity:1"
       d="m -479.69438,271.79381 c 1.49852,0.35963 2.69619,1.85536 2.69619,3.04656 0,1.41365 -0.77146,3.17901 -2.65199,3.17901 -1.48135,0 -2.69618,-1.448 -2.69618,-2.64918 0,-0.87246 0.16656,-1.6002 1.0166,-2.11935"
       id="path5160"
       inkscape:connector-curvature="0"
       sodipodi:nodetypes="csssc" />
    <path
       sodipodi:nodetypes="cccc"
       inkscape:connector-curvature="0"
       id="path5140-1"
       d="m -477.36879,275.56596 c 0.67968,0.68921 1.20385,0.51457 2.20725,-0.10405 -0.41425,2.01039 -2.63704,2.84285 -3.92745,1.76671 0.10416,-0.73223 0.96953,-1.6427 1.7202,-1.6626 z"
       style="fill:#efbc29;fill-opacity:1;stroke:#000000;stroke-width:1.15499997;stroke-linecap:round;stroke-linejoin:round;stroke-miterlimit:4;stroke-dasharray:none;stroke-dashoffset:0;stroke-opacity:1" />
  </g>
  <g
     id="g7869"
     transform="matrix(0.5,-0.8660254,0.8660254,0.5,-474.30753,-282.81397)">
    <path
       sodipodi:nodetypes="csssc"
       inkscape:connector-curvature="0"
       id="path5138"
       d="m -479.50596,267.52554 c 1.66381,0.39972 2.99359,2.0622 2.99359,3.38619 0,1.57124 -0.85655,3.53341 -2.94452,3.53341 -1.64474,0 -1.84856,-2.25795 -2.99358,-2.94451 -1.05097,-0.63017 0.29628,-3.02969 2.72203,-4.08551"
       style="fill:#efbc29;fill-opacity:1;stroke:#000000;stroke-width:1.15499997;stroke-linecap:round;stroke-linejoin:round;stroke-miterlimit:4;stroke-dasharray:none;stroke-dashoffset:0;stroke-opacity:1" />
    <path
       sodipodi:nodetypes="cccc"
       inkscape:connector-curvature="0"
       id="path5140"
       d="m -477.71543,272.78254 c 0.82381,0.6892 1.45913,0.51456 2.67531,-0.10405 -0.5021,2.01038 -3.19625,2.84284 -4.76028,1.7667 0.1262,-0.73222 1.17512,-1.6427 2.08497,-1.6626 z"
       style="fill:#efbc29;fill-opacity:1;stroke:#000000;stroke-width:1.15499997;stroke-linecap:round;stroke-linejoin:round;stroke-miterlimit:4;stroke-dasharray:none;stroke-dashoffset:0;stroke-opacity:1" />
  </g>
  <path
     style="fill:none;fill-rule:evenodd;stroke:#000000;stroke-width:1px;stroke-linecap:round;stroke-linejoin:round;stroke-opacity:1"
     d="m -473.75992,262.71825 c -0.50319,2.25226 0.47206,4.98416 1.38889,5.30755"
     id="path7867"
     inkscape:connector-curvature="0"
     sodipodi:nodetypes="cc" />
</svg>
